<?xml version="1.0" encoding="UTF-8"?>
<svg id="_レイヤー_2" data-name="レイヤー 2" xmlns="http://www.w3.org/2000/svg" viewBox="0 0 170.49 18.3">
  <defs>
    <style>
      .cls-1 {
        fill: #f7f8f8;
        stroke-width: 0px;
      }
    </style>
  </defs>
  <g id="_ヘッダー" data-name="ヘッダー">
    <g>
      <path class="cls-1" d="m9.78,17.87c-1.59-.05-3.18-.07-4.77-.07s-3.14.02-4.7.07c-.2,0-.3-.16-.3-.48,0-.24.06-.44.17-.62,1.68-2.47,3.24-4.57,4.7-6.32l.48-.55c1.21-1.42,2.01-2.57,2.41-3.44.3-.66.45-1.37.45-2.14,0-1.17-.29-2.06-.87-2.67-.47-.5-1.08-.74-1.83-.74-1.14,0-1.94.46-2.41,1.38-.16.35-.24.94-.24,1.77,0,.33-.19.61-.57.83-.32.2-.7.29-1.14.29-.51,0-.77-.29-.77-.88,0-1.06.57-2.04,1.72-2.95C3.13.53,4.27.12,5.51.12c1.51,0,2.73.43,3.66,1.29.84.78,1.26,1.78,1.26,3,0,1.07-.24,1.99-.71,2.76-.44.72-1.25,1.62-2.42,2.67l-.77.7c-2.19,1.97-3.81,3.8-4.86,5.51h4.15c1.1,0,1.86-.04,2.28-.13.34-.06.64-.2.89-.39.5-.37.95-1.02,1.36-1.95.05-.11.11-.17.2-.17.11,0,.22.03.33.09.1.05.15.1.15.16l-.03.13c-.41,1.55-.81,2.91-1.22,4.09Z"/>
      <path class="cls-1" d="m19.09.12c1.64,0,2.95.85,3.96,2.55.96,1.62,1.44,3.78,1.44,6.49,0,3.11-.59,5.49-1.77,7.13-.96,1.33-2.17,2-3.63,2-1.79,0-3.17-.85-4.14-2.56-.88-1.56-1.32-3.7-1.32-6.41,0-3.18.6-5.59,1.81-7.24.97-1.31,2.18-1.97,3.65-1.97Zm0,.77c-2.16,0-3.24,2.78-3.24,8.35,0,3.14.33,5.37.98,6.69.52,1.06,1.27,1.59,2.26,1.59,1.1,0,1.9-.7,2.42-2.09.5-1.36.76-3.42.76-6.19,0-5.57-1.06-8.35-3.17-8.35Z"/>
      <path class="cls-1" d="m36.88,17.87c-1.59-.05-3.18-.07-4.77-.07s-3.14.02-4.7.07c-.2,0-.3-.16-.3-.48,0-.24.06-.44.17-.62,1.68-2.47,3.24-4.57,4.7-6.32l.48-.55c1.21-1.42,2.01-2.57,2.41-3.44.3-.66.45-1.37.45-2.14,0-1.17-.29-2.06-.87-2.67-.47-.5-1.08-.74-1.83-.74-1.14,0-1.94.46-2.41,1.38-.16.35-.24.94-.24,1.77,0,.33-.19.61-.57.83-.32.2-.7.29-1.14.29-.51,0-.77-.29-.77-.88,0-1.06.57-2.04,1.72-2.95,1.03-.81,2.17-1.22,3.41-1.22,1.51,0,2.73.43,3.66,1.29.84.78,1.26,1.78,1.26,3,0,1.07-.24,1.99-.71,2.76-.44.72-1.25,1.62-2.42,2.67l-.77.7c-2.19,1.97-3.81,3.8-4.86,5.51h4.15c1.1,0,1.86-.04,2.28-.13.34-.06.64-.2.89-.39.5-.37.95-1.02,1.36-1.95.05-.11.11-.17.2-.17.11,0,.22.03.33.09.1.05.15.1.15.16l-.03.13c-.41,1.55-.81,2.91-1.22,4.09Z"/>
      <path class="cls-1" d="m49.23,13.11v1.55c0,.97.07,1.62.22,1.94.18.32.8.52,1.86.6.13.02.2.13.2.34s-.06.33-.2.33c-1.15-.06-2.15-.1-3-.1s-1.87.03-3.05.1c-.16,0-.24-.11-.24-.33,0-.2.08-.32.24-.34.99-.1,1.57-.26,1.73-.5.21-.35.32-1.17.32-2.47v-1.1h-4.39l-2.17.02c-.22,0-.33-.22-.33-.65,0-.33.09-.66.28-1,2.04-3.36,4.41-7.08,7.09-11.15l1.43-.37c.11,0,.17.07.17.22l-.1,6.26-.05,5.7c.83,0,1.71-.04,2.65-.12.11,0,.17.05.17.15l-.22.81c-.02.1-.1.15-.22.15-.49-.03-1.28-.05-2.38-.05Zm-1.93-.9l.05-5.27c.03-1.38.06-2.87.11-4.48-2.54,3.86-4.51,6.98-5.91,9.38-.07.14-.1.22-.1.26,0,.08.11.12.33.12h5.52Z"/>
      <path class="cls-1" d="m56.36,15.3c.44,0,.8.16,1.09.48.26.29.39.63.39,1.05s-.16.79-.49,1.07c-.29.25-.61.38-.99.38-.46,0-.83-.16-1.12-.48-.25-.28-.38-.6-.38-.98,0-.48.16-.86.49-1.15.28-.25.61-.38,1.01-.38Z"/>
      <path class="cls-1" d="m69.6,13.11v1.55c0,.97.07,1.62.22,1.94.18.32.8.52,1.86.6.13.02.2.13.2.34s-.06.33-.2.33c-1.15-.06-2.15-.1-3-.1s-1.87.03-3.05.1c-.16,0-.24-.11-.24-.33,0-.2.08-.32.24-.34.99-.1,1.57-.26,1.73-.5.21-.35.32-1.17.32-2.47v-1.1h-4.39l-2.17.02c-.22,0-.33-.22-.33-.65,0-.33.09-.66.28-1,2.04-3.36,4.41-7.08,7.09-11.15l1.43-.37c.11,0,.17.07.17.22l-.1,6.26-.05,5.7c.83,0,1.71-.04,2.65-.12.11,0,.17.05.17.15l-.22.81c-.02.1-.1.15-.22.15-.49-.03-1.28-.05-2.38-.05Zm-1.93-.9l.05-5.27c.03-1.38.06-2.87.11-4.48-2.54,3.86-4.51,6.98-5.91,9.38-.07.14-.1.22-.1.26,0,.08.11.12.33.12h5.52Z"/>
      <path class="cls-1" d="m76.73,15.3c.44,0,.8.16,1.09.48.26.29.39.63.39,1.05s-.16.79-.49,1.07c-.29.25-.61.38-.99.38-.46,0-.83-.16-1.12-.48-.25-.28-.38-.6-.38-.98,0-.48.16-.86.49-1.15.28-.25.61-.38,1.01-.38Z"/>
      <path class="cls-1" d="m91.17,17.87c-1.59-.05-3.18-.07-4.77-.07s-3.14.02-4.7.07c-.2,0-.3-.16-.3-.48,0-.24.06-.44.17-.62,1.68-2.47,3.24-4.57,4.7-6.32l.48-.55c1.21-1.42,2.01-2.57,2.41-3.44.3-.66.45-1.37.45-2.14,0-1.17-.29-2.06-.87-2.67-.47-.5-1.08-.74-1.83-.74-1.14,0-1.94.46-2.41,1.38-.16.35-.24.94-.24,1.77,0,.33-.19.61-.57.83-.32.2-.7.29-1.14.29-.51,0-.77-.29-.77-.88,0-1.06.57-2.04,1.72-2.95,1.03-.81,2.17-1.22,3.41-1.22,1.51,0,2.73.43,3.66,1.29.84.78,1.26,1.78,1.26,3,0,1.07-.24,1.99-.71,2.76-.44.72-1.25,1.62-2.42,2.67l-.77.7c-2.19,1.97-3.81,3.8-4.86,5.51h4.15c1.1,0,1.86-.04,2.28-.13.34-.06.64-.2.89-.39.5-.37.95-1.02,1.36-1.95.05-.11.11-.17.2-.17.11,0,.22.03.33.09.1.05.15.1.15.16l-.03.13c-.41,1.55-.81,2.91-1.22,4.09Z"/>
      <path class="cls-1" d="m101.49,0c.27,0,.4.11.4.32-.08,2.19-.12,3.98-.12,5.36v7.59c0,1.25.02,2.07.06,2.45.04.33.12.59.24.79.18.33.94.54,2.27.63.15.02.22.14.22.37s-.06.35-.17.35c-1.48-.06-2.66-.1-3.53-.1-.76,0-1.96.03-3.6.1-.11,0-.17-.12-.17-.35s.08-.35.24-.37c.8-.06,1.35-.14,1.66-.24.24-.08.41-.21.51-.39.2-.32.31-1.4.31-3.25V4.49c0-.97-.09-1.57-.27-1.82-.16-.22-.4-.33-.71-.33-.22,0-.52.06-.9.18l-1.1.34c-.21,0-.32-.17-.32-.5,0-.1.09-.18.28-.24,1.63-.59,3.19-1.29,4.69-2.12Z"/>
      <path class="cls-1" d="m110.66,15.3c.44,0,.8.16,1.09.48.26.29.39.63.39,1.05s-.16.79-.49,1.07c-.29.25-.61.38-.99.38-.46,0-.83-.16-1.12-.48-.25-.28-.38-.6-.38-.98,0-.48.16-.86.49-1.15.28-.25.61-.38,1.01-.38Z"/>
      <path class="cls-1" d="m126.1,1.13c.02.78.13,2.1.31,3.96v.11c0,.14-.16.22-.49.22-.18,0-.3-.08-.36-.25-.83-2.28-2.22-3.41-4.17-3.41-.93,0-1.64.27-2.15.81-.45.47-.67,1.08-.67,1.82,0,.61.22,1.12.65,1.52.46.43,1.3.9,2.53,1.41l1.34.56c1.69.7,2.84,1.48,3.45,2.35.51.7.76,1.59.76,2.67,0,1.64-.59,2.93-1.77,3.88-1.08.87-2.52,1.3-4.3,1.3-1.53,0-3.08-.31-4.66-.92-.24-.88-.5-2.07-.78-3.56l-.04-.29c0-.2.15-.31.45-.31.19,0,.32.07.4.22.53,1.23,1.28,2.19,2.26,2.87.83.6,1.7.9,2.6.9,1.06,0,1.89-.34,2.49-1.01.53-.58.79-1.3.79-2.17,0-.77-.25-1.42-.74-1.93-.48-.49-1.26-.97-2.33-1.43l-1.3-.56c-1.71-.73-2.85-1.49-3.42-2.26-.48-.66-.72-1.55-.72-2.66,0-1.3.54-2.36,1.61-3.18.94-.72,2.09-1.08,3.45-1.08.66,0,1.48.11,2.46.34.43.07.91.11,1.43.11.28,0,.58-.01.92-.04Z"/>
      <path class="cls-1" d="m143.91,18.08c-.24,0-.36-.11-.36-.34.05-1.32.07-2.32.07-2.98-1.34,2.22-3.19,3.32-5.56,3.32-1.65,0-2.95-.49-3.9-1.46-.86-.88-1.28-2.05-1.28-3.5,0-1.67,0-2.98.02-3.92v-2.73c0-1.57-.09-2.55-.27-2.96-.22-.52-.57-.78-1.07-.78l-1.16.07c-.22,0-.33-.15-.33-.45s.15-.46.45-.51c1.7-.26,3.29-.58,4.77-.96.26,0,.4.11.4.33-.07,2.13-.11,4.22-.11,6.25v3.7c0,1.52.15,2.59.45,3.22.61,1.28,1.65,1.92,3.11,1.92s2.67-.69,3.67-2.06c.34-.47.56-.9.67-1.28.1-.36.14-.87.14-1.54v-4.95c0-1.57-.08-2.55-.25-2.96-.23-.52-.58-.78-1.05-.78l-1.17.07c-.23,0-.34-.15-.34-.45s.14-.46.42-.51c1.89-.29,3.48-.61,4.77-.96.26,0,.4.12.4.36-.07,1.99-.11,4.06-.11,6.21v4.88c0,2.13.08,3.35.25,3.67.18.36.66.56,1.45.6l.67.04c.23.04.34.17.34.4,0,.27-.11.42-.33.45-1.61.08-3.2.28-4.75.6Z"/>
      <path class="cls-1" d="m157.05,4.17c1.46-2.28,3.34-3.41,5.64-3.41,1.63,0,2.93.5,3.9,1.5.9.93,1.36,2.12,1.36,3.58l-.05,4.06v2.33c0,2.19.1,3.45.31,3.78.19.33.85.55,1.97.67.22.04.32.17.32.42,0,.27-.11.4-.32.4-1.43-.05-2.6-.07-3.49-.07-.94,0-2.17.02-3.7.07-.22,0-.32-.13-.32-.4,0-.24.11-.38.32-.42,1.01-.06,1.64-.28,1.9-.67.22-.33.33-1.58.33-3.78v-5.65c0-.87-.14-1.57-.42-2.11-.63-1.26-1.69-1.9-3.18-1.9s-2.72.69-3.74,2.08c-.54.73-.81,1.69-.81,2.85v4.73c0,2.24.08,3.5.25,3.78.14.22.35.37.61.45.27.07.76.14,1.48.22.19.04.29.17.29.42,0,.27-.1.4-.29.4-1.48-.05-2.64-.07-3.49-.07-.99,0-2.22.02-3.7.07-.19,0-.29-.13-.29-.4,0-.24.1-.38.29-.42,1.01-.08,1.64-.31,1.9-.67.22-.34.33-1.6.33-3.78v-5.17c0-1.54-.1-2.54-.29-3-.24-.52-.59-.78-1.05-.78l-1.28.07c-.23,0-.34-.19-.34-.56,0-.22.16-.35.49-.42,1.53-.33,3.12-.82,4.77-1.5.26,0,.4.11.4.33-.05,1.33-.07,2.31-.07,2.96Z"/>
    </g>
  </g>
</svg>