<?xml version="1.0" encoding="UTF-8"?>
<svg id="_レイヤー_2" data-name="レイヤー 2" xmlns="http://www.w3.org/2000/svg" viewBox="0 0 200 47.25">
  <defs>
    <style>
      .cls-1 {
        fill: #aab849;
        fill-rule: evenodd;
      }

      .cls-1, .cls-2 {
        stroke-width: 0px;
      }

      .cls-2 {
        fill: #c9a063;
      }
    </style>
  </defs>
  <g id="_アクセス" data-name="アクセス">
    <g>
      <path class="cls-1" d="m86.3,40.57c-30.94.38-61.77,1.24-74.69,2.1-8.06.54-11.61,1.22-11.61,2.22,0,.6,1.62.68,6.48.38,10.65-.66,18.36-.96,37.45-1.5,29.18-.8,37.21-.9,70.8-.9s40.34.1,61.15.84c11.75.42,22.43.46,23.53.1.65-.22.72-.32.41-.56-1.27-.86-7.58-1.26-33.59-2.08-20.43-.64-55.12-.9-79.93-.6Z"/>
      <g>
        <path class="cls-2" d="m74.86,2.24c.11,2.2-6.43,18.64-7.81,22.11.38-.11,4.12-1.81,4.12-.6,0,.88-4.18,2.03-4.62,2.14-.99,1.98-2.58,7.42-4.23,12.98-1.65,5.61-2.69,8.69-4.01,8.36-1.1-.28-1.65-2.2-1.65-2.97,0-2.8.99-4.67,1.81-7.37-.99-3.13-2.14-5.99-4.01-8.91-1.48.22-2.64.27-5.06.27-.27.33-7.81,10.56-9.73,10.61-2.14.06-2.75-3.74-2.75-5,.05-2.31.77-3.74,2.47-3.68,1.21.05,1.81,1.15,1.81,1.92,0,1.26-1.32,2.8-1.92,4.78-.11.38-.28.88.11.82,1.26-.22,7.15-8.08,8.41-9.68-2.58-.05-7.92-2.14-7.92-5.33,0-1.92,2.7-2.86,4.23-2.86,2.86,0,5.67,1.48,7.7,3.3,3.02-3.63,17.1-21.23,19.47-22.71,1.38-.88,3.46-.44,3.57,1.81Zm-23.65,21.61c-1.87-2.09-8.08-4.73-8.08-1.26,0,2.25,5.44,3.19,6.32,3.46l1.76-2.2Zm-.17,2.53c.93.16,1.54.22,2.64.27-.44-.55-1.26-1.38-1.54-1.65-.44.5-.6.71-1.1,1.38Zm1.87-2.31c.88.88,1.27,1.59,2.09,2.53,2.64-.06,4.46-.38,7.04-.82,3.46-9.57,5.55-15.51,8.03-22.22-5.77,6.6-13.8,16.5-17.16,20.51Zm8.74,2.86c-2.36.55-3.57.66-5.94.88,1.65,2.75,2.31,3.74,3.52,6.43.94-3.13,1.49-4.18,2.42-7.31Z"/>
        <path class="cls-2" d="m104.51,30.28c-.71,0-.94-.6-.94-1.04,0-1.81,2.2-2.86,2.2-4.67,0-.88-.55-1.21-1.26-1.32-4.89-.77-8.63,10.01-8.63,14.02,0,1.76.44,2.47,2.25,2.36,4.46-.55,9.24-5.11,12.54-8.69.71-.77,1.1-.22,0,.99-2.75,2.97-8.63,8.58-13.2,8.58-3.74-.05-5.77-2.86-5.77-5.99,0-1.04.05-1.54.38-2.58-2.75,2.97-8.25,8.58-12.81,8.58-3.74-.05-5.77-2.86-5.77-5.99,0-5.99,5.39-12.1,12.15-12.1,2.04,0,3.13,1.87,3.13,3.68,0,1.04-1.26,4.18-2.47,4.18-.71,0-.93-.6-.93-1.04,0-1.81,2.2-2.86,2.2-4.67,0-.88-.55-1.21-1.26-1.32-4.89-.77-8.63,10.01-8.63,14.02,0,1.76.44,2.47,2.25,2.36,4.45-.55,9.07-5.28,12.37-8.85,1.49-4.84,5.99-8.36,11.55-8.36,1.38,0,2.31.88,2.8,1.98.27-.38.33-.6.88-1.32.77-1.04,1.71-.27,1.38.88-.11.39-.66,1.27-1.38,2.42-.61.99-1.81,3.9-3.02,3.9Z"/>
        <path class="cls-2" d="m111.17,33.69c0-5.33,4.78-11.11,10.83-11.05,1.32,0,5.33.38,5.33,2.2,0,2.97-7.53,3.74-9.73,4.07-1.76,1.38-4.01,10.17-.6,10.34s9.35-5.55,11.82-8.47c.61-.72,1.04-.17,0,1.1-2.42,2.8-7.64,7.92-11.93,8.14-3.85.22-5.72-3.46-5.72-6.32Zm6.71-5.39c2.2-.11,6.82-.6,6.82-3.63,0-.71-.28-1.26-1.04-1.26-2.47,0-4.51,3.02-5.77,4.89Z"/>
        <path class="cls-2" d="m135.75,24.84c0-2.36.77-6.43,4.12-6.38,2.03.05-1.38,4.12-1.82,4.73,0,3.63,1.71,6.27,1.87,9.95.05,1.59-.17,2.47-1.1,3.74,3.02-1.98,4.84-3.41,7.26-6.05.66-.77,1.16-.11,0,1.04-2.36,2.47-4.45,4.34-7.97,6.05-1.76,1.92-4.84,3.24-7.42,3.24-1.92,0-4.01-.71-4.01-2.97,0-1.43.77-2.47,2.31-2.47,1.81,0,2.58.77,4.89,1.48,2.03-3.35,2.14-7.37,1.92-11.44-1.76,1.98-3.41,4.12-5.33,6.21-.88.99-1.43.66-.66-.27.17-.22.39-.44.66-.77,1.76-2.03,3.19-3.74,5.28-6.1Zm-5.17,12.04c-.77-.06-2.47.55-2.47,2.2,0,.94.6,1.54,1.59,1.54,1.76,0,2.86-1.43,3.9-2.75-1.16-.6-1.81-.88-3.02-.99Zm8.85-17.71c-.66,0-1.65,1.7-1.48,2.97.77-.77,2.36-2.97,1.48-2.97Z"/>
        <path class="cls-2" d="m147.96,41.17c-1.92,0-4.01-.71-4.01-2.97,0-1.43.77-2.47,2.31-2.47,1.81,0,2.58.77,4.89,1.48,2.04-3.35,2.15-7.37,1.92-11.44-1.76,1.98-3.41,4.12-5.33,6.21-.88.99-1.43.66-.66-.27.17-.22.39-.44.66-.77,1.76-2.03,3.19-3.74,5.28-6.1,0-2.36.77-6.43,4.12-6.38,2.04.05-1.37,4.12-1.81,4.73,0,3.63,1.71,6.27,1.87,9.95.05,1.59-.83,3.57-1.82,4.78-1.65,2.03-4.84,3.24-7.42,3.24Zm-.11-4.29c-.77-.06-2.47.55-2.47,2.2,0,.94.6,1.54,1.59,1.54,1.76,0,2.86-1.43,3.9-2.75-1.16-.6-1.82-.88-3.02-.99Zm8.85-17.71c-.66,0-1.65,1.7-1.48,2.97.77-.77,2.36-2.97,1.48-2.97Z"/>
      </g>
    </g>
  </g>
</svg>