<?xml version="1.0" encoding="UTF-8"?>
<svg id="_レイヤー_2" data-name="レイヤー 2" xmlns="http://www.w3.org/2000/svg" viewBox="0 0 250 63.08">
  <defs>
    <style>
      .cls-1 {
        fill: #aab849;
        fill-rule: evenodd;
      }

      .cls-1, .cls-2 {
        stroke-width: 0px;
      }

      .cls-2 {
        fill: #c9a063;
      }
    </style>
  </defs>
  <g id="_挨拶" data-name="挨拶">
    <g>
      <path class="cls-1" d="m107.88,43.78c-38.67.38-77.22,1.24-93.37,2.1-10.08.54-14.51,1.22-14.51,2.22,0,.6,2.02.68,8.1.38,13.31-.66,22.95-.96,46.81-1.5,36.48-.8,46.51-.9,88.5-.9s50.43.1,76.44.84c14.69.42,28.04.46,29.41.1.82-.22.9-.32.52-.56-1.59-.86-9.47-1.26-41.99-2.08-25.54-.64-68.9-.9-99.91-.6Z"/>
      <g>
        <path class="cls-2" d="m67.08,35.36c-3.9,6.38-11.11,16.99-19.96,16.99-4.12,0-8.14-2.97-8.14-7.31,0-3.79,3.85-4.84,3.85-.6,0,1.38-.88,2.75-.82,3.96.05,2.31,3.19,3.19,5.17,3.13,10.23-.22,14.19-14.46,18.59-22.71-4.56,4.78-11.22,8.47-14.02,7.26C40.14,31.07,52.46-.16,69.5,0c5,.06,6.87,2.53,6.87,6.05,0,1.04-.17,2.15-.38,3.13.71-.66,1.26-2.42,2.47-2.64.88-.17,1.81.99,1.26,1.81-.93,1.38-3.24,5.77-4.56,6.82-1.04.82-2.09.06-2.09-1.04,0-2.47,1.98-4.67,2.04-7.59.05-3.46-.83-5.61-4.4-5.44-10.78.49-24.75,33.44-16.5,33.55,4.62.06,13.09-8.69,15.29-13.42.6-1.32,3.9-.99,3.85,1.1-.06,3.13-4.51,10.17-6.27,13.03Z"/>
        <path class="cls-2" d="m75.56,34.81c.17-.22.38-.44.66-.77,1.32-1.48,2.53-2.91,3.63-4.4-1.48-1.32-2.25-3.57-1.26-5.72.71-1.59,2.92-2.47,3.52-.17.5,1.76-.17,3.79-1.15,5.39,1.87,1.04,4.51-1.27,7.48-.94,1.49.17,2.2,1.54,1.92,2.64-.22.82-2.58,2.58-5,4.78-2.64,2.48-5.22,5.22-5.06,7.48.05.94,1.26,1.71,4.73.11,4.34-2.04,7.92-5.66,10.89-9.18.66-.77,1.1-.11,0,1.1-3.19,3.46-9.4,10.12-15.45,9.68-2.97-.22-4.23-2.75-3.3-5.28,1.59-4.29,8.3-7.42,6.82-8.63-1.04-.88-2.2-.33-3.3-.99-1.81,2.09-2.53,3.08-4.45,5.22-.88.99-1.43.6-.66-.33Zm4.95-6.1c1.81-3.13.99-7.42-.22-4.84-.77,1.59-.66,3.46.22,4.84Z"/>
        <path class="cls-2" d="m96.34,36.9c0-5.33,4.79-11.11,10.83-11.05,1.32,0,5.33.38,5.33,2.2,0,2.97-7.53,3.74-9.73,4.07-1.76,1.38-4.01,10.17-.61,10.34,3.41.17,9.35-5.55,11.82-8.47.6-.72,1.04-.17,0,1.1-2.42,2.8-7.64,7.92-11.93,8.14-3.85.22-5.72-3.46-5.72-6.32Zm6.71-5.39c2.2-.11,6.82-.6,6.82-3.63,0-.71-.27-1.26-1.04-1.26-2.47,0-4.51,3.02-5.77,4.89Z"/>
        <path class="cls-2" d="m114.44,36.9c0-5.33,4.78-11.11,10.83-11.05,1.32,0,5.33.38,5.33,2.2,0,2.97-7.53,3.74-9.73,4.07-1.76,1.38-4.01,10.17-.6,10.34s9.35-5.55,11.82-8.47c.61-.72,1.04-.17,0,1.1-2.42,2.8-7.64,7.92-11.93,8.14-3.85.22-5.72-3.46-5.72-6.32Zm6.71-5.39c2.2-.11,6.82-.6,6.82-3.63,0-.71-.28-1.26-1.04-1.26-2.47,0-4.51,3.02-5.77,4.89Z"/>
        <path class="cls-2" d="m147.49,34.04c.66-.77,1.04-.22,0,1.04-2.97,3.46-7.92,9.18-13.03,9.18-1.92,0-3.02-.99-3.02-2.86-.06-5.83,6.93-16.39,9.57-21.56,0,0-4.29.06-4.62.06-.17-.11-.11-.5.11-.72,2.25.06,2.92,0,4.73.06,2.09-3.46,4.89-9.73,6.32-9.73.93,0,2.04.5,2.04,2.15,0,1.15-3.13,6.27-3.96,7.64.94,0,3.63-.11,4.95-.06.11.17-.05.6-.27.6-2.37.11-3.13.06-5,.17-1.87,3.13-13.53,23.26-10.94,23.59,3.85.5,9.07-4.84,13.14-9.57Z"/>
        <path class="cls-2" d="m147.28,39.32c0-2.75,3.13-11.22,6.1-12.04,2.2-.6,2.8.77,2.8,1.59,0,3.24-7.15,8.8-7.15,12.15,0,.88.44,1.26,1.26,1.26,2.8,0,8.14-4.51,11.16-8.19.66-.77,1.04-.22,0,1.04-2.42,2.8-7.26,7.7-11.55,7.81-1.65.06-2.64-1.7-2.64-3.63Zm9.68-14.35c-1.54,0-2.47-.99-2.47-2.47s1.43-2.36,2.53-2.36c1.43,0,2.36.99,2.36,2.36,0,1.48-.93,2.47-2.42,2.47Z"/>
        <path class="cls-2" d="m173.51,37.62c.17-5.83,6.93-12.1,6.16-12.21-3.13-.44-17.21,17.6-18.31,17.65-.93.05-1.32-.55-1.32-1.21,0-1.43,3.41-12.43,5.61-12.59,1.54-.11,2.42,1.21,2.42,1.81,0,1.04-3.35,6.1-4.29,7.92,1.32-1.16,13.2-15.01,16.66-15.07,1.38,0,2.47.94,2.42,2.25-.22,5.94-8.25,15.89-5.61,15.89,2.8,0,7.15-4.23,10.39-7.97.66-.77,1.04-.17,0,1.1-2.42,2.8-7.15,7.86-10.56,7.86-2.42,0-3.68-2.03-3.57-5.44Z"/>
        <path class="cls-2" d="m179.73,63.02c-1.65.33-2.75-.72-2.75-1.87.05-6.21,11.99-12.54,20.51-16.61.88-1.54,3.9-9.07,3.74-9.79-.17-.71-9.51,7.86-11.88,7.48-1.65-.27-3.57-4.29.44-9.62,3.79-5.06,9.4-7.53,15.45-7.59.88,0,4.23.17,4.56,1.26.27.94,0,2.15-1.04,1.43-.55-.38-1.98-2.36-3.74-2.03-6.38,1.27-16,14.3-14.41,15.23,1.65.99,11.05-9.95,13.91-9.95.88,0,1.37.83,1.32,2.15-.05,2.2-2.14,6.82-4.07,10.34-5.33,9.84-13.91,17.98-22.05,19.58Zm17.54-17.54c-22.16,10.34-20.79,17.32-18.09,16.66,5-1.21,13.03-7.92,18.09-16.66Z"/>
      </g>
    </g>
  </g>
</svg>