<?xml version="1.0" encoding="UTF-8"?>
<svg id="_レイヤー_2" data-name="レイヤー 2" xmlns="http://www.w3.org/2000/svg" viewBox="0 0 70 60.59">
  <defs>
    <style>
      .cls-1 {
        fill: #3e3a39;
        stroke-width: 0px;
      }
    </style>
  </defs>
  <g id="_出欠" data-name="出欠">
    <g>
      <path class="cls-1" d="m13.37,18.78c.93-.32,1.38-1.3,1.66-2.18.34-1.04.52-2.14.77-3.21.26-1.15.52-2.31.78-3.46.26-1.14.52-2.28.77-3.42.13-.55.25-1.11.38-1.66.1-.44.24-.87.35-1.3.11-.41.2-.91-.03-1.31-.21-.36-.64-.59-1.05-.58-.46,0-.8.29-.98.7-.08.19-.14.39-.2.59-.07.21-.19.44-.3.68-.67,1.45-1.32,2.91-1.99,4.36.41-1.88.92-3.75,1.44-5.6.09-.32.16-.66-.01-.96-.15-.25-.4-.42-.69-.47-.29-.05-.61,0-.83.21-.2.19-.31.46-.4.71-.1.24-.16.5-.27.74-.14.33-.29.66-.43,1-.3.68-.59,1.36-.89,2.05-.1.23-.2.46-.3.7.21-.88.41-1.76.62-2.65.12-.5.22-1,.37-1.48.13-.42.3-.9.2-1.34-.18-.77-1.28-1.18-1.86-.59-.31.32-.44.82-.58,1.23-.16.49-.37.97-.56,1.44-.42,1.05-.85,2.1-1.27,3.15-.43,1.05-.85,2.1-1.28,3.16-.41,1.01-.88,2.02-1.17,3.07-.29,1.06-.35,2.19.16,3.19.36.69.98,1.26,1.72,1.45-1.22,3.9-2.44,7.8-3.72,11.68-.81,2.45-1.61,4.91-2.55,7.32-.07.18-.14.36-.22.54-.02.04-.04.09-.05.13,0,.02-.03.08-.04.1-.03.06-.05.12-.08.19-.1.23-.21.47-.33.69-.41.76-.68,1.65-.39,2.5.15.45.43.85.79,1.17.3.27.67.54,1.05.7.39.16.87.21,1.29.2.5,0,1.02-.13,1.44-.43.66-.47.98-1.23,1.14-2,.05-.24.07-.48.13-.72.14-.58.3-1.16.45-1.74.31-1.17.61-2.35.92-3.52,1.23-4.72,2.46-9.43,3.7-14.15.09-.33.17-.66.26-1,.65.27,1.42.38,2.08.15ZM11.13.77s.01,0,0,0h0Zm-4.01,30.71c-.6,2.3-1.2,4.59-1.8,6.89-.16.62-.22,1.27-.44,1.87-.11.3-.29.61-.55.82-.32.26-.74.36-1.15.35-.34,0-.78-.05-1.05-.2-.34-.19-.65-.41-.91-.7-.58-.65-.53-1.52-.17-2.24.29-.59.57-1.16.81-1.77.88-2.21,1.63-4.47,2.38-6.73,1.23-3.7,2.41-7.42,3.57-11.15.17-.56.35-1.12.52-1.67,0,0,0-.01,0-.02.18-.22.08-.64-.29-.65-.69,0-1.23-.49-1.55-1.07-.4-.73-.38-1.59-.2-2.39.23-.96.64-1.87,1.01-2.78.39-.96.77-1.91,1.16-2.87.39-.97.78-1.94,1.17-2.9.37-.91.76-1.8,1.07-2.73.06-.17.12-.34.2-.5.04-.07.07-.16.13-.22-.02.03.06-.05.02-.01.05-.04,0,0,.06-.03.01,0,.02,0,.02,0,.01,0,.12,0,.06,0,.05,0,.16.04.15.04.11.05.18.1.23.21,0,0,0,.02.01.02,0,0,0,0,0,.02,0,.01,0,.01,0,.02,0,0,0,.02,0,.03,0,.08,0,.16-.02.24-.04.2-.1.4-.16.6-.14.43-.23.88-.34,1.32-.53,2.27-1.07,4.54-1.6,6.81-.01.05-.01.1,0,.14,0,0,0,.02,0,.02-.08.19-.06.42.14.53.16.1.45.05.53-.14,1.09-2.52,2.19-5.04,3.28-7.56.1-.24.2-.48.28-.73.07-.2.14-.44.27-.6.03-.03.02-.03.09-.03.06,0,.15.01.21.06.02.02.04.07.04.14-.01.13-.07.27-.1.4-.34,1.29-.71,2.57-1.03,3.87-.36,1.47-.68,2.96-.91,4.46,0,.04,0,.08,0,.12,0,.02-.01.03-.02.05-.09.19-.05.42.14.53.17.1.44.05.53-.14.93-1.97,1.82-3.95,2.72-5.93.22-.48.44-.97.66-1.45.09-.2.19-.4.26-.61.06-.16.09-.34.16-.49.11-.27.27-.33.49-.23.13.06.18.12.2.21.03.13.01.31-.02.46-.08.38-.22.75-.31,1.13-.12.52-.23,1.03-.35,1.55-.24,1.05-.47,2.1-.71,3.15-.48,2.12-.95,4.25-1.44,6.37-.11.49-.23.99-.42,1.46-.15.37-.37.83-.68,1.08-.53.42-1.37.28-1.98,0,.08-.46-.63-.65-.75-.17-1.2,4.59-2.4,9.18-3.6,13.77Z"/>
      <path class="cls-1" d="m69.72,15.54c-.12-.04-.26-.11-.39-.11-.29,0-.63.17-.89.28-.53.23-1.02.53-1.48.89-.95.73-1.75,1.65-2.49,2.58-1.52,1.93-2.75,4.06-3.76,6.29-1.01,2.24-1.81,4.56-2.51,6.92-.39,1.3-.74,2.61-1.08,3.92-.09.33-.17.66-.26.99-.07.27-.16.55-.17.83,0,.43.29.68.69.76.44.09.89.12,1.31.29.14.06.31.15.37.26.09.19-.03.47-.1.65-.45,1.24-.86,2.5-1.28,3.76-.9,2.7-1.8,5.4-2.7,8.1-.21.64-.45,1.28-.63,1.93-.16.57-.26,1.17-.12,1.76.26,1.09,1.34,1.53,2.37,1.42.51-.05,1-.2,1.42-.51.39-.29.7-.67.92-1.1.34-.64.49-1.35.66-2.05.41-1.66.83-3.31,1.26-4.96.6-2.31,1.19-4.62,1.79-6.93.15-.6.31-1.2.46-1.8.14-.03.25-.13.3-.28,1.13-2.9,1.94-5.9,2.74-8.9.82-3.1,1.64-6.19,2.46-9.29.46-1.75.93-3.49,1.39-5.24.06-.21-.07-.41-.27-.48Zm-12.29,22.57s0,0,0,0c0,0,0,0,0,0,0,0,0,0,0,0Zm-.01,0s0,0,.01,0c-.02,0-.03,0-.01,0Zm.05.06s0,0,0,0c0,0,0,0,0,0,0,0,0,0,0,0Zm9.31-13.05c-.81,3.05-1.58,6.12-2.46,9.15-.47,1.61-.99,3.21-1.59,4.78-.14,0-.28.09-.33.28-.61,2.38-1.22,4.76-1.84,7.13-.46,1.79-.92,3.58-1.38,5.37-.16.65-.32,1.29-.48,1.94-.17.69-.37,1.39-.87,1.92-.55.59-1.53.82-2.28.49-.37-.16-.57-.49-.61-.91-.05-.54.11-1.08.28-1.58.84-2.58,1.72-5.16,2.58-7.74.43-1.29.86-2.58,1.29-3.87.19-.57.38-1.15.59-1.71.18-.49.28-1.06-.09-1.49-.31-.36-.83-.51-1.27-.6-.2-.04-.4-.07-.6-.1-.08-.01-.16-.03-.24-.05,0,0,0,0,0,0,0-.06.01-.1.03-.2.08-.33.17-.65.25-.98.16-.64.33-1.27.5-1.91.63-2.33,1.32-4.66,2.18-6.92.83-2.17,1.82-4.29,3.07-6.25.62-.98,1.3-1.92,2.05-2.8.72-.84,1.49-1.67,2.44-2.25.35-.22.72-.39,1.11-.52-.78,2.94-1.56,5.88-2.34,8.83Z"/>
      <path class="cls-1" d="m55.57,28.1c-.14-2.55-.67-5.07-1.77-7.38-1.25-2.63-3.2-4.89-5.6-6.53-1.86-1.28-3.97-2.16-6.14-2.76-.75-.21-1.5-.37-2.26-.54-2.88-.61-5.85-.69-8.77-.25-1.5.23-2.97.6-4.39,1.13-1.89.71-3.68,1.67-5.32,2.85-1.94,1.4-3.67,3.09-5.07,5.03-1.44,2-2.53,4.24-3.3,6.58-.65,1.98-1.1,4.02-1.25,6.1-.19,2.64.12,5.32.91,7.85.58,1.86,1.41,3.66,2.46,5.3,1.41,2.21,3.22,4.15,5.35,5.7,1.09.79,2.28,1.46,3.51,2.02,2.28,1.04,4.71,1.71,7.21,1.93,2.88.26,5.82-.08,8.56-.99,2.16-.72,4.17-1.8,5.97-3.19,1.82-1.41,3.35-3.14,4.67-5.02.87-1.25,1.7-2.55,2.4-3.9,1.11-2.14,1.93-4.44,2.39-6.8.45-2.33.56-4.74.43-7.12Zm-.75,2.87c-.06,2.72-.58,5.41-1.54,7.96-.63,1.69-1.46,3.3-2.42,4.82-.93,1.46-1.91,2.89-3.07,4.18-1.73,1.92-3.8,3.49-6.14,4.61-.74.35-1.44.63-2.25.89-1.25.41-2.54.7-3.85.86-2.8.34-5.64.1-8.35-.7-1.83-.54-3.59-1.31-5.21-2.31-1.52-.93-2.89-2.09-4.09-3.4-1.55-1.69-2.8-3.65-3.72-5.75-.77-1.75-1.32-3.68-1.57-5.6-.34-2.59-.17-5.24.43-7.78.51-2.15,1.28-4.25,2.33-6.2.48-.89,1.01-1.75,1.6-2.57.1-.13.2-.27.3-.4.01-.01.02-.03.03-.04.01-.02.03-.03.04-.05.04-.05.07-.09.11-.14.43-.54.88-1.06,1.36-1.55,1.72-1.78,3.74-3.25,5.95-4.37,1.21-.61,2.41-1.09,3.75-1.47,2.14-.61,4.38-.88,6.6-.85,1.51.02,3.02.19,4.5.5,1.74.37,3.48.81,5.12,1.52,2.33,1,4.43,2.46,6.09,4.38,1.83,2.11,3.02,4.68,3.59,7.41.41,1.98.47,4,.42,6.02Z"/>
      <path class="cls-1" d="m44.72,34.06c.23-1.19.29-2.43.22-3.64-.07-1.31-.34-2.6-.9-3.8-.64-1.36-1.64-2.53-2.87-3.38-.96-.67-2.06-1.14-3.18-1.45-.39-.11-.78-.19-1.17-.28-2.23-.47-4.63-.36-6.78.45-2.13.81-4.03,2.22-5.36,4.07-1.35,1.88-2.18,4.22-2.33,6.54-.16,2.37.47,4.76,1.75,6.76,1.12,1.74,2.7,3.13,4.59,3.98,2.55,1.15,5.45,1.36,8.11.47,1.11-.37,2.14-.92,3.06-1.64.94-.73,1.74-1.62,2.42-2.6,1.16-1.66,2.07-3.48,2.46-5.48Zm-4.04,6.25c-.87.96-1.9,1.75-3.08,2.31-.06.03-.13.06-.19.09-.04.02-.08.03-.12.05-.02,0-.03.01-.05.02,0,0-.03.01-.04.02-.23.09-.46.18-.7.26-.62.2-1.25.35-1.9.43-1.39.17-2.8.05-4.14-.34-1.76-.51-3.37-1.45-4.63-2.82-1.45-1.57-2.38-3.55-2.66-5.67-.31-2.37.25-4.86,1.37-6.96.24-.45.51-.88.8-1.29.05-.06.09-.13.14-.19,0,0,0,0,.01-.01,0,0,0,0,0,0,.02-.03.04-.05.06-.08.21-.27.44-.52.67-.77.86-.9,1.87-1.63,2.98-2.19.2-.1.4-.2.61-.29.02,0,.04-.02.07-.03,0,0,0,0,0,0,0,0,0,0,.01,0,.04-.02.08-.03.12-.05.08-.03.16-.06.24-.09.26-.1.52-.18.78-.26,1.06-.3,2.16-.44,3.26-.43.77,0,1.53.09,2.28.25.88.19,1.75.41,2.57.76,1.17.5,2.22,1.24,3.05,2.21.91,1.06,1.48,2.34,1.75,3.7.2.97.22,1.96.19,2.95-.05,2.28-.77,4.45-1.98,6.36-.47.74-.94,1.43-1.52,2.07Z"/>
      <path class="cls-1" d="m41.16,47.95c-.04-.12-.13-.23-.26-.26-.89-.17-1.77-.33-2.66-.5-.45-.08-.9-.18-1.35-.25-.4-.07-.82-.1-1.2.05-.36.15-.67.44-.76.83-.08.38.08.77.36,1.02.6.54,1.58.43,2.33.39.15,0,.29-.02.44-.04-.18.18-.36.36-.52.56-.24.31-.48.64-.48,1.05,0,.39.21.77.59.9.35.13.73,0,1.07-.13.63-.26,1.21-.66,1.66-1.17.51-.57.88-1.25,1.06-2,.06-.24-.1-.41-.28-.46Zm-4.1.53c-.31,0-.63.03-.93-.05-.18-.05-.44-.17-.44-.39,0-.2.24-.32.41-.36.31-.07.65.02.96.08.38.07.76.14,1.14.21.39.07.78.15,1.17.22-.41.11-.82.19-1.24.23-.35.04-.71.05-1.06.06Zm1.89,2.13c-.16.1-1.06.63-1.11.26-.03-.22.18-.47.31-.63.18-.22.38-.43.59-.62.46-.41,1-.74,1.59-.95,0,0,0,0,0,0,.03-.01.06-.02.09-.03.1-.04.16-.12.18-.2,0,0,.02,0,.03,0-.27.9-.87,1.69-1.67,2.18Z"/>
      <path class="cls-1" d="m44.84,45.14c-.09-.14-.25-.21-.43-.17-.6.12-1.22.25-1.72.63-.46.35-.78.91-.73,1.5.05.64.51,1.14,1.16,1.19.57.05,1.13-.28,1.46-.73.43-.6.45-1.39.43-2.1,0-.13-.07-.24-.18-.32Zm-2.03,1.5s0,.02,0,0h0Zm-.07.46c.01.05,0,.02,0,0h0Zm.1.25s-.01-.02,0,0h0Zm.08.08s.02.01,0,0h0Zm1.3-1.08s0-.02,0,0h0Zm.01-.1s0,.08-.01.11c0,0,0,0,0,.02-.01.06-.02.13-.04.19-.01.06-.03.11-.05.17,0,.03-.02.06-.03.09,0,0-.02.05-.03.06-.02.05-.05.11-.08.16-.01.02-.03.04-.04.07,0,0-.02.03-.03.04-.02.03-.05.06-.07.08-.02.02-.04.04-.06.05-.01.01-.09.06-.02.02-.04.03-.09.06-.13.09-.02,0-.1.05-.1.05-.03.01-.07.03-.1.04-.02,0-.05.01-.07.02-.01,0-.04,0-.05,0-.04,0-.07,0-.11,0-.02,0-.04,0-.06,0,.1,0,.01,0-.01,0-.02,0-.04,0-.06-.01,0,0,0,0-.02,0,0,0-.05-.02-.05-.02-.02-.01-.04-.03-.07-.04,0,0-.01,0-.01-.01-.02-.02-.04-.04-.05-.05,0,0,0,0,0,0,0-.01-.02-.03-.03-.04,0,0-.01-.02-.02-.03,0,0,0,0-.01-.02,0,0,0,0,0,0,0,0,0,0,0,0,0,0,0,0,0,0-.02-.05-.03-.1-.04-.15,0-.03,0-.06,0-.09,0-.02,0-.04,0-.06,0,0,0-.01,0-.03,0-.02,0-.05,0-.05,0-.02,0-.04.01-.06.01-.06.03-.11.05-.17,0,0,0,0,0,0,.01-.03.03-.06.04-.08.02-.04.05-.08.08-.12,0,0,0,0,0,0,0,0,0,0,0,0,.01-.02.03-.03.04-.05.05-.05.1-.09.15-.14,0,0,.01,0,.01-.01.04-.02.07-.05.11-.07.06-.04.12-.07.18-.1.02-.01.05-.02.07-.03.04-.02.05-.02.01,0,.02,0,.03-.01.05-.02.06-.03.13-.05.2-.07.16-.05.32-.09.48-.13,0,.15,0,.3-.02.45Z"/>
      <path class="cls-1" d="m42.78,47.24s.01.02.02.03c0,0,0-.01-.02-.03,0,0,0,0,0,0Z"/>
      <path class="cls-1" d="m49.82,39.95c-.42.14-.78.48-1.11.76-.17.14-.33.28-.48.42.06-.35.07-.7-.02-1.03-.18-.66-.87-1.22-1.57-.98-.78.27-.92,1.14-.99,1.85-.09.92-.01,1.85.06,2.77,0,.1.05.18.11.25.04.15.15.28.36.28,1.68-.07,3.58-.26,4.59-1.8.39-.59.62-1.5.2-2.14-.25-.38-.7-.53-1.13-.38Zm-3.38.81c.03-.25.07-.53.23-.74.29-.39.71-.05.8.31.12.49-.09,1.1-.28,1.55-.19.45-.45.86-.76,1.23-.03-.46-.06-.92-.05-1.38,0-.32.02-.65.06-.97Zm3.94.58c-.04.27-.16.53-.31.76-.33.5-.87.85-1.42,1.04-.48.17-.98.25-1.48.29.04-.05.07-.09.11-.14,0,0,0,0,0,0,.45-.58.95-1.11,1.49-1.61.27-.25.55-.48.84-.7.13-.1.27-.21.42-.28.1-.04.19-.04.24,0,.14.14.15.43.11.63Z"/>
      <path class="cls-1" d="m31.09,35.74c-.06-.34-.23-.64-.48-.84.12-.08.23-.17.34-.26.6-.5,1.08-1.21,1.01-2.02-.06-.65-.45-1.19-1.03-1.38.16-.12.31-.24.47-.37.57-.48,1.24-1.14.8-1.93-.06-.11-.14-.21-.22-.29.41-.06.8-.17,1.18-.34.61-.28,1.44-.85,1.2-1.64-.04-.13-.11-.23-.2-.33.12-.06.24-.14.33-.23.45-.46.56-1.26.14-1.78-.35-.44-.97-.5-1.49-.38-.53.13-1.02.48-1.38.9-.27.31-.46.66-.6,1.03-.04-.29-.12-.57-.28-.81-.45-.65-1.25-.63-1.82-.16-.58.47-.78,1.28-.74,2,.02.31.07.61.15.91-.46-.24-1.01-.25-1.45.1-.43.34-.61.94-.58,1.48.03.63.3,1.23.7,1.71-.58-.1-1.21.1-1.55.59-.43.62-.21,1.43.11,2.05.19.36.41.71.66,1.04-.54.03-1.01.39-1.09.98-.09.64.27,1.26.64,1.76.45.6,1,1.1,1.65,1.47.17.1.33.05.44-.05.05.3.51.48.73.15.39-.62,1.08-.96,1.6-1.45.52-.5.9-1.15.77-1.89Zm-2.98,2.76s.05,0,.08,0c-.02.03-.04.05-.06.08,0-.03-.01-.06-.02-.09Zm3.08-5.78c.02.64-.47,1.13-.95,1.5-.18.14-.36.27-.55.4,0,0-.01,0-.02,0-.4.05-.77.26-1.07.54,0-.04.01-.08.02-.12.02-.03.04-.06.04-.1.07-.46.14-.93.13-1.4.19-.71.62-1.34,1.34-1.54.27-.07.58-.07.79.11.17.15.25.39.25.62Zm.26-2.97c-.17.23-.43.43-.65.61-.51.42-1.07.78-1.65,1.1.08-.47.21-.93.27-1.41.17-.26.38-.5.63-.67.37-.25,1.08-.57,1.43-.13.14.17.09.34-.03.5Zm1.35-2.13c-.57.26-1.2.34-1.81.28-.05,0-.09,0-.13.02.07-.16.12-.32.17-.49.34-.22.73-.38,1.09-.48.27-.08.55-.14.82-.2.19-.04.48-.1.64.06.28.29-.6.72-.78.8Zm1.19-2.86s0,0,0,0c.03.02,0,0,0,0Zm-.86,0s0,0,0,0c0,0,0,0,.01,0,.02,0,.04-.01.06-.02.05-.02.1-.03.15-.04.02,0,.09-.02.1-.02.01,0,.03,0,.03,0,.03,0,.07,0,.1,0,.05,0,.09,0,.14,0,0,0,.01,0,.02,0,.01,0,.03,0,.04,0,.04.01.07.02.11.03,0,0,.02,0,.02,0,.02.01.05.03.07.04.02.02.03.03.05.05,0,0,0,.01.01.02.01.02.02.03.03.05.03.06.04.13.04.21,0,.09-.02.16-.05.25-.01.03-.04.08-.06.12-.01.02-.03.05-.04.07,0,0-.01.01-.02.02-.01.01-.02.02-.04.03,0,0-.02.02-.04.02-.04.02-.09.05-.13.07,0,0,0,0,0,0-.03.01-.06.02-.08.03-.06.02-.12.04-.17.06-.19.06-.39.12-.57.21-.15.03-.3.06-.45.1-.2.05-.4.1-.6.15.2-.62.66-1.19,1.27-1.46Zm-3.77.98c.17-.28.62-.63.88-.27.26.35.2.96.13,1.36,0,.05-.02.09-.03.13-.43.36-.77.87-.85,1.43-.14-.35-.25-.7-.32-1.07-.1-.52-.1-1.13.19-1.59Zm-1.44,2.68c.62.11.78.8.75,1.33,0,.02,0,.03,0,.05,0,.02-.02.03-.03.05-.19.35-.31.73-.36,1.11-.01-.02-.02-.04-.03-.06-.06-.08-.13-.15-.23-.18-.05-.01-.11-.01-.17,0-.37-.4-.63-.93-.61-1.47.01-.39.22-.9.69-.82Zm-1.77,3.97c.07-.41.47-.59.85-.53.42.07.73.44.88.82.09.24.14.48.15.73-.11.42-.15.86-.12,1.29-.01.03-.02.07-.03.11-.02.16-.04.33-.06.49-.02-.03-.04-.07-.07-.1-.41-.42-.78-.87-1.09-1.37-.26-.41-.6-.94-.51-1.45Zm.63,4.97c-.31-.35-.61-.77-.72-1.23-.08-.38.12-.64.48-.57.44.08.64.53.76.91.17.58.22,1.19.49,1.74-.38-.24-.72-.52-1.01-.85Zm2.83-.11c-.35.29-.72.55-1.04.86,0-.03,0-.06,0-.09-.15-.5-.13-1.03.06-1.51.01-.03.03-.06.04-.09.15.02.3-.06.39-.19.23-.33.54-.59.87-.83.26.05.42.3.44.6.03.51-.38.94-.75,1.26Z"/>
      <path class="cls-1" d="m40.78,26.32c-1.3-.92-2.95-1.37-4.53-1.2-.21.02-.39.16-.39.39,0,.17.15.37.33.39.03.02.06.04.09.05,1.68.6,3.05,1.98,3.66,3.66-.6.1-1.1.48-1.31,1.07-.21.6-.06,1.31.32,1.82.43.57,1.15.86,1.86.78.76-.08,1.41-.46,1.85-1.08.43-.6.61-1.39.54-2.12-.15-1.54-1.18-2.88-2.41-3.76Zm.85,5.85c-.41.31-.98.43-1.48.28-.45-.14-.74-.52-.83-.97-.04-.21-.02-.46.08-.66.1-.2.26-.33.45-.4.4-.14.88-.06,1.09.29.26.43.93.04.67-.39-.19-.32-.5-.55-.85-.66,0-.04,0-.07-.02-.11-.49-1.47-1.47-2.72-2.73-3.58,1.73.33,3.31,1.41,4.09,3.02.48,1,.51,2.44-.46,3.18Z"/>
      <path class="cls-1" d="m30.97,40.01s0,0,0,0c0-.01,0-.02,0-.03,0,0,0,.02,0,.04Z"/>
      <path class="cls-1" d="m30.52,40.41s0,0,0,0c0,0,.02,0,.03,0,0,0,0,0,0,0-.03,0-.04,0-.04,0Z"/>
      <path class="cls-1" d="m30.78,40.32s0,0,0,0c0,0,.01,0,.02-.01,0,0,0,0,0,0,0,0,0,0-.03.02Z"/>
      <path class="cls-1" d="m31.44,39.2c-.23-.2-.54-.3-.85-.22-.39-.07-.8.06-1.05.38-.33.42-.29,1.02.05,1.42.3.36.85.5,1.29.34.49-.18.84-.62.87-1.15.02-.28-.09-.6-.31-.78Zm-.51.59s0,0,0,0c-.04-.04-.02-.04,0,0Zm.03.06s0,.01,0,0h0Zm0,.15s0,0,0,0c0,0,0,.02,0,.02,0,0,0-.01,0-.02,0,.02,0,.04-.01.05,0,.01,0,.03-.01.04-.02.03-.03.07-.05.1,0,0,0,.01-.02.02,0,0,0,0,0,0-.02.02-.05.05-.07.07,0,0,0,0,0,0,0,0,0,0,0,0-.01,0-.02.02-.03.03,0,0,0,0,.01-.01-.03.02-.06.04-.09.06,0,0-.03.01-.04.02-.03,0-.06.01-.08.02,0,0,0,0,.02,0,0,0-.02,0-.03,0,0,0,0,0-.01,0-.02,0-.02,0-.02,0-.02,0-.04,0-.06,0,0,0-.05,0-.08-.01,0,0-.03-.01-.05-.02-.02,0-.04-.02-.05-.03-.02,0-.03-.02-.05-.03-.02-.02-.04-.04-.06-.06,0,0,0,0,0,.02,0,0-.01-.02-.02-.02,0,0,0,0,0,0,0,0-.01-.02-.01-.02-.01-.02-.02-.04-.03-.06,0,0,0-.01,0-.02,0-.02-.01-.04-.02-.06,0-.01,0-.03,0-.04,0,.01,0,.02,0,.02,0,0,0,0,0,0,0-.03,0-.06,0-.08,0-.01,0-.02,0-.03,0-.02.01-.04.02-.06,0-.01.01-.02.02-.03,0,0,.01-.02.02-.03,0,0,0,0,0,0,0-.01.02-.02.03-.03.02,0,.03-.02.04-.03,0,0,.02-.01.03-.02.02,0,.05-.02.07-.02,0,0,0,0,0,0,.02,0,.04,0,.06,0,0,0,.02,0,.03,0,0,0,0,0,.01,0,.01,0,.03,0,.04.01.02,0,.03,0,.03,0,.12.05.25.04.36-.01,0,0,0,0,.01,0,0,0,0,0,0,0,.01.02.03.03.05.05,0,0,0,.02.01.03,0,.01.01.03.01.04,0,.01,0,.03,0,.04,0,0,0,0,0,0,0,.02,0,.04,0,.06,0,0,0,0,0,.02Z"/>
      <path class="cls-1" d="m30.1,40.08s.02.05,0,0h0Z"/>
      <path class="cls-1" d="m30.15,40.24s0,0,0,0c0,0,0,.01.01.02,0,0,0,0,0,0-.01-.02-.02-.03-.02-.03Z"/>
      <path class="cls-1" d="m33.06,37.31c-.1-.05-.21-.07-.33-.08-.39-.11-.81.08-1.03.41-.24.36-.14.83.14,1.13.13.14.31.25.49.28.23.04.44,0,.65-.1.17-.09.32-.24.41-.41.11-.21.14-.44.09-.67-.05-.23-.21-.46-.42-.56Zm-.42.93s-.03.02-.05.03c-.02,0-.04.01-.05.02-.01,0-.02,0-.04,0-.01,0-.02,0-.03,0-.01,0-.02-.01-.03-.02-.01-.01-.03-.03-.04-.04,0-.02-.02-.03-.03-.05,0-.02,0-.03-.01-.05,0,0,0-.01,0-.02,0,0,0-.02,0-.03,0,0,.01-.02.02-.03.1.04.21.03.31-.03,0,0,.01,0,.02,0,0,0,0,0,0,0,0,0,0,0,0,0,0,0,0,0,0,.01,0,.01,0,.03.01.04,0,.01,0,.03,0,.04,0,.01,0,.03-.01.04,0,.01-.01.02-.02.04-.02.02-.03.04-.05.05Z"/>
      <path class="cls-1" d="m40.81,35.06c-.44-.07-.85.14-1.13.46-.28.32-.47.7-.67,1.07-.22.41-.45.82-.7,1.22-.43.67-.96,1.27-1.56,1.79-1.31,1.12-3,1.81-4.72,1.92-.5.03-.5.81,0,.78.07,0,.15-.01.22-.02,3.29-.13,6.5-1.59,8.73-4.02.61-.66,1.23-1.58.77-2.51-.18-.36-.53-.63-.92-.69Zm-.16,2.38c-.9,1.08-2.05,1.97-3.29,2.64.22-.19.43-.39.63-.61.56-.61,1.01-1.29,1.41-2.01.21-.37.4-.76.62-1.12.13-.21.33-.53.62-.52.3,0,.46.34.46.6,0,.38-.22.73-.46,1.02Z"/>
      <path class="cls-1" d="m44.29,53.83c-3.27,1.9-7.01,2.97-10.79,3.1-1.07.04-2.15,0-3.21-.11-.21-.02-.39.19-.39.39,0,.23.18.37.39.39,3.86.4,7.82-.17,11.42-1.63,1.02-.42,2.02-.9,2.98-1.46.43-.25.04-.92-.39-.67Z"/>
      <path class="cls-1" d="m41.22,56.92c-2.61,1.08-5.42,1.56-8.24,1.41-.5-.03-.5.75,0,.78,2.88.16,5.78-.34,8.45-1.44.19-.08.33-.26.27-.48-.05-.18-.28-.35-.48-.27Z"/>
      <path class="cls-1" d="m39.46,59.25c-1.19.42-2.44.6-3.7.55-.5-.02-.5.75,0,.78,1.32.06,2.66-.14,3.91-.58.2-.07.33-.27.27-.48-.05-.19-.28-.34-.48-.27Z"/>
      <path class="cls-1" d="m36.12,50.08c-1.32.52-2.68.97-4.08,1.22-.61.11-1.3.25-1.91.14-.41-.07-.98-.4-.86-.9.05-.2.26-.34.46-.31.23.02.37.25.37.47-.01.5.76.5.78,0,.02-.83-.82-1.47-1.61-1.17-.78.3-.98,1.21-.54,1.88.47.71,1.32.88,2.12.82.21-.01.43-.03.64-.06-.1.35.07.71.36.92.31.23.72.21,1.06.06.32-.14.56-.43.75-.72.09-.15.17-.3.26-.44.03-.04.05-.08.08-.12,0-.01.03-.05.04-.06.06-.07.12-.14.19-.2.02-.01.02-.03.04-.05.71-.21,1.4-.46,2.09-.74.19-.08.33-.26.27-.48-.05-.19-.28-.35-.48-.27Zm-3.82,2.4s.02,0,.02.01c-.01,0-.02,0-.02-.01Zm.62-.38s-.04.06-.06.09c0,0,0,0,0,.01,0,.01-.02.02-.03.04-.04.05-.09.1-.15.14-.01,0-.05.04-.06.04-.03.02-.06.03-.08.04-.01,0-.05.02-.06.02-.02,0-.03,0-.05.01,0,0,0,0-.01,0-.02,0-.12-.01-.03,0,0,0-.04,0-.06-.01,0,0,0,0-.01,0-.02,0-.03-.02-.05-.03,0,0,0,0,0,0,0,0,0,0,0,0,0,0-.01-.02-.02-.02,0,0-.01-.02-.01-.02,0,0,0-.01,0-.01,0,0,0,0,0-.01,0,0,0-.01,0-.02,0,0,0,0,0-.01,0,0,0,0,0-.01,0,0,0,0,0,0,.02-.02.05-.05.07-.07.01,0,.02-.01.03-.02.03-.02.05-.03.08-.05.02,0,.14-.06.04-.02.1-.04.19-.11.24-.21.12-.03.24-.05.36-.08,0,0,0,0,0,0-.04.07-.08.14-.13.21Z"/>
      <path class="cls-1" d="m52.3,35.72c.23-.7.09-1.57-.57-1.99-.72-.46-1.68-.09-2.02.66-.2.44-.2.98.12,1.36.28.34.83.45,1.19.18.17-.12.25-.34.14-.53-.1-.17-.36-.26-.53-.14-.12.09-.24.01-.28-.15-.05-.2.04-.43.18-.59.3-.34.85-.27,1.03.15.21.5-.06,1.04-.33,1.46-.35.54-.74,1.06-1.15,1.55-.47.57-.98,1.11-1.51,1.63-.36.35.19.9.55.55.56-.54,1.08-1.11,1.58-1.71.62.1,1.27-.02,1.78-.39.29-.21.53-.46.65-.8.12-.34.04-.74-.23-.99-.16-.16-.38-.24-.6-.25Zm.1.87s0-.01-.01-.03c0,0,0,0,0,0,0,0,0,0,0,0,0,0,0,0,0,0,0,0,0,.01.01.03Zm-.03.17s-.05.08-.07.12c-.01.01-.05.06-.06.07-.02.02-.04.05-.07.07-.02.02-.05.04-.07.06,0,0,0,0-.01,0,0,0-.01.01-.02.02-.06.04-.11.08-.17.11-.03.02-.06.03-.08.04,0,0-.06.03-.08.04-.05.02-.1.04-.15.05-.07.02-.14.04-.21.05,0,0-.02,0-.03,0-.01,0-.03,0-.04,0,.2-.26.4-.53.58-.81.09.02.18,0,.26-.05.02-.01.13-.07.04-.04.02,0,.04-.01.06-.02,0,0,0,0,0,0,.02,0,.03,0,.05,0,0,0,0,0,.03,0,0,0,.02,0,.03.01,0,0,0,0,0,0,0,0,0,0,0,0,0,0,.02.02.02.02,0,0,.01.02.02.03,0,.01,0,.01,0,.02,0,.01,0,.02,0,.03,0,.01,0,.03,0,.04,0,.01,0,.02,0,.03,0,.01-.02.05-.02.06Z"/>
      <path class="cls-1" d="m52.26,32.93c.09.05.2.07.3.04.09-.03.19-.09.23-.18.2-.46.31-.96.28-1.47,0-.2-.17-.4-.39-.39-.2,0-.4.17-.39.39,0,.15,0,.3-.02.45-.04.24-.1.47-.19.69,0-.02.02-.04.03-.07-.04.1-.07.19-.04.29.02.09.09.19.18.23Z"/>
      <path class="cls-1" d="m52.3,28.71v.95c0,.1.04.2.11.27.07.07.18.12.27.11.21,0,.39-.17.39-.39v-.95c0-.1-.04-.2-.11-.27-.07-.07-.18-.12-.27-.11-.21,0-.39.17-.39.39Z"/>
      <path class="cls-1" d="m52.45,27.63c.5,0,.5-.78,0-.78s-.5.78,0,.78Z"/>
      <path class="cls-1" d="m27.37,50.51c-.46-.16-.92-.33-1.38-.49-.19-.07-.43.08-.48.27-.05.22.07.4.27.48.46.16.92.33,1.38.49.19.07.43-.08.48-.27.05-.22-.07-.4-.27-.48Z"/>
      <path class="cls-1" d="m24.46,49.29c-.5,0-.5.78,0,.78s.5-.78,0-.78Z"/>
      <path class="cls-1" d="m23.04,48.38c-.5,0-.5.78,0,.78s.5-.78,0-.78Z"/>
      <path class="cls-1" d="m20.25,18.79c.53-.41,1.09-.77,1.68-1.1.44-.24.05-.91-.39-.67-2.23,1.23-4.1,3.09-5.37,5.29-.36.63-.67,1.29-.93,1.97-.08.2.08.43.27.48.22.06.4-.07.48-.27.86-2.24,2.36-4.24,4.26-5.7Z"/>
      <path class="cls-1" d="m20.85,19.91c-1.49.83-2.74,2.08-3.58,3.56-.25.44.42.83.67.39.78-1.38,1.92-2.51,3.3-3.29.44-.24.05-.91-.39-.67Z"/>
      <path class="cls-1" d="m21.74,22.23c-.12-.18-.34-.24-.53-.14-.71.38-1.3.91-1.78,1.56-.12.16-.03.44.14.53.2.11.4.04.53-.14.01-.02.03-.04.04-.05.03-.03.06-.07.08-.1.06-.07.11-.13.17-.19.12-.13.25-.25.38-.37.03-.03.06-.05.09-.08.02-.01.04-.03.05-.04,0,0,0,0,.01,0,0,0,.04-.03.04-.03.02-.01.04-.03.06-.04.03-.02.07-.05.1-.07.15-.1.31-.2.47-.28.18-.1.25-.36.14-.53Z"/>
      <path class="cls-1" d="m22.52,24.42s.04-.1.03-.15c0-.05,0-.1-.03-.15-.02-.05-.04-.09-.08-.12-.07-.07-.17-.12-.27-.11-.03,0-.07,0-.1.01-.07.02-.12.05-.17.1-.16.13-.32.26-.48.4-.04.04-.06.08-.08.12-.02.05-.04.1-.03.15,0,.05,0,.1.03.15.02.05.04.09.08.12.07.07.17.12.27.11.03,0,.07,0,.1-.01.07-.02.12-.05.17-.1.16-.13.32-.26.48-.4.04-.04.06-.08.08-.12Z"/>
      <path class="cls-1" d="m5.32,32.57c-.25-.28-.67-.31-.95-.07-.24.2-.34.54-.43.82-.11.33-.2.67-.26,1.02-.07.39-.11.79-.12,1.18,0,.11,0,.22,0,.32-.23-.06-.49.02-.67.18-.39.36-.5,1-.51,1.5-.01.64.15,1.27.12,1.92-.01.41.5.48.7.21.02-.01.03-.02.05-.04.06-.03.12-.07.17-.14.05-.08.09-.15.14-.23.05-.04.09-.09.14-.13.15-.11.36-.24.53-.35.41-.26.81-.57,1.01-1.03.19-.45.26-1.44-.37-1.53.44-.81.69-1.72.69-2.66,0-.34,0-.71-.25-.98Zm-.93,2.16c.05-.36.14-.71.25-1.06.04-.14.09-.28.15-.41,0,.08,0,.16,0,.23,0,.15,0,.3-.02.45-.02.31-.08.61-.17.91-.07.24-.16.47-.26.7,0-.28,0-.55.04-.82Zm-.96,1.85s0,0-.01,0c0,0,.01-.01.01,0Zm-.13,0s-.02-.03,0,0h0Zm-.06.38c.02-.08.06-.17.1-.24,0,0,0,.02,0,.02,0,0,0,0,0,.03,0,.06,0,.13,0,.19,0,.24,0,.48-.05.72,0,.02,0,.03-.01.05-.04.08-.09.16-.13.24,0-.09-.02-.19-.02-.28,0-.25.01-.49.08-.72Zm1.12.74s-.06.06-.09.09c-.08.08-.11.1-.18.15,0,0-.01,0-.02.01.15-.26.33-.5.53-.72-.03.15-.09.3-.19.42.02-.03-.04.04-.05.05Z"/>
      <path class="cls-1" d="m6.08,29.41c-.17-.09-.44-.06-.53.14-.28.58-.49,1.2-.6,1.83-.03.2.05.43.27.48.19.04.44-.06.48-.27.05-.3.12-.59.21-.87.05-.14.1-.28.15-.42.01-.03.02-.06.04-.09,0,0,0,0,0,0,0-.02.01-.03.02-.05.03-.07.06-.14.09-.2.09-.18.06-.43-.14-.53Z"/>
      <path class="cls-1" d="m6.23,28.24c-.5,0-.5.78,0,.78s.5-.78,0-.78Z"/>
      <path class="cls-1" d="m6.66,26.93c-.5,0-.5.78,0,.78s.5-.78,0-.78Z"/>
      <path class="cls-1" d="m58.76,47.96c-.25-.28-.67-.31-.95-.07-.24.2-.34.54-.43.82-.11.33-.2.67-.26,1.02-.07.39-.11.79-.12,1.18,0,.11,0,.22,0,.32-.23-.06-.49.02-.67.18-.39.36-.5,1-.51,1.5-.01.64.15,1.27.12,1.92-.01.41.5.48.7.21.02-.01.03-.02.05-.04.06-.03.12-.07.17-.14.05-.08.09-.15.14-.23.05-.04.09-.09.14-.13.15-.11.36-.24.53-.35.41-.26.81-.57,1.01-1.03.19-.45.26-1.44-.37-1.53.44-.81.69-1.72.69-2.66,0-.34,0-.71-.25-.98Zm-.93,2.16c.05-.36.14-.71.25-1.06.04-.14.09-.28.15-.41,0,.08,0,.16,0,.23,0,.15,0,.3-.02.45-.02.31-.08.61-.17.91-.07.24-.16.47-.26.7,0-.28,0-.55.04-.82Zm-.96,1.85s0,0-.01,0c0,0,.01-.01.01,0Zm-.13,0s-.02-.03,0,0h0Zm-.06.38c.02-.08.06-.17.1-.24,0,0,0,.02,0,.02,0,0,0,0,0,.03,0,.06,0,.13,0,.19,0,.24,0,.48-.05.72,0,.02,0,.03-.01.05-.04.08-.09.16-.13.24,0-.09-.02-.19-.02-.28,0-.25.01-.49.08-.72Zm1.12.74s-.06.06-.09.09c-.08.08-.11.1-.18.15,0,0-.01,0-.02.01.15-.26.33-.5.53-.72-.03.15-.09.3-.19.42.02-.03-.04.04-.05.05Z"/>
      <path class="cls-1" d="m59.52,44.79c-.17-.09-.44-.06-.53.14-.28.58-.49,1.2-.6,1.83-.04.2.05.43.27.48.19.04.44-.06.48-.27.05-.3.12-.59.21-.87.05-.14.1-.28.15-.42.01-.03.02-.06.04-.09,0,0,0,0,0,0,0-.02.01-.03.02-.05.03-.07.06-.14.09-.2.09-.18.06-.43-.14-.53Z"/>
      <path class="cls-1" d="m59.67,43.62c-.5,0-.5.78,0,.78s.5-.78,0-.78Z"/>
      <path class="cls-1" d="m60.1,42.32c-.5,0-.5.78,0,.78s.5-.78,0-.78Z"/>
    </g>
  </g>
</svg>