<?xml version="1.0" encoding="UTF-8"?>
<svg id="_レイヤー_2" data-name="レイヤー 2" xmlns="http://www.w3.org/2000/svg" viewBox="0 0 70 75.99">
  <defs>
    <style>
      .cls-1 {
        fill: #3e3a39;
        stroke-width: 0px;
      }
    </style>
  </defs>
  <g id="_出欠" data-name="出欠">
    <g>
      <path class="cls-1" d="m30.02,60.05s0,0,0,0c0,0,.01,0,.02,0,0,0,0,0,0,0,0,0-.02,0-.04,0,0,0,0,0,.01,0Z"/>
      <path class="cls-1" d="m30.1,60.02s0,0,.01,0c0,0,0,0,0,0-.02,0-.03.02-.03.02,0,0,.01,0,.02,0Z"/>
      <path class="cls-1" d="m29.92,60.03s.02,0,.03,0c0,0-.02,0-.03-.01,0,0,0,0,0,0Z"/>
      <path class="cls-1" d="m15.51,48.11c-.42,1.09-.19,2.33-.1,3.46.11,1.26.21,2.52.32,3.78.24,2.84.48,5.68.72,8.52.02.22.17.4.4.4.03,0,.06,0,.09-.01.05,0,.09,0,.14,0,.97-.14,1.95-.25,2.93-.18.14.01.27-.07.34-.19.08-.06.14-.16.14-.3.07-2.51.05-5.02-.05-7.53-.05-1.25-.12-2.49-.22-3.74-.09-1.18-.21-2.38-.56-3.51-.28-.91-.77-2.01-1.82-2.2-1.03-.19-1.97.59-2.33,1.51Zm4.2,10.93c.02,1.4.01,2.81-.02,4.21-.28-.01-.57,0-.85,0-.17-1.4-.31-2.8-.43-4.2.43,0,.86-.01,1.3-.02,0,0,0,0,0,0Zm-.1-3.51c.04.9.07,1.8.09,2.7-.45,0-.91.01-1.36.02-.13-1.53-.23-3.06-.3-4.59.44-.03.88-.07,1.31-.1.05,0,.1-.02.15-.04.04.67.08,1.34.11,2.01Zm-.82-6.8c.36,1.06.51,2.17.6,3.28.02.25.04.5.05.75-.03,0-.06-.01-.09,0-.45.04-.9.07-1.34.11-.03-.67-.06-1.34-.07-2.01-.03-1.13-.04-2.25-.04-3.38.45.22.73.8.89,1.26Zm-1.13,11.08c.11,1.17.24,2.34.38,3.51,0,0,0,0,0,0-.28.03-.55.06-.82.1-.12-1.45-.24-2.89-.37-4.34.25,0,.5,0,.75,0,.02.25.04.49.06.74Zm-.13-1.55c-.25,0-.5,0-.75,0-.05-.55-.09-1.1-.14-1.64-.08-.95-.16-1.89-.24-2.84.27-.02.55-.04.82-.06.07,1.51.18,3.03.3,4.54Zm-.44-10.77c0,1.81.04,3.62.11,5.43-.29.02-.57.05-.86.07-.05-.58-.1-1.16-.15-1.74-.05-.55-.11-1.09-.11-1.64,0-.79.21-1.77,1.01-2.11Z"/>
      <path class="cls-1" d="m47.6,46.73c-.52-.11-1.03,0-1.45.34-.37.29-.61.71-.78,1.14-.43,1.07-.54,2.28-.59,3.41-.06,1.23-.06,2.47-.05,3.71.02,2.83.14,5.66.38,8.48.01.12.07.23.16.31.07.11.2.19.33.18,1.01-.13,2.03-.07,3.05.02.06,0,.11,0,.16-.03.18-.02.36-.14.37-.38.07-2.53.14-5.05.21-7.58.04-1.26.07-2.53.11-3.79.02-.64.04-1.29.05-1.93.02-.56.02-1.12-.07-1.68-.17-1-.82-2-1.87-2.21Zm-1.8,2.95c.13-.65.32-1.74,1-2.08.1,1.8.16,3.6.19,5.39-.44,0-.88-.02-1.33-.03-.05,0-.08.01-.12.02.02-1.1.04-2.22.25-3.3Zm1.12,10.26c-.04,1.16-.11,2.33-.18,3.49-.28,0-.57.02-.85.04-.11-1.4-.2-2.8-.25-4.21.43-.02.87-.04,1.3-.06,0,.24,0,.49-.02.73Zm.04-1.54c-.45.02-.89.04-1.34.06,0,0-.01,0-.02,0-.02-.61-.04-1.23-.05-1.84-.02-.96-.02-1.92-.01-2.88.04.01.08.03.12.03.45.01.9.02,1.34.03.01,1.53,0,3.07-.05,4.6Zm1.41,5.1c-.27-.02-.55-.04-.82-.05.09-1.42.15-2.84.2-4.27.25-.01.5-.02.75-.03-.04,1.45-.08,2.9-.12,4.35Zm.22-7.68c-.02.84-.05,1.68-.07,2.52-.25.01-.5.02-.74.03.04-1.52.06-3.03.05-4.55.28,0,.55.01.83.02-.02.66-.04,1.32-.06,1.98Zm.15-5.38c-.01.6-.03,1.19-.05,1.79,0,.27-.02.53-.02.8-.29,0-.58-.01-.86-.02-.01-.68-.02-1.37-.04-2.05-.04-1.14-.09-2.27-.15-3.4.52.2.9.82,1.02,1.32.13.51.12,1.04.11,1.56Z"/>
      <path class="cls-1" d="m53.43,50.33c-.43-.28-.96-.33-1.42-.12-.45.21-.74.62-.92,1.07-.2.51-.25,1.08-.32,1.61-.07.54-.14,1.08-.18,1.63-.19,2.12-.18,4.24-.13,6.37.01.56.03,1.13.05,1.69.01.32,0,.74.16,1.02.13.24.42.32.67.32.3,0,.59-.04.89-.05.61,0,1.23.02,1.84-.04.22-.02.4-.17.4-.4.1-2.29.19-4.59.17-6.89-.01-1.15-.05-2.29-.14-3.44-.07-1.01-.14-2.16-1.08-2.78Zm-1.79,2.16c.06-.41.21-1.22.62-1.51.04,1,.06,2.01.08,3.02-.3.01-.6.03-.9.04.05-.52.12-1.03.2-1.55Zm.71,7.94c-.01.88-.04,1.77-.06,2.65-.14,0-.29,0-.43,0-.11,0-.22.01-.33.02-.05,0-.12,0-.17.01,0,0,0-.01,0-.02,0,0,0-.03,0-.04-.02-.14-.02-.29-.03-.43-.02-.43-.03-.85-.04-1.28-.01-.5-.03-1-.03-1.51.02,0,.04,0,.06,0,.35-.06.7-.09,1.05-.11,0,.23,0,.46,0,.69Zm.01-1.49c-.38.01-.75.05-1.13.11,0-1.19,0-2.37.08-3.56.01-.21.04-.43.05-.64.33-.01.65-.03.98-.04.02,1.38.02,2.75.01,4.13Zm1.33-5.74c.02.25.03.5.04.74-.2,0-.39.02-.59.03,0-.18,0-.36,0-.54-.02-.78-.04-1.57-.07-2.35.59.44.58,1.47.63,2.12Zm-.02,9.87c-.19,0-.39.01-.58.01.04-1.11.06-2.23.07-3.34.21.01.42.03.63.06-.03,1.09-.07,2.18-.12,3.27Zm.13-4.07c-.21-.03-.43-.04-.64-.06.01-1.39,0-2.78-.02-4.17.21,0,.42-.02.62-.03.02.52.04,1.05.04,1.57.01.89,0,1.79-.01,2.68Z"/>
      <path class="cls-1" d="m5.99,48.89s0,0,0,0c-.03.02-.06.06,0,0Z"/>
      <path class="cls-1" d="m6,49.99s0,0,0,0c0,0,0,0,.01,0-.02-.01-.03-.02-.04-.02,0,0,.01,0,.02.01Z"/>
      <polygon class="cls-1" points="36.27 22.17 36.27 22.17 36.27 22.17 36.27 22.17 36.27 22.17"/>
      <path class="cls-1" d="m36.26,22.17s0,0,0,0c-.02-.02-.03-.03,0,0Z"/>
      <path class="cls-1" d="m64.84,60.82s0,0,0,0c.02.07.02.03,0,0Z"/>
      <path class="cls-1" d="m63.49,64.93c0-.25,0-.51-.08-.75-.11-.29-.31-.51-.6-.62-.28-.11-.59-.01-.81.18-.21.17-.31.44-.33.7-.03.29.08.58.19.84.04.1.09.18.19.24.09.05.21.07.31.04.1-.03.19-.09.24-.19.05-.09.08-.21.04-.31-.06-.15-.12-.31-.15-.47,0-.04,0-.09,0-.13,0-.02,0-.03.01-.05.01-.02.02-.04.04-.06,0,0,.01-.01.02-.02,0,0,0,0,0,0,0,0,.01,0,.02,0,.01.01.03.03.04.04.01.02.02.03.03.05.02.05.03.11.04.16,0,.11,0,.22,0,.33,0,.21.19.41.4.4.22-.01.4-.18.4-.4Z"/>
      <path class="cls-1" d="m59.41,63.98c-.27-.1-.59-.11-.85,0-.3.12-.56.35-.63.68-.08.36.06.73.32.99.26.26.62.38.97.48.2.06.45-.07.5-.28.05-.22-.06-.43-.28-.5-.07-.02-.14-.04-.21-.06-.04-.01-.07-.02-.1-.04-.02,0-.03-.01-.05-.02-.04-.02-.03-.01.02,0-.03,0-.08-.04-.1-.05-.03-.02-.06-.04-.09-.06-.01,0-.02-.01-.03-.02-.02-.02-.05-.04-.07-.07,0,0-.01-.01-.02-.02h0s-.03-.05-.05-.08c0,0,0-.02,0-.02,0,0,0-.02,0-.03,0-.02,0-.04,0-.06,0,0,0,0,0,0,0,0,0-.01.01-.02,0,0,0,0,0,0,.01-.01.02-.02.04-.03,0,0,.02-.01.03-.02,0,0,.02,0,.02-.01.02,0,.04-.01.06-.02.02,0,.04,0,.06-.01,0,0,.02,0,.03,0,.03,0,.05,0,.08,0,0,0,0,0,.01,0,.04,0,.07.02.11.03.02,0,.03.01.05.02.04.02.03.01-.02,0,.02,0,.08.04.1.05.03.02.06.04.1.06.06.04.13.08.19.13.01,0,.02.02.04.03.03.02.05.04.08.07.09.07.17.12.29.12.1,0,.22-.04.29-.12.13-.15.18-.43,0-.57-.27-.21-.53-.41-.85-.53Z"/>
      <path class="cls-1" d="m64.23,66.63c-.3.08-.52.29-.79.42-.19.09-.26.38-.14.55.13.2.35.24.55.14.19-.09.35-.22.53-.32.04-.01.07-.02.11-.03,0,0,.02,0,.02,0,0,0,.01,0,.02,0,0,0,0,0,0,0,0,0,.01.01.02.02,0,0,0,0,0,0,0,0,0,.01.01.02,0,.02.01.04.01.06,0,.01,0,.02,0,.03,0,.03-.01.05-.02.08-.02.03-.03.06-.05.09,0,0,0,0,0,0-.02.02-.04.04-.06.06,0,0-.01.01-.02.02-.02.01-.04.03-.06.04-.04.02-.08.04-.12.06-.1.04-.21.07-.32.09-.21.04-.35.3-.28.5.07.22.27.33.5.28.25-.05.51-.14.72-.29.23-.18.44-.42.5-.72.06-.32-.02-.63-.23-.88-.22-.25-.58-.32-.9-.24Z"/>
      <path class="cls-1" d="m40.06,53.23c.52,0,.52-.81,0-.81s-.52.81,0,.81Z"/>
      <path class="cls-1" d="m24.81,40.14c.52,0,.52-.81,0-.81s-.52.81,0,.81Z"/>
      <path class="cls-1" d="m24.64,34.49c-.52,0-.52.81,0,.81s.52-.81,0-.81Z"/>
      <path class="cls-1" d="m24.9,52.16c-.52,0-.52.81,0,.81s.52-.81,0-.81Z"/>
      <path class="cls-1" d="m36.8,65.05c.52,0,.52-.81,0-.81s-.52.81,0,.81Z"/>
      <path class="cls-1" d="m32.7,53.13c-.52,0-.52.81,0,.81s.52-.81,0-.81Z"/>
      <path class="cls-1" d="m30.06,65.31c.52,0,.52-.81,0-.81s-.52.81,0,.81Z"/>
      <path class="cls-1" d="m69.94,65.87c.02-.28-.08-.55-.26-.77.06-.13.11-.28.13-.43.04-.42-.14-.81-.44-1.09.37-.31.61-.77.63-1.26.04-.82-.53-1.58-1.31-1.81-.2-.06-.4-.08-.6-.07.12-.4.16-.83.04-1.24-.13-.49-.47-.93-.94-1.14-.53-.23-1.13-.12-1.59.21-.17.12-.31.27-.44.42-.29-.66-.87-1.17-1.67-1.17-.68,0-1.27.52-1.51,1.16-.05-.03-.11-.06-.17-.08-.57-.22-1.19-.05-1.58.37-.16-.13-.36-.22-.58-.27-.43-.1-.86,0-1.2.29-.14.12-.24.26-.34.42-.16-.1-.35-.16-.55-.17-.06,0-.12,0-.18,0-.12-2.21-.24-4.42-.36-6.63-.08-1.39-.15-2.77-.23-4.16.16.1.32.21.48.31.03.04.06.07.1.1.48.35,1.2.33,1.7.02.28-.18.49-.43.6-.75.1-.3.06-.64-.06-.92-.14-.34-.39-.61-.71-.8-4.43-2.97-8.87-5.92-13.27-8.93-1.22-.83-2.43-1.67-3.64-2.53-.03-.02-.07-.03-.11-.04-.03-1.68-.06-3.35-.07-5.03.22-.15.4-.35.53-.58.45.38,1.04.58,1.66.47.84-.14,1.72-.93,1.62-1.85-.05-.48-.32-.98-.58-1.38-.12-.18-.26-.34-.38-.52-.16-.25-.33-.49-.5-.73-.66-.97-1.33-1.95-1.99-2.93-2.58-3.81-5.13-7.63-7.61-11.51-.3-.47-.61-.93-.96-1.36-.02-.03-.05-.06-.07-.08-.09-1.59-.13-3.18-.14-4.77.5,0,.99.02,1.49.03.21,0,.42-.19.4-.4-.02-.34-.04-.68-.06-1.03-.03-.33-.16-.63-.5-.73-.28-.08-.59-.02-.88,0-.15.01-.31.02-.46.04-.04,0-.14.02-.23.02,0-.08,0-.16,0-.21,0-.15,0-.31,0-.46,0-.32,0-.63-.02-.95-.01-.29-.08-.57-.31-.77-.23-.19-.54-.21-.83-.2-.27.02-.55.07-.76.25-.22.2-.27.47-.27.75,0,.55,0,1.1,0,1.66-.29,0-.58,0-.86,0-.33,0-.74-.07-1.07.04-.37.12-.49.45-.52.8-.03.35-.04.7-.06,1.06-.01.21.2.41.4.4.58-.01,1.15-.03,1.73-.04.04,0,.1,0,.15,0,.01.09.04.22.04.24.03.29.04.58.05.87.03,1.14-.05,2.28,0,3.42,0,.07.02.12.04.17-.05.06-.1.12-.15.17-.9,1.08-1.63,2.31-2.38,3.5-1.32,2.12-2.61,4.24-4.01,6.3-1.52,2.23-3.07,4.44-4.56,6.69-.1.15-.2.3-.3.46-.33.53-.5,1.18-.45,1.81.06.74.51,1.29,1.18,1.56.43.18.87.2,1.27.11.05,1.66.1,3.33.16,4.99-1.95,1.66-3.96,3.25-5.97,4.85-2.16,1.72-4.31,3.46-6.46,5.19-1.24,1-2.48,2-3.72,3,0,0,0,0,0,0-.47.38-.79,1-.6,1.61.19.62.83,1,1.47.98.36-.01.7-.14.97-.38.02-.02.04-.05.05-.08.15-.12.3-.23.45-.35.08,2.42.15,4.84.23,7.26.03,1.08.07,2.15.1,3.23-.11,0-.21.02-.31.06-.18.07-.36.17-.48.33-.09.11-.14.2-.19.33-.03.07-.04.15-.05.23-.2,0-.39.06-.56.16,0-.05-.01-.1-.03-.16-.1-.33-.39-.53-.72-.59-.02,0-.06,0-.04-.02,0,0-.01,0-.02,0,0,0,.01,0,.02,0,0,0,0-.02,0-.03-.01-.12,0-.24,0-.36,0-.3-.1-.6-.37-.77-.14-.09-.31-.11-.47-.12-.04,0-.09,0-.13,0,.02-.09-.04-.29-.06-.37-.05-.15-.13-.3-.24-.41-.41-.43-1.19-.55-1.74-.42-.36.08-.66.34-.74.7-.01.05-.02.09-.02.14-.24.06-.46.21-.6.46-.13.24-.14.53-.06.79-.23.16-.42.39-.49.67-.08.3-.02.61.12.87-.12.12-.21.26-.25.43-.05.22,0,.46.1.66-.09.13-.15.28-.17.45-.01.15.02.29.08.42-.23.17-.42.38-.5.68-.06.23-.05.47.06.68.05.1.12.18.19.26.01.01.03.03.05.06,0,0-.01.02-.02.03-.08.08-.15.17-.19.28-.11.23-.14.49-.08.73.03.14.1.27.18.37-.3.27-.48.66-.41,1.11.05.33.26.58.53.72-.14.4-.11.86.17,1.2.3.36.83.51,1.27.35.57.54,1.48.52,2.03-.04.18.06.36.09.55.13.07.01.14,0,.21-.01.03,0,.06.02.1.02.04,0,.06-.01.09-.02.04.02.09.03.14.03.13,0,.27.02.4.03.06,0,.13.01.19.02.01,0,.02,0,.04,0,.03,0,.06,0,.09.01.05,0,.09.02.14.03-.7.37-1.39.75-2.06,1.17-.44.27-.04.97.41.7,1.48-.92,3.03-1.73,4.64-2.39.19-.08.32-.25.28-.46,0-.02.01-.04.01-.07-.06-1.9-.12-3.8-.18-5.7.68-.01,1.36-.03,2.04-.04.01,0,.02,0,.03,0,.07.13.18.23.35.23.53.02,1.05-.02,1.57-.05.25-.01.5-.03.75-.03.23,0,.48.04.71-.04.57-.19.49-.81.48-1.3-.01-.55-.03-1.1-.05-1.64-.07-2.15-.19-4.29-.49-6.42-.08-.54-.16-1.08-.26-1.62-.09-.5-.17-1.02-.36-1.49-.18-.44-.46-.85-.89-1.08-.44-.23-.94-.21-1.37.03-.91.5-1.06,1.58-1.08,2.52-.03,1.09-.02,2.19.02,3.28.06,1.71.2,3.42.35,5.13-.63.02-1.25.04-1.88.07-.08-2.51-.16-5.02-.23-7.53-.05-1.47-.09-2.94-.14-4.41,0-.02-.01-.04-.01-.06,3.46-2.7,6.92-5.39,10.39-8.09.92-.72,1.85-1.44,2.77-2.16.02.63.04,1.26.06,1.89,0,.05,0,.1,0,.15.02.63.04,1.26.06,1.89-.6-.02-1.21-.02-1.81.02-.34.02-.67.06-1,.1-.3.04-.62.09-.83.33-.23.27-.2.63-.2.96,0,.33-.05.69.02,1.01.07.36.38.51.72.51.34,0,.69,0,1.03,0,.72,0,1.44,0,2.16,0,.06,1.98.12,3.96.19,5.94-.01.06-.01.13,0,.19,0,0,0,0,0,0,.06,2.02.13,4.03.19,6.05.08,2.64.17,5.27.25,7.91-.5-.02-1-.04-1.51-.06-.39-.02-.49.43-.29.67.03.81.05,1.62.07,2.43-.71.03-1.41.06-2.12.08.03-.04.06-.08.08-.13.28-.58-.08-1.22-.65-1.44-.02,0-.04-.01-.06-.02,0-.01.02-.03.03-.04.26-.53.22-1.18-.27-1.56-.49-.38-1.13-.28-1.47.23-.04.06-.07.12-.1.18-.04-.06-.07-.13-.11-.18-.18-.24-.39-.5-.69-.59-.33-.1-.67.04-.85.32-.26.39-.2.9-.04,1.33-.04,0-.09,0-.13.02-.4.08-.73.33-.91.66,0,0,0,0,0,0,0,0,0,0,0,0,.29-.45.28-1.07-.14-1.44-.44-.4-1.05-.31-1.4.15,0,0,0,.01-.01.02-.02-.04-.03-.07-.05-.11-.14-.24-.32-.49-.59-.59-.28-.1-.57-.03-.77.19-.29.31-.3.76-.2,1.16,0,0-.01,0-.02,0-.57.06-1.08.46-1.09,1.07,0,.61.46,1.1,1.05,1.19.4.06.78-.04,1.1-.25.09.05.19.09.28.13-1.79.94-3.59,1.88-5.38,2.82-.46.24-.05.94.41.7,1.99-1.04,3.98-2.08,5.97-3.13.05-.03.09-.06.13-.1.39.03.8-.03,1.07-.32.25.2.58.32.92.31.42,0,.79-.17,1.09-.43.16.07.32.12.49.17-2.05.95-3.98,2.15-5.75,3.56-.17.14-.14.43,0,.57.17.17.4.14.57,0,1.69-1.35,3.55-2.48,5.51-3.4v1.42s0,.04.01.07c-.39.01-.77.02-1.16.03-.52.02-.52.82,0,.81,4.78-.15,9.57-.29,14.35-.41,4.78-.12,9.57-.23,14.35-.33,2.69-.05,5.38-.1,8.06-.15.52,0,.52-.82,0-.81-.69.01-1.37.03-2.06.04-.1-.36-.18-.73-.25-1.1.18.3.44.56.71.71.58.32,1.32.29,1.87-.08.01,0,.03-.02.04-.03.36.27.77.47,1.22.55.47.09,1.03.05,1.3-.4.05-.08.08-.17.1-.26.18.13.37.23.58.31-.97.7-1.95,1.41-2.92,2.11-.18.13-.26.35-.14.55.1.17.38.27.55.14,1.27-.92,2.54-1.84,3.82-2.76.46-.17.73-.61.62-1.08.08.22.17.43.28.63.03.05.07.09.12.13.04.15.16.27.33.29.01,0,.02,0,.03,0,.06.2.29.33.49.27.44-.14.83-.41,1.14-.76.02.09.04.17.08.25-1.25.93-2.5,1.86-3.76,2.79-.17.13-.26.35-.14.55.1.17.38.28.55.14,1.25-.93,2.51-1.86,3.76-2.8.05-.04.09-.08.12-.13.12.06.26.1.41.1.31,0,.63-.16.83-.4,0,0,.01-.02.02-.03.32.22.7.33,1.09.21.15-.04.29-.13.4-.23.03.03.06.05.09.08-.71.79-1.5,1.52-2.34,2.13-.18.13-.26.35-.14.55.1.17.38.28.55.14.99-.73,1.9-1.56,2.7-2.48.04,0,.08.02.12.02.53.05,1.07-.2,1.41-.6.25.24.55.44.9.55.38.12.89.16,1.23-.09.32-.23.45-.64.35-1.02.24.03.5.04.72-.04.19-.07.35-.19.44-.37.1-.19.11-.39.08-.6-.05-.29-.25-.55-.46-.76.19-.14.34-.33.42-.55.13-.33.05-.69-.13-.98.25-.2.39-.5.42-.81Zm-55.76-4.3c0,.29.02.57.02.86,0,.13,0,.26.01.39,0,.1-.03.27,0,.37-.04-.1-.03-.05-.02,0-.1,0-.22,0-.3,0-.21,0-.43,0-.64.02-.1-1.11-.18-2.22-.25-3.33.37,0,.74.01,1.11.05.02.54.04,1.09.06,1.63Zm-.1-2.45c-.37-.04-.75-.05-1.12-.05-.08-1.37-.15-2.75-.2-4.12.32,0,.64,0,.95-.01.19,1.39.3,2.78.37,4.18Zm-1.17-7.71c.27.35.34.83.43,1.25.1.47.18.95.26,1.42,0,.02,0,.04,0,.06-.29,0-.58,0-.87,0,0-.17-.01-.34-.02-.5-.03-.82-.04-1.65-.06-2.47.1.06.18.15.26.24Zm-.66,9.17c.06.89.13,1.78.21,2.66,0,0,0,0,0,0-.2.01-.39.02-.59.02-.11-1.08-.21-2.17-.3-3.25.21-.04.42-.07.63-.1.01.22.03.44.04.65Zm-.09-1.46c-.22.02-.43.05-.65.09-.04-.54-.08-1.08-.11-1.61-.05-.88-.08-1.75-.09-2.63.21,0,.43,0,.64,0,.05,1.39.12,2.77.21,4.16Zm-.84-6c.01-.44.01-.89.15-1.31.07-.21.2-.42.38-.56.02.97.04,1.94.08,2.91-.21,0-.41,0-.62,0,0-.35,0-.69,0-1.04Zm-.36,9.06c.03.29.06.58.09.87-.66.01-1.32.03-1.98.04,0,0,0,0,0,0,0-.28-.02-.57-.03-.85.64-.02,1.28-.05,1.93-.07Zm.06,6.58c-.12.08-.25.13-.4.13-.24,0-.52-.13-.5-.41.02-.21.26-.27.44-.27.12,0,.25.04.37.1.08.08.17.16.27.23-.08.05-.14.12-.18.21Zm.42-1.06c-.05-.06-.1-.13-.13-.2-.06-.12-.11-.25-.12-.38,0-.06,0-.12,0-.18,0,0,0-.02.01-.04.09.12.17.26.23.41.06.15.1.3.12.46-.03-.02-.07-.04-.1-.07Zm1.19-.35c.04-.06.08-.16.14-.2.04-.02.08,0,.14.05.13.13.04.35-.07.49-.11.14-.27.23-.44.3.04-.22.11-.44.22-.64Zm.68,1.67c-.18.13-.58.02-.78-.03-.09-.02-.18-.05-.27-.08.14-.05.28-.1.42-.16.16-.05.32-.07.48-.02.13.04.3.2.16.29Zm2.39-.48c-.13.05-.23.16-.28.28-.15.11-.31.19-.5.21-.3.03-.64-.13-.66-.46-.02-.28.3-.42.54-.43.15,0,.3.03.44.08.14.12.29.23.46.31,0,0,0,0,0,0Zm0-.98c-.06-.06-.11-.12-.16-.19-.09-.14-.16-.28-.2-.44-.04-.15-.02-.26-.01-.4,0,0,0-.01,0-.02,0,0,0,0,0,0,.14.14.25.29.35.46.13.23.22.47.27.72-.08-.05-.17-.09-.26-.13Zm39.08-22.92c1.25.84,2.49,1.67,3.74,2.51.03.01.05.03.07.05,0,0,.02.01.03.02.01.01.03.02.03.03.02.02.05.04.07.07.02.02.03.04.05.05,0,0,0,0,0,0,.03.04.06.09.09.14,0,.02.02.03.03.05,0,0,0,0,0,.01.02.05.03.1.04.15h0s0,.05,0,.08c0,.02,0,.03,0,.05,0,.01,0,.02,0,.03,0,.02-.01.04-.02.07,0,0,0,.01,0,.02-.02.04-.05.08-.07.12,0,0,0,0,0,0-.01.02-.03.03-.05.05-.02.02-.04.04-.06.05,0,0,0,0,0,0,0,0,0,0,0,0-.04.03-.08.05-.13.07-.02,0-.04.02-.06.03.02-.01.02-.01.03-.02-.01,0-.03.01-.04.02-.05.02-.09.03-.14.04,0,0-.01,0-.02,0-.02,0-.04,0-.06,0-.05,0-.11,0-.16,0,0,0,0,0-.01,0-.03,0-.05-.01-.08-.02-.02,0-.04-.01-.06-.02-.02-.03-.05-.05-.09-.07-4.17-2.71-8.34-5.41-12.51-8.12-1.14-.74-2.29-1.48-3.43-2.22,0-.03,0-.06,0-.09-.02-.63-.03-1.26-.04-1.89,4.23,3,8.56,5.84,12.86,8.73Zm-9.86-1.86c0-.15,0-.29,0-.44,0-.01,0-.01,0-.02.04,0,.1,0,.13,0,.74,0,1.49.07,2.23.1.05,0,.09,0,.13-.02.42.27.83.54,1.25.81-.04.05-.06.11-.08.17-.06,0-.13.01-.19.02-.18.01-.37.03-.55.05-.37.03-.74.06-1.11.09-.37.03-.74.06-1.11.09-.17.01-.34.03-.51.04-.06,0-.13.02-.19,0-.02-.09,0-.26,0-.35,0-.18,0-.35,0-.53ZM34.53,3.31s0,0-.01,0c0,0,.01,0,.01,0Zm-3.66.8c-.51-.02-1.03,0-1.55.03,0-.14.02-.27.02-.41,0-.07.03-.17.03-.26.05,0,.11,0,.12,0,.59,0,1.17,0,1.76,0,.11,0,.2-.04.26-.1.16-.04.29-.16.29-.37,0-.42,0-.85,0-1.27,0-.21,0-.42,0-.64,0-.03-.01-.21,0-.23.04-.06.24-.05.31-.06.06,0,.13,0,.19,0,.1,0,.03,0,.04.02.06.14.02.36.02.51,0,.19,0,.39.01.58,0,.19,0,.39.01.58,0,.2-.01.42.09.6.21.39.69.29,1.05.26.08,0,.7-.05.93-.06,0,.01,0,.02,0,.03,0,.11.01.21.02.32,0,.07,0,.15.01.22-.49,0-.98-.02-1.47-.03-.22,0-.4.19-.4.4,0,1.54.05,3.07.12,4.6-.09-.03-.18-.05-.28-.06-.28-.03-.55.06-.79.2,0-1.14.06-2.28,0-3.43-.02-.31-.03-.66-.1-.96-.08-.33-.35-.48-.67-.49ZM7.95,61.51s.02-.03.03-.05c.02-.02.03-.03.05-.05.02-.01.04-.03.06-.04.03,0,.05-.02.08-.02,0,0,.01,0,.02,0,.01.41.03.82.04,1.24-.05-.23-.12-.45-.25-.64,0-.07-.01-.14-.04-.2,0,.02.02.04.03.06-.02-.04-.02-.08-.03-.12,0-.03,0-.06,0-.08,0-.03.01-.06.02-.08Zm-1.32,1.77c0-.07,0-.14,0-.21,0-.04,0-.08,0-.12,0,0,0,0,0,0,0,0,0,0,0,0,.01-.07.03-.14.05-.21,0-.03.02-.07.03-.1,0,0,0,0,0,0,.03-.05.06-.1.09-.15,0,0,0,0,0,0,0,0,0,0,.01-.01.02-.02.03-.04.05-.05,0,0,.01-.01.02-.02,0,0,.05-.03.06-.04.01,0,.03-.02.04-.02,0,0,0,0,0,0,.02,0,.03-.01.05-.01,0,0,.03,0,.05,0,.02,0,.03,0,.05,0,0,0,0,0,0,0,.02,0,.04.01.06.02,0,0,.01,0,.02.01,0,0,.01,0,.02.01.01.01.03.02.04.04,0,0,0,0,0,0,.02.04.04.09.07.13.01.03.02.06.03.09.03.11.05.21.07.32.01.09.11.2.19.24.09.05.21.07.31.04.1-.03.19-.09.24-.19.02-.03.02-.06.03-.09.02.76.05,1.52.07,2.27,0,.11,0,.22.01.33,0,0,0,0,0,0-.13-.17-.29-.31-.48-.38-.03-.23-.05-.47-.14-.68-.1-.26-.26-.47-.49-.63-.17-.11-.36-.15-.55-.14-.01-.08-.03-.16-.05-.24.02-.05.03-.1.03-.16Zm.99,2.59s0,0-.01,0c0,0,0,0,0,0,0,0,0,0,.01,0Zm-.03.02s0,0,0,0c0,0,0,0,0,0,0,0,0,0,0,0Zm0,.01s0,0,0,0c0,0,0,0,0,0,0,0,0,0,0,0Zm-1.83-4.2s0,0,0,0c0,0,0,.01,0,.02-.01,0-.02-.02,0-.02Zm-.78-1.32s.01-.04,0,0h0Zm-.17-.79s0,0,0,0c.02.02-.02.06,0,0Zm-2.01-.28s0,0,0,0c0,.02,0,.01,0,0Zm.52,6.51c-.22.05-.41.17-.56.36-.21.29-.2.69-.13,1.03.06.28.18.56.35.8.06.08.12.15.18.23-.07.06-.13.13-.18.21-.18.28-.21.68-.09.99.08.21.21.38.36.53-.29.14-.65.06-.84-.27-.12-.22-.46-.28-.63-.08,0,.01-.06.06-.06.06.02-.01-.03,0-.03.01-.03,0-.08.02-.1.01-.12-.01-.22-.07-.26-.14-.17-.26.03-.58.23-.74.36-.3-.1-.85-.49-.63-.05.03-.1.03-.17-.01-.07-.05-.1-.14-.09-.23.02-.26.28-.39.5-.45.03.13.07.25.15.36.1.15.23.28.4.35.1.05.2.07.31.04.09-.03.2-.1.24-.19.05-.09.07-.21.04-.31-.03-.09-.09-.2-.19-.24-.03-.01-.05-.03-.08-.04-.02-.02-.03-.03-.05-.05,0-.02-.02-.03-.03-.05,0-.02-.01-.04-.02-.06,0-.01,0-.03,0-.04,0-.02.01-.05.02-.07,0-.02.02-.03.03-.05.02-.03.05-.05.07-.08-.02.01-.03.03-.05.04.08-.06.15-.13.18-.24.03-.1.01-.23-.04-.31-.06-.09-.14-.16-.24-.19-.1-.02-.22-.02-.31.04-.13.09-.23.2-.31.34-.05-.03-.11-.06-.19-.07-.18-.01-.29-.2-.21-.36.06-.11.18-.19.25-.3.1-.16.13-.34.09-.52-.04-.16-.15-.29-.26-.4-.05-.05-.1-.08-.11-.15-.02-.25.41-.43.57-.51.09-.05.16-.14.18-.24.09.26.3.48.57.56.1.03.22.01.31-.04.08-.05.16-.15.19-.24.05-.21-.06-.4-.25-.48,0,0,.01,0,.02,0-.02,0-.03-.02-.05-.03,0,0,0,0-.01-.01,0,0,0-.01,0-.02,0,0,0-.01,0-.02,0,0,0,0,0,0,0,0,0,0,0,0,0,0,0-.01.01-.01,0,0,0,0,.01,0,.02,0,.04-.01.06-.02,0,0,0,0-.01,0,.09-.01.18-.05.24-.11.07-.07.12-.19.12-.29,0-.22-.18-.41-.4-.4-.42,0-.79.32-.84.74,0,.02,0,.03,0,.05-.03-.05-.08-.1-.14-.13-.09-.04-.18-.15-.04-.19.3-.09.43-.58.1-.74-.05-.02-.13-.06-.13-.13,0-.07.07-.12.13-.12.05,0,.09-.01.13-.03.04.16.16.29.37.29.52,0,.52-.81,0-.81-.04,0-.08.01-.11.02-.02-.09-.08-.18-.18-.23-.35-.2-.24-.72.17-.73.01,0,.02,0,.04,0-.01.06-.03.12-.04.19-.01.12.02.23.07.33.05.1.13.17.21.23,0,0,.02.01.03.01.03.02.08.04.11.05.04.01.08.02.13.02.01,0,.03,0,.04,0,.06,0,.11,0,.16-.03.05-.02.09-.04.13-.08.07-.07.12-.19.12-.29,0-.1-.04-.21-.12-.29-.01,0-.02-.02-.04-.03,0,0,0,0,0-.01.05,0,.09-.02.13-.04.08-.05.16-.15.19-.24.02-.1.02-.22-.04-.31-.06-.09-.14-.16-.24-.19-.11-.02-.22-.03-.33.01-.06.02-.12.05-.18.09-.03-.07-.08-.12-.17-.16-.11-.05-.17-.15-.11-.24.05-.07.2-.11.28-.08.2.09.43.06.55-.14.1-.18.05-.45-.14-.55,0,0,0-.02,0-.02.01-.05.04-.08.14-.11.22-.07.5-.01.72.05.17.05.29.12.32.29.06.35.09.67.47.82.14.06.33.09.48.07,0,0,.02,0,.03,0,0,0,0,0,0,0,0,0,0,0,0,0,0,0,0,0,0,0,0,.02,0,.06,0,.07,0,.06,0,.13,0,.19,0,.13,0,.26.03.39.07.32.31.51.61.62.05.02.11.03.16.05.02.12-.1.27-.16.37-.02.02-.03.05-.04.07-.28-.04-.57.04-.77.27-.22.26-.34.61-.43.93-.06.21-.09.42-.12.63-.31,0-.61.13-.78.4-.11.17-.13.37-.14.57-.01.18-.02.36-.02.54,0,.1,0,.21.01.32Zm-.62-4.67s.05,0,.07,0c0,0-.01,0-.02,0-.02,0-.03,0-.05,0Zm2.74,1.8s0,0,0,0c0,0,0,0,0,0,0,0,0,0,0,0Zm0,0s0,0,0,0c0,0,0,0,0,0,0,0,0,0,0,0Zm0,0s0,0,0,0c0,0,0,0,0,0,0,0,0,0,0,0,0,0,0,0,0,0Zm0,0s0,0,0,0c0,0,0,0,0,0,0,0,0,0,0,0Zm2.64,4.6c-.1-.18-.37-.26-.55-.14-.19.12-.26.36-.14.55.04.07.08.15.12.23.02.04.04.09.06.13,0,.01,0,.02,0,.02,0,0,0,0,0,.02.06.17.12.34.17.51.02.06.03.13.04.19-.06-.09-.13-.18-.21-.25-.12-.11-.26-.21-.41-.28-.19-.09-.37-.13-.57-.16-.1-.01-.22.05-.29.12-.07.07-.12.19-.12.29,0,.1.04.21.12.29.08.08.17.1.28.12-.03,0-.06,0-.09-.01.09.01.18.04.26.07.07.03.13.07.19.11,0,0,0,0,0,0-.28-.11-.57-.2-.87-.26-.21-.04-.45.06-.5.28-.03.15.02.33.14.43-.2-.02-.39-.04-.59-.05-.03,0-.06.01-.09.02-.04-.02-.09-.03-.15-.03-.04,0-.07.01-.1.02-.16-.03-.32-.06-.48-.1-.07-.02-.14-.04-.2-.07-.02,0-.05-.02-.05-.03-.02-.01-.05-.03-.07-.04-.03-.02-.06-.04-.09-.06,0,0,0,0,0,0,0,0-.01,0-.02-.01-.02-.02-.14-.11-.13-.13.03.05.04.05.01.02-.01-.01-.02-.03-.03-.04-.01-.02-.03-.05-.04-.07,0,0,0,0,0,0,0,0,0-.02,0-.02,0-.03-.01-.06-.02-.09,0,0,0-.01,0-.02,0,0,0-.05,0-.08,0,0,0-.01,0-.02,0-.02,0-.03.01-.05,0,0,0,0,0,0,0-.01.01-.02.02-.03,0,0,.02-.02.03-.03,0,0,.01-.01.02-.02,0,0,0,0,0,0,.01,0,.03-.02.04-.03,0,0,0,0,0,0,.02,0,.03,0,.05-.01,0,0,.02,0,.03,0,0,0,0,0,0,0,0,0,0,0-.01,0,0,0,0,0,0,0,0,0,0,0,.02,0,.03,0,.03,0,.01,0,.02,0,.03,0,.04.01.01,0,.03.01.04.02,0,0,.01,0,.02.01.01.01.03.03.04.04h0s.02.03.03.04c.1.19.37.26.55.14.19-.12.25-.35.14-.55-.13-.24-.35-.4-.6-.48-.06-.03-.12-.07-.17-.1-.01,0-.05-.04-.05-.04-.02-.01-.03-.03-.05-.04-.05-.04-.09-.09-.14-.14-.02-.02-.04-.05-.06-.08,0-.01-.02-.02-.02-.03-.04-.06-.08-.12-.11-.18-.02-.03-.03-.06-.04-.09,0-.01-.01-.02-.01-.03-.04-.12-.08-.24-.1-.36,0-.02,0-.05,0-.05,0-.03,0-.07,0-.1,0-.02,0-.04,0-.05,0-.02.01-.05.01-.06,0,0,0,0,0,0,0-.01.02-.03.03-.04,0,0,0,0,0,0,.02,0,.04-.01.04-.02,0,0,.01,0,.02,0,.01,0,.02,0,.03,0,0,0,.02,0,.03,0,0,0,.07.02.08.02,0,0,0,0,.01,0,0,0,0,0,.01.01.03.02.06.03.08.05-.07-.05,0,.01.02.02.02.02.05.05.07.07-.06-.07.02.04.03.05.04.06.1.11.16.14,0,.26.05.52.14.76.04.1.09.19.19.24.09.05.21.07.31.04.19-.06.36-.28.28-.5-.05-.13-.08-.26-.1-.39,0-.06,0-.11,0-.17.03,0,.06,0,.09,0,.04,0,.08.02.11.03.03.01.06.03.08.05.03.02.05.05.07.07.02.03.04.06.05.09.01.04.03.09.04.13.02.09.11.2.19.24.09.05.21.07.31.04.1-.03.19-.09.24-.19.05-.1.06-.2.04-.31-.08-.45-.45-.84-.9-.94-.25-.06-.51-.04-.74.07-.05-.06-.11-.12-.17-.17-.02-.05-.05-.1-.09-.14,0,0-.02-.02-.04-.04,0,0,0,0,0-.01,0,0,0,0,0-.01,0-.02-.01-.05-.02-.07,0,0,0,0,0,0h0s0-.05,0-.08c0-.06,0-.12,0-.18,0-.14,0-.28.01-.42,0-.06,0-.13.01-.19,0,0,0,0,0,0,0-.03.01-.06.02-.08,0,0,0,0,0,0,0,0,0,0,0,0,0,0,.02,0,.03,0,0,0-.01,0-.02,0,0,0,0,0,0,0,0,0,.01,0,.03,0,0,0,.01,0,.01,0,0,0,0,0-.01,0,.01,0,.02,0,.04,0,0,0,.01,0,.02,0,0,0,0,0,.01,0,.02.01.04.02.06.03.01,0,.02.02.04.02.01.01.02.03.03.03,0,0,.02.02.03.03,0,0,0,0,.01.02,0,0,.01.02.02.02.04.05.07.11.1.17.1.19.38.26.55.14.19-.12.25-.35.14-.55-.06-.11-.14-.22-.22-.32,0-.14,0-.27.02-.41,0-.01,0-.03,0-.04,0-.05.02-.09.03-.14.02-.08.04-.16.06-.24.02-.08.05-.16.07-.23.02-.04.03-.09.05-.13,0-.01,0-.01,0-.02,0,0,0,0,0-.02.03-.06.06-.12.1-.18,0,0,0,0,0,0,0,0,.01-.02.02-.02,0,0,0,0,0,0,0,0,0,0,.01,0,0,0,0,0,0,0,0,0,0,0,0,0,.01,0,.01,0,.02,0,0,0,0,0,.01,0,0,0,0,0,.02.01.01,0,.02.01.03.02,0,0,.02.02.03.03.01.01.03.03.04.04.04.06.08.12.11.19,0,.02.01.03.02.05.01.04.03.07.04.11.03.08.05.16.07.24.01.05.02.09.03.14,0,.01,0,.04,0,.05.01.09.02.17.02.26-.02.03-.05.06-.06.1-.14.28-.17.62-.05.91.04.1.09.18.19.24.09.05.21.07.31.04.1-.03.19-.09.24-.19.05-.09.08-.21.04-.31-.02-.05-.03-.1-.04-.15,0-.03,0-.05,0-.08,0-.03.01-.05.02-.07,0-.02.02-.03.03-.04.01-.01.02-.02.03-.03.01,0,.03-.02.04-.02.02,0,.04-.01.06-.02,0,0,.01,0,.02,0,.01,0,.03,0,.04.01.01,0,.03.02.04.02.03.02.05.05.07.07.03.04.05.08.07.12.05.13.08.27.1.41,0,.02,0,.03,0,.05,0,.03.01.07.02.1-.1.07-.2.16-.29.25-.2.18-.37.41-.44.68-.05.21.06.45.28.5.21.05.45-.06.5-.28,0-.02.01-.04.02-.07.02-.04.04-.07.06-.1.01-.01.02-.02.03-.04.03-.03.06-.06.09-.09.07-.06.14-.12.21-.18.02-.01.03-.02.05-.03,0,0,.01,0,.02-.01,0,0,0,0,.01,0,.03.03.06.06.07.07.02.02.04.04.05.06,0,0,0,0,0,0,.06.08.11.16.15.24.02.04.04.08.06.12,0,0,0,0,0,0,0,.03.02.05.03.08.06.17.22.3.4.3.02.53.03,1.06.05,1.59-.09-.29-.22-.56-.36-.82Zm-4.2,1.22s0,0,0,0c0,0,0,0,0,0,0,0,0,0,0,0Zm17.89-30.56c-3.92,3.05-7.84,6.11-11.76,9.16-1.1.86-2.2,1.72-3.31,2.58-.01.01-.02.03-.03.04,0,0-.01,0-.02,0-.01,0-.04.01-.04.02-.02,0-.05.01-.07.02-.02,0-.05.01-.07.02,0,0,0,0,0,0-.05,0-.1,0-.14,0-.02,0-.05,0-.07,0h0s-.1-.02-.14-.03c-.02,0-.04-.01-.05-.02,0,0,.01,0,.02.01-.01,0-.02-.01-.03-.02,0,0,0,0,0,0-.02,0-.03-.01-.02-.01-.04-.02-.07-.04-.11-.06,0,0,0,0-.01-.01-.01-.01-.04-.03-.04-.04-.02-.02-.04-.03-.05-.05,0,0,0,0,0,0-.02-.04-.05-.08-.07-.12,0,0,0,0,0,0,0-.02-.01-.05-.02-.07,0,0,0-.01,0-.02,0-.02,0-.04,0-.05,0-.03,0-.05,0-.08,0,0,0,0,0,0,.01-.05.02-.09.03-.14,0-.02.01-.04.02-.06,0-.01.01-.02.02-.03.03-.05.06-.1.09-.15,0,0,.01-.02.02-.02.02-.02.04-.05.06-.07.02-.02.05-.04.07-.06,0,0,.02-.01.03-.02,0,0,0,0,0,0,.02-.01.03-.03.05-.04.01,0,.02-.01.03-.02,2.2-1.77,4.4-3.54,6.6-5.32,2.09-1.68,4.18-3.34,6.27-5.02.92-.74,1.83-1.49,2.74-2.25.02.65.04,1.31.06,1.96,0,0,0,0,0,0Zm-1.76,7.06c-.37,0-.73,0-1.1,0,0,0,0,0,0,0,0,0,0-.02,0-.03,0-.18,0-.36,0-.55,0-.16-.01-.33,0-.49,0-.02,0-.04,0-.06,0,0,0-.02,0-.02.02,0,.07-.03.08-.03.32-.08.66-.09.98-.11.65-.05,1.31-.06,1.96-.03,0,.04.01.07.02.11,0,.02,0,.05,0,.07.01.38.02.76.04,1.14-.66,0-1.32,0-1.98,0Zm.5-15.9c-.41-.17-.64-.51-.65-.95,0-.44.11-.87.35-1.24,1.31-2.03,2.71-4.01,4.08-6.01.6-.88,1.21-1.76,1.81-2.65.72-1.08,1.4-2.2,2.08-3.31.72-1.17,1.43-2.34,2.2-3.48.18-.27.36-.53.55-.8.08-.11.16-.22.25-.33,0,0,.01-.01.01-.02,0,0,0-.01.02-.02.02-.02.03-.04.05-.06.04-.05.09-.11.13-.16.16-.19.32-.36.52-.5.28-.21.48-.31.79-.11.36.23.62.67.86,1.02.29.43.57.88.84,1.32.58.92,1.18,1.83,1.78,2.74,1.21,1.84,2.44,3.68,3.67,5.51,1.2,1.78,2.4,3.55,3.6,5.33,0,0-.02.02-.03.03-.05.05-.09.08-.13.1-.14.09-.28.18-.44.25-.27.12-.52.19-.76.17-.76-.08-1.25-.77-1.54-1.42-.01-.03-.04-.05-.07-.08.23-.53.37-1.11.39-1.68.02-.52-.79-.52-.81,0-.04,1-.49,1.97-1.23,2.65-.35.32-.74.5-1.19.29-.21-.1-.41-.25-.53-.45-.14-.23-.24-.49-.38-.72,0-.01-.02-.02-.02-.03.04-.31.06-.62.08-.93.01-.22-.19-.4-.4-.4-.23,0-.39.19-.4.4-.04.91-.17,2.16-1.13,2.54-.38.15-.78.07-1.09-.21-.17-.15-.3-.33-.39-.54,0-.01-.02-.05-.02-.06-.01-.05-.03-.1-.04-.14-.03-.12-.03-.16-.04-.29-.03-.47,0-.93.05-1.4.11-.03.23-.07.34-.12.7-.29,1.26-.82,1.56-1.47.1.17.2.32.33.47.1.12.22.24.36.32.23.12.52.14.78.13.65-.02,1.15-.34,1.51-.88.4-.59.52-1.32.62-2.01.03-.22-.06-.43-.28-.5-.19-.05-.46.07-.5.28-.12.77-.28,2.13-1.23,2.28-.08.01-.19.01-.28,0-.04,0-.19-.05-.24-.04,0,0,0,0,0,0,.03,0,.05.05,0,0,0,0,0,0,0,0,0,0,0,0-.01-.01,0,0,0,0,0,0,0,0,0,0,0,0,0,0,0,0,0,0-.04-.04-.09-.08-.12-.12-.01-.02-.03-.03-.04-.05,0,0-.03-.05-.04-.06-.05-.07-.1-.14-.14-.22-.09-.15-.17-.3-.24-.45,0-.02-.02-.04-.02-.05,0,0-.02-.05-.03-.06,0-.02-.03-.07-.03-.09-.03-.08-.06-.16-.08-.25-.02-.07-.03-.15-.05-.22,0,.01,0,.01,0,.02,0,0,0-.02,0-.03,0-.01,0-.03,0-.05,0,.01,0,.03-.01.06.02-.12,0-.25-.07-.34-.29-1.17-1.29-2.15-2.49-2.36-.02,0-.03,0-.05,0-.02,0-.04-.01-.06-.01-.34-.02-.67,0-1,.09.07-.07.13-.14.2-.22.21-.27.4-.6.5-.95.33.12.69.15,1.03.05.47-.14.86-.5,1.09-.94.3-.56.34-1.21.36-1.83,0-.22-.19-.4-.4-.4-.23,0-.4.19-.4.4-.02.52-.05,1.08-.29,1.5-.1.17-.23.32-.4.42-.15.09-.34.12-.5.1-.43-.07-.75-.4-.89-.78-.19-.51-.14-1.05,0-1.58.05-.21-.07-.44-.28-.5-.21-.06-.44.07-.5.28-.23.94-.22,2.04.46,2.78,0,.16-.02.27-.09.45-.06.15-.16.33-.27.48-.24.32-.46.47-.85.46-.94-.01-1.53-.92-1.61-1.78-.02-.22-.17-.4-.4-.4-.2,0-.43.19-.4.4.07.66.28,1.28.72,1.78.42.49,1.06.8,1.7.8.04,0,.09,0,.13,0-.38.28-.71.64-.92,1.07-.19.39-.3.8-.32,1.21-.22.41-.55.76-.88,1.08-.29.28-.71.46-1.09.31-.88-.36-.83-1.6-.79-2.4.01-.22-.19-.4-.4-.4-.23,0-.39.19-.4.4-.03.67-.05,1.36.21,1.99.22.53.62.99,1.18,1.19.6.22,1.24,0,1.72-.38.23-.18.42-.41.61-.63,0,0,0,0,0,0,.13.36.32.7.59,1,.26.29.58.5.92.65-.01.03-.02.07-.03.11-.12,1.03-.55,2.5-1.79,2.61-.55.05-.98-.25-1.21-.73-.26-.54-.2-1.19-.11-1.77.04-.22-.06-.43-.28-.5-.13-.04-.3.01-.4.11-.09.05-.17.13-.18.24-.1.6-.24,1.23-.62,1.72-.3.4-.82.71-1.33.64-.47-.06-.81-.47-.96-.89-.23-.65-.13-1.35-.04-2.02.03-.22-.21-.4-.4-.4-.24,0-.38.19-.4.4-.15,1.17-.19,2.55.85,3.35,1,.77,2.35.25,3.02-.69.02-.03.04-.06.05-.09.18.5.5.96.97,1.21,1.14.61,2.44-.07,3.05-1.1.36-.6.5-1.29.59-1.97.21.03.43.04.65.03-.05.43-.07.87-.04,1.31.05.59.26,1.13.7,1.54.47.44,1.1.65,1.73.49.59-.15,1.09-.59,1.39-1.11.04-.07.07-.13.1-.2.04.06.07.12.11.17.2.27.46.48.76.63.68.33,1.37.2,1.95-.26.32-.25.58-.55.81-.88.44.78,1.14,1.4,2.07,1.48.41.04.81-.11,1.17-.28.23-.11.46-.24.65-.41.16.23.33.46.48.69.13.2.24.42.34.63.08.16.16.35.14.53-.03.28-.3.56-.57.72-.32.18-.69.21-1.03.09-.3-.11-.59-.36-.71-.66-.2-.48-.87-.3-.78.21.04.27-.12.55-.32.72-.24.2-.57.25-.87.2-.74-.12-1.24-.73-1.6-1.35-.2-.35-.75-.19-.75.2-.01.73-.66,1.4-1.4,1.41-.74,0-1.39-.67-1.41-1.4-.01-.52-.81-.52-.81,0,0,.71-.54,1.39-1.24,1.56-.01,0-.03,0-.04,0-.03,0-.06.01-.09.02-.06,0-.12.02-.18.02-.83.01-1.58-.72-1.6-1.54,0-.2-.15-.37-.35-.4-.18-.02-.41.09-.44.29-.14.89-.82,1.9-1.85,1.69-.86-.17-1.27-1.16-1.57-1.88-.14-.35-.66-.41-.78,0-.25.84-.82,1.69-1.75,1.83-.4.06-.81-.04-1.1-.32-.26-.26-.39-.63-.3-.98.14-.51-.6-.7-.78-.21-.31.83-1.21,1.37-2.06,1.01Zm14.05-7.87s.02,0,.03,0c-.14.49-.46.93-.94,1.2-.22.12-.46.22-.71.28-.02-.49-.04-.99-.06-1.48.56.01,1.12.02,1.68.01Zm-1.71-.82c-.03-.66-.05-1.32-.08-1.98.84.18,1.59.82,1.83,1.66.03.12.05.23.07.35-.03,0-.07-.02-.11-.02-.57,0-1.14,0-1.71-.01Zm-.78.78c.02.51.04,1.01.06,1.52,0,.02,0,.03.01.05-.41-.03-.81-.16-1.14-.43-.4-.33-.65-.77-.74-1.25.6.05,1.21.09,1.81.12Zm-1.81-.93c.02-.1.05-.21.08-.31.25-.75.89-1.26,1.62-1.45.03.62.05,1.25.08,1.87-.59-.03-1.19-.07-1.78-.12Zm9.46,23.09s0,0,0,0c0-.01,0-.02,0-.03,0,0,0,0,0,0,0-.02,0-.04,0-.07-.02-.41-.01-.83-.01-1.24,0-.03,0-.05,0-.08.19,0,.37,0,.56,0,.35,0,.71,0,1.06,0,.02.47.03.94.05,1.42-.37,0-.74,0-1.11,0-.1,0-.21,0-.31,0-.05,0-.1,0-.15,0-.02,0-.04,0-.06,0-.01,0-.02,0-.02,0Zm.01.03s0,0,0,0c0,0,0,0,0,0,0,0,0,0,0,0Zm-.04-.04s0,0,0,0c-.04,0,0,0,0,0Zm-3.41-12.93c.24,0,.47,0,.71,0,.01,0,.1,0,.15,0,0,.02,0,.04,0,.05.05.4.09.81.13,1.21-.87.02-1.75.03-2.62.05-.23,0-.45,0-.68.01-.1,0-.2,0-.3,0,0-.07-.03-.18-.04-.23-.01-.12-.02-.23-.03-.35-.02-.23-.05-.47-.07-.7,0-.03-.01-.05-.02-.08.92,0,1.84.01,2.76.02Zm-1.46-.82c.09-.1.17-.21.24-.32.08.12.18.23.28.33-.17,0-.35,0-.52,0Zm-12.21,9.61c.97-.73,1.89-1.51,2.76-2.35.16-.15.15-.42,0-.57s-.41-.15-.57,0c-.71.68-1.45,1.33-2.22,1.94,0-.19-.01-.37-.02-.56,0-.28-.02-.56-.03-.84.37-.32.75-.65,1.12-.97.07-.06.12-.19.12-.29s-.04-.22-.12-.29c-.08-.07-.18-.12-.29-.12-.11,0-.2.05-.29.12-.2.17-.39.34-.59.51-.01-.36-.02-.71-.03-1.07,0,0,.02,0,.02-.01.77-.54,1.49-1.16,2.13-1.85.14-.15.16-.42,0-.57-.16-.14-.42-.16-.57,0-.31.33-.63.64-.97.93-.16.14-.33.28-.5.42-.02.02-.04.03-.06.05,0,0,0,0-.02.01-.02.02-.05.03-.07.05-.01-.33-.02-.67-.03-1,0,0,.02-.01.02-.02.21-.18.41-.35.62-.53.04-.04.07-.08.08-.13.03-.05.04-.1.03-.16,0-.1-.04-.22-.12-.29-.08-.07-.18-.12-.29-.12-.04,0-.07,0-.11.01-.07.02-.13.05-.18.1-.03.03-.07.06-.1.09-.02-.68-.04-1.36-.06-2.04,0-.01,0-.02,0-.03.14-.09.27-.2.39-.32.08.16.18.32.3.46.4.47,1.03.69,1.64.65,1.02-.07,1.78-.71,2.26-1.54.4.77.97,1.45,1.87,1.58.98.14,1.81-.4,2.29-1.18.37.58.98,1.02,1.68,1.12,0,.02,0,.04,0,.06.03.26.05.52.08.78.03.26.02.54.1.79.18.58.78.53,1.27.52,1.1-.02,2.19-.04,3.29-.06.11,0,.18-.04.25-.1,0,0,0,0,0,0,.2,0,.43-.19.4-.4-.06-.57-.11-1.14-.19-1.7-.02-.12-.05-.23-.11-.32.42-.23.77-.59.99-1.02.49.57,1.13,1,1.93,1.03.1,0,.2,0,.3-.02.03,3.72.11,7.44.24,11.16-.36,0-.72,0-1.08,0-.25,0-.52-.02-.77.02-.33.05-.51.32-.54.63-.02.23,0,.47,0,.7,0,.24,0,.49,0,.73,0,.26.05.52.23.72.19.2.45.25.71.25.52,0,1.04,0,1.57,0,.12,2.89.28,5.79.47,8.68-.1-.06-.2-.12-.3-.18-.05-.03-.1-.05-.15-.05-.05-.01-.11,0-.16,0-.05.01-.1.04-.14.07-.04.03-.08.07-.1.11-.05.09-.07.21-.04.31.03.1.09.18.19.24.17.11.35.21.52.32.05.03.1.05.15.05.03,0,.06,0,.09,0,.03.51.07,1.02.11,1.53-.23-.13-.45-.26-.68-.39-.09-.05-.21-.07-.31-.04-.09.03-.2.1-.24.19-.1.19-.05.44.14.55.34.19.67.39,1.01.58.04.03.1.04.15.05.04.5.07.99.11,1.49,0,.02,0,.04,0,.07-.66-.4-1.31-.8-1.97-1.2-.18-.11-.45-.05-.55.14-.1.2-.05.44.14.55.79.48,1.59.97,2.38,1.45.02.01.05.02.08.03.03.39.06.77.1,1.16-.41-.28-.85-.5-1.31-.66-.2-.07-.45.08-.5.28-.05.22.07.43.28.5.08.03.16.06.24.09.02,0,.04.01.06.02,0,0,.01,0,.02,0,.01,0,.03.01.03.02.02,0,.04.02.06.02.16.07.31.15.45.24.14.09.28.18.41.28,0,0,.02.01.02.02.02.02.02.01-.02-.02.01,0,.04.03.05.04.03.03.06.05.09.08.07.06.14.12.2.18.03.39.07.78.1,1.18-.25-.19-.49-.37-.74-.56-.08-.06-.22-.07-.31-.04-.09.03-.2.1-.24.19-.05.09-.07.21-.04.31.03.11.1.17.19.24.41.31.83.62,1.24.93,0,0,0,0,0,0,.03.29.05.58.08.87-.37-.26-.74-.51-1.1-.77-.17-.12-.46-.04-.55.14-.11.21-.04.42.14.55.48.34.97.68,1.45,1.02.04.03.1.05.15.05,0,.1.02.19.03.29-1.4.13-2.8.23-4.19.32-.34-2.41-.68-4.82-1.02-7.22-.17-1.19-.3-2.39-.52-3.58-.19-1.02-.53-2.04-1.25-2.81-.76-.82-1.81-1.09-2.89-1.06-1.05.03-2.16.21-2.97.93-.73.64-1.06,1.62-1.27,2.54-.26,1.15-.42,2.33-.52,3.51-.23,2.66-.11,5.34.01,8.01,0,0,0,0,0,0-.7,0-1.4,0-2.11-.02-.9-.01-1.8-.04-2.7-.07-.05-1.59-.1-3.17-.15-4.76.55.01,1.09.02,1.64.04.27,0,.58.05.84-.01.33-.08.49-.35.5-.67.02-.28,0-.56,0-.84,0-.27.02-.55,0-.82-.03-.31-.18-.59-.5-.67-.26-.07-.57-.03-.84-.03-.58,0-1.16,0-1.73,0-.04-1.35-.09-2.71-.13-4.06.01-.02.02-.03.04-.05.18-.23.38-.43.61-.61.06-.04.11-.08.17-.12.09-.06.16-.14.19-.24.03-.1.01-.23-.04-.31-.06-.09-.14-.16-.24-.19-.1-.02-.22-.02-.31.04-.16.1-.3.22-.45.34-.01-.35-.02-.69-.03-1.04,0-.01.02-.02.02-.03.26-.33.56-.64.89-.9.08-.06.12-.19.12-.29,0-.1-.04-.22-.12-.29-.08-.07-.18-.12-.29-.12-.04,0-.07,0-.11.01-.07.02-.13.05-.18.1-.13.11-.26.22-.38.34-.02-.49-.03-.97-.05-1.46,0,0,.02-.01.03-.02.34-.3.67-.59,1.01-.89.07-.07.12-.19.12-.29s-.04-.22-.12-.29c-.08-.07-.18-.12-.29-.12-.11,0-.2.04-.29.12-.17.15-.33.29-.5.44-.02-.54-.03-1.08-.05-1.62.58-.54,1.17-1.09,1.75-1.63.16-.14.16-.43,0-.57-.17-.15-.41-.15-.57,0-.41.38-.81.75-1.22,1.13-.02-.58-.04-1.17-.06-1.75.52-.48,1.04-.96,1.56-1.43.16-.14.16-.43,0-.57-.17-.15-.41-.15-.57,0-.34.31-.68.63-1.02.94-.01-.41-.03-.82-.04-1.23.51-.41,1.02-.81,1.52-1.22.08-.06.12-.19.12-.29,0-.1-.04-.22-.12-.29-.08-.07-.18-.12-.29-.12-.11,0-.2.05-.29.12-.33.26-.66.52-.98.79-.01-.44-.03-.88-.04-1.32Zm16.97,2.72s0,0,0,0c0,0,0,0,0,0,0,0,0,0,0,0,0,0,0,0,0,0Zm-4.22,15.62c-.12,0-.21.05-.27.11-.05-.87-.11-1.74-.16-2.61-.06-.96-.12-1.91-.18-2.87.11.06.21.13.31.21.72.62,1.06,1.52,1.26,2.43.24,1.11.35,2.26.51,3.39.36,2.51.71,5.03,1.07,7.54-.74.04-1.48.08-2.22.11-.02,0-.04,0-.05,0-.16-2.53-.32-5.06-.48-7.6.06.05.14.08.23.08.52,0,.52-.81,0-.81Zm-.75,5.42c.06.98.12,1.95.19,2.93-.89.03-1.78.06-2.67.08-.16-3.62-.31-7.23-.47-10.85-.04-1.02-.09-2.05-.14-3.07.26-.08.53-.14.8-.17.52-.06,1.09-.09,1.62.02,0,.03-.02.07-.01.11.24,3.65.46,7.31.69,10.97Zm-5.65-3.77c.05-1.11.16-2.22.34-3.32.16-.93.32-1.95.82-2.78.16-.27.37-.48.6-.65.1,2.25.2,4.5.3,6.75-.09-.35-.34-.66-.67-.83-.01,0-.03,0-.04-.01-.02,0-.03-.02-.05-.03-.26-.08-.55-.02-.75.16-.15.13-.23.31-.31.49-.1.23-.19.46-.17.71.01.23.11.45.28.62.32.31.78.38,1.17.18.3-.15.51-.47.57-.8.04,1.02.09,2.03.13,3.05-.05-.02-.11-.04-.18-.04-.52,0-.52.81,0,.81.08,0,.15-.03.21-.06.04.85.07,1.7.11,2.55-.75.01-1.51.02-2.26.02,0,0,0,0,0,0-.1-2.27-.2-4.54-.09-6.81Zm1.17.54s0,0,.02,0c0,0-.02,0-.02.02,0,0,0,0-.01.01-.02.01-.02.01-.02,0-.01,0-.02.01-.04.02,0,0,0,0,0,0,0,0,0,0,0,0,0,0,0,0,0,0,0,0,0,0-.02,0,0,0,0,0,0,0,0,0-.01,0-.02,0,0,0,0,0,0,0,0,0,0,0,.01,0,0,0-.01,0-.02,0-.01,0-.02,0-.03,0,0,0,0,0-.01,0,.01,0,0,0-.02,0,0,0,0,0-.01,0,0,0-.02,0-.03,0,0,0,0,0,0,0,.01,0,.02,0,.03,0-.01,0-.02-.01-.04-.02,0,0,0,0,0,0-.01-.01-.03-.03-.04-.04,0,0,0-.01-.01-.02,0-.01,0-.02,0-.03,0-.01,0-.03,0-.04,0-.02,0-.04,0-.04,0-.04.02-.08.03-.12.01-.04.03-.08.05-.12,0-.02.01-.03.02-.05.03-.06.06-.11.09-.17,0,0,.02.02.04.03.01.01.03.03.04.03.02.02.04.04.06.07,0,0,0,.01.01.02.02.02.03.05.04.07,0,0,0,0,0,.01,0,.03.02.06.03.09,0,0,0,0,0,.01,0,.02,0,.05,0,.07,0,0,0,0,0,.01,0,.03-.01.06-.02.08,0,0,0,0,0,0-.01.03-.03.05-.04.08,0,0,0,0,0,0-.02.02-.03.03-.05.05Zm-.12.05s0,0,0,0c0,0,0,0,0,0t0,0Zm-.11-.03h0s0,0,0,0t0,0Zm-.07-.1s0,0,0,0c0,.03,0,.04,0,0Zm.08-.31s0,0,0-.01c0,.02-.03.06,0,.01Zm.11-.24s0,0,0,0c0,0,0,0,0,0,0,0,0,0,0,0Zm.01,0s0,0,0,0c0,0,0,0,0,0,0,0,0,0,0,0Zm0,0s0,0,0,0c0,0,0,0,0,0,0,0,0,0,0,0,0,0,0,0,0,0,0,0,0,0,0,0Zm0,0s0,0,0,0c0,0,0,0,0,0,0,0,0,0,0,0,0,0,0,0,0,0Zm-.21.53s0,0,0,0c0,0,0,0,0,0h0Zm-4.36.77c-.21,0-.41,0-.62-.01-.53-.01-1.05-.02-1.58-.04-.01-.46-.03-.92-.04-1.38.4,0,.79,0,1.19,0,.24,0,.48,0,.72,0,.11,0,.23,0,.34,0,0,.04,0,.07,0,.11,0,.12,0,.25,0,.37,0,.25,0,.5,0,.75,0,.07,0,.14,0,.2Zm0,.12h0s0,.01,0,0Zm4.73,6.3c3.17-.03,6.34-.16,9.5-.38,1.6-.11,3.19-.25,4.79-.41.06.6.16,1.2.3,1.79-2.66.14-5.33.28-7.99.41-4.18.2-8.36.39-12.54.56-.85.04-1.7.07-2.55.1-.03-.74-.04-1.49-.07-2.23,2.85.13,5.7.18,8.55.16Zm-13.17-.14c.1-.23.22-.39.42-.2.19.17.07.49-.06.67-.13.17-.31.3-.51.4-.02,0-.03.01-.05.02.01-.3.07-.61.19-.89Zm-.5,1.83c.1.02.2,0,.3-.04.14-.07.28-.14.42-.21.2-.08.41-.14.62-.09.17.04.43.25.24.41-.21.18-.67.11-.91.08-.23-.03-.45-.08-.67-.15Zm21.54,2.47c-4.78.11-9.57.23-14.35.36-2.04.06-4.08.12-6.12.18,0-.02,0-.03,0-.04v-1.61c4.06-.15,8.12-.32,12.18-.5,4.18-.19,8.36-.39,12.53-.6,2.27-.12,4.55-.24,6.82-.36.07.79.2,1.58.39,2.35-3.82.07-7.64.14-11.46.23Zm11.9-2.29c-.01-.1-.02-.21-.03-.31h.24c-.1.07-.17.18-.21.31Zm.75.31s-.05,0,0,0h0Zm.59.69c-.16-.07-.31-.19-.42-.33-.08-.11-.12-.25-.16-.36,0,0,0,0,.01,0,.07,0,.15,0,.23.01.15.02.31.07.45.14.02.01.05.03.07.04.14.19.29.36.45.52-.21.06-.43.06-.63-.03Zm1.26-.63c-.14-.17-.3-.31-.48-.43-.11-.16-.21-.32-.28-.5-.13-.3-.21-.91.23-1.02.44-.11.63.59.68.89.02.09.02.18.03.26-.09.26-.14.52-.18.79Zm.29-2.47c-.28-.24-.64-.36-1.04-.25-.58.16-.88.69-.92,1.24h-1.68s-.07.01-.1.02c-.22.01-.44.02-.67.04-.05-.54-.09-1.09-.14-1.63,1.04-.11,2.08-.19,3.13-.22.29,0,.59-.01.88-.02.14,0,.4-.06.48.09.09.15.05.39.04.55,0,.07,0,.13,0,.19Zm1.69,3.4c-.1.13-.49,0-.61-.03-.14-.04-.28-.1-.42-.17.01,0,.02,0,.03,0,.25-.07.57-.17.83-.06.09.03.25.16.17.26Zm-1-1.08c.02-.18.02-.37.02-.55.09-.21.2-.42.34-.6.08-.11.21-.31.34-.37,0,.01.01.03.02.06.02.08.02.17.02.26,0,.17-.05.35-.12.51-.13.29-.35.54-.62.69Zm1.54-1.04s0,0,0,0c0-.02,0-.03,0-.05.04,0,.08,0,.12-.02-.04.02-.08.04-.11.06Zm.15-1.88c-.29.18-.43.46-.49.76-.03-.03-.06-.06-.1-.08-.34-.2-.66-.09-.94.12-.08-.2-.02-.47-.03-.68,0-.26-.06-.53-.2-.74-.38-.55-1.12-.42-1.7-.41-1.29.03-2.57.12-3.85.27-.01,0-.02,0-.03,0-.1,0-.21.05-.29.12-.02.02-.03.03-.05.05,0,0,0,0,0,.01-.05.06-.08.14-.08.23,0,.05.01.11.04.16.05.63.1,1.25.16,1.88-.68.04-1.36.07-2.04.11-.09-.34-.17-.68-.22-1.03-.04-.21-.05-.33-.07-.51-.02-.19-.04-.38-.05-.58-.01-.19-.16-.38-.36-.4-.06-.05-.14-.07-.22-.06-.34.03-.67.06-1.01.1-.44-4.58-.81-9.17-1.1-13.77-.2-3.3-.36-6.6-.48-9.9,0-.03.02-.07.02-.1,0-.04-.01-.08-.03-.12-.03-.93-.06-1.87-.09-2.8,1.37.89,2.75,1.78,4.12,2.67-.03,0-.06,0-.08,0-.37-.02-.76-.07-1.13-.04-.4.03-.71.27-.78.68-.06.36-.01.76,0,1.13,0,.37-.02.81.35,1.03.32.19.73.1,1.08.07.79-.06,1.58-.13,2.37-.19.24-.02.47-.04.71-.06.22-.02.44-.02.63-.16.1-.07.17-.18.2-.29,1.5.98,3.01,1.95,4.51,2.93.7.46,1.41.91,2.11,1.37-.06.06-.1.15-.1.28.28,5.13.56,10.26.84,15.4.07,1.3.14,2.59.21,3.89-.13,0-.26.01-.39.03.06-.35.03-.71-.14-1.04-.25-.48-.84-.6-1.28-.32Zm.39.72s.06-.05.08-.06c.02,0,.03,0,.04-.01.05.02.07.06.09.13.08.26.04.6-.13.83-.11.04-.22.09-.33.14.07-.06.12-.16.12-.29,0-.22-.04-.56.13-.73Zm1.39,3s-.04.01-.06.02c-.02,0-.04.01-.06.02-.04,0-.09.01-.13.02-.22.01-.45-.04-.65-.13-.35-.15-.64-.43-.81-.76.31.08.63.12.94.15,0,0,.01,0,.02,0,.19.07.35.14.53.24.02.01.04.03.07.04-.02-.01.09.07.1.09.05.06.13.14.12.22,0,.04-.02.05-.07.07Zm.18-1.49c-.15.03-.26.04-.44.04-.12,0-.24-.02-.36-.03.2-.05.41-.09.62-.1.09,0,.22-.01.28,0,0,0,.01,0,.02,0,.02.01.05.02.07.03-.06.03-.12.05-.19.07Zm12.01-6.35s0,0,0,0c0-.02,0-.02,0,0Zm-11.43,7.29c-.04-.08-.1-.16-.15-.23.03-.01.06-.02.09-.04.03.13.07.25.11.38-.01-.04-.02-.08-.04-.12Zm.72-.46s0,.01,0,.02c-.05-.2-.09-.4-.1-.6,0-.07,0-.13,0-.2,0-.01,0-.09,0-.11,0-.03.01-.06.02-.09,0,.01.02.02.02.03,0,.01.03.1.04.13.01.06.02.12.03.17,0,.02,0,.05,0,.06,0,.07,0,.14,0,.21,0,.12,0,.24-.02.36Zm1.51-.04c-.04.21-.1.34-.19.51-.16.28-.4.51-.68.66.06-.25.1-.51.13-.76,0-.06.02-.13.02-.19,0,0,0-.01,0-.02.01-.04.03-.08.04-.11,0-.02.02-.05.03-.07,0,0,.01-.03.02-.04,0-.01.02-.03.02-.04,0-.02.02-.03.02-.05.02-.04.04-.07.05-.11.03-.07.08-.13.11-.19.01-.01.03-.03.03-.04.03-.03.06-.07.1-.1.02-.02.05-.04.09-.06,0,0,.07-.03.03-.01,0,0,.02,0,.03-.01,0,0,.02,0,.03,0,0,0,.02,0,.03,0,0,0,0,0,0,0,0,0,0,0,0,0-.03,0,0,0,.02.01,0,0,0,0,0,.01,0,0,0,0,.01.02,0,.01.02.04.02.04,0,0,0,0,0,.01,0,.02.01.04.02.06.04.14.03.33,0,.47Zm8.93.25s0,0,0,0c0,0,0,0,0,0,0,0,0,0,0,0Zm.2-3.25s-.03.05-.05.08c-.02.02-.04.04-.05.05-.04.02-.07.05-.11.06-.02,0-.04.02-.05.03-.24-.09-.51-.13-.77-.13-.21,0-.41.18-.4.4,0,.21.18.41.4.4.06,0,.13,0,.19,0,.03,0,.14.03.03,0,.03,0,.05,0,.08.01.06.01.12.03.18.05,0,0,.02,0,.03.01,0,0,0,0,0,0,.02.01.05.02.07.04,0,0,.05.03.07.05,0,0,0,0,.01.01.02.02.05.05.07.07h0s.04.09.07.13c0,0,0,.02,0,.02,0,.02,0,.04.01.06,0,0,0,0,0,0,0,.01,0,.03,0,.04,0,.01,0,.03,0,.04,0,0,0,.02,0,.03,0,.02-.02.04-.03.05,0,0,0,.01-.01.02-.02.02-.03.04-.05.05,0,0-.02.02-.03.02-.04.03-.1.08-.14.08.01,0,.03-.01.04-.02-.02,0-.04.01-.05.02-.04.01-.07.02-.11.03,0,0-.02,0-.03,0,0,0,0,0,0,0-.02,0-.05,0-.07,0-.02,0-.04,0-.07,0-.02,0-.03-.01-.05-.02-.17-.05-.36.03-.45.18,0-.18-.05-.36-.16-.52-.06-.09-.13-.16-.24-.19-.1-.03-.23-.01-.31.04-.09.06-.16.14-.19.24-.02.1-.02.22.04.31.01.02.03.04.04.07,0,.02.01.04.02.06,0,.02,0,.04,0,.06,0,.02,0,.04-.02.06,0,.01-.01.02-.02.04,0,.01-.02.02-.03.03-.02.01-.04.03-.06.04-.02,0-.04.01-.06.01-.01,0-.03,0-.04,0-.02,0-.03,0-.05-.01-.02,0-.03-.02-.05-.03-.02-.02-.03-.03-.05-.05-.02-.03-.03-.05-.05-.08,0,.01,0,.02.01.03-.04-.09-.09-.17-.18-.22-.09-.05-.21-.07-.31-.04-.2.06-.36.28-.28.5.08.23.22.41.42.55.17.12.4.18.6.16.25-.02.46-.11.65-.27.13-.11.23-.28.28-.45.05.17.19.29.38.3,0,0,.01,0,.02,0,.06.01.13.06.18.1.03.02.05.03.08.05.02.01.03.02.05.03.04.03.03.02,0,0,.01,0,.06.05.07.06.03.03.06.05.09.08.02.02.04.04.06.07,0,0,.02.03.04.04,0,.01.04.06.05.07.02.03.03.05.05.08,0,.02.02.03.02.05,0,0,0,0,0,0,0,.01.01.03.02.05,0,0,0,0,0,.02,0,0,0,0,0,0,0,0-.02,0-.03,0,0,0-.01,0-.02,0-.15,0-.29,0-.44-.02-.04,0-.09,0-.13-.01-.01,0-.05,0-.06,0-.09-.01-.17-.03-.26-.04-.14-.03-.29-.06-.43-.1-.01,0-.03-.02-.04-.02-.18-.11-.45-.05-.55.14-.1.19-.05.41.12.53.03.03.07.06.12.08.05.03.09.06.14.08.04.03.08.05.11.08,0,0,.05.04.05.05.03.03.06.06.09.09,0,0,.04.05.04.06,0,.01.02.03.02.04,0,0,0,0,0,0,0,.02,0,.04.01.06,0-.03,0,.04,0,.07,0,0,0,.01,0,.02,0,0,0,0,0,0,0,0,0,0,0,0,0,0,0,0,0,0,0,0,0,0,0,0,0,0,0,.02-.01.03,0-.01.01-.02.01-.02,0,0,0,0,0,0,0,0-.06.03-.05.03-.01,0-.05.01-.07.02,0,0-.08,0-.09,0-.04,0-.08,0-.12,0-.01,0-.06,0-.07-.01-.05-.01-.1-.02-.15-.04-.04-.01-.08-.02-.11-.04.06.02-.07-.03-.08-.04-.08-.04-.16-.09-.24-.15,0,0-.02-.01-.02-.01,0,0-.01-.01-.02-.02-.04-.04-.08-.07-.12-.11-.25-.24-.42-.54-.59-.89-.09-.19-.38-.26-.55-.14-.2.13-.24.35-.14.55.07.14.15.28.23.42-.17.29-.48.49-.83.46-.37-.03-.67-.32-.76-.68-.08-.2-.27-.34-.5-.28-.21.06-.34.28-.28.5.05.13,0,.26-.18.28-.18.02-.33-.07-.46-.19.02-.06.04-.12.05-.18.05-.2-.07-.45-.28-.5-.21-.05-.44.06-.5.28-.04.14-.08.27-.12.41,0,0,0,0,0,0,0,.01,0,.02-.01.03-.02.03-.03.07-.05.1-.01.02-.03.04-.04.07,0,0-.01.02-.02.02-.02.02-.04.04-.07.06,0,0-.02.01-.03.02-.01,0-.04.02-.05.03-.01,0-.02,0-.03.01,0,0-.01,0-.02,0,0,0-.02,0-.03,0-.01,0-.03,0-.04,0,0,0,0,0,0,0-.01,0-.02-.01-.03-.02,0,0-.02-.02-.03-.02,0,0-.02-.02-.03-.03-.01-.02-.02-.03-.03-.05-.01-.02-.02-.05-.03-.07,0,0,0,0,0,0,0-.03-.02-.06-.02-.09,0,0,0-.01,0-.02,0-.07,0-.14,0-.21,0,0,0,0,0,0,0-.01,0-.02,0-.03,0-.04.02-.08.03-.12.04-.15.09-.29.14-.44.07-.2-.08-.45-.28-.5-.03,0-.05,0-.08,0,0-.11,0-.23-.03-.34-.05-.29-.21-.59-.46-.74-.29-.18-.65-.15-.94,0-.08.04-.15.09-.21.15-.04-.11-.1-.22-.18-.32-.2-.23-.52-.37-.83-.28-.14.04-.25.11-.34.2-.13-2.42-.26-4.84-.39-7.27.02,0,.05-.01.07-.02.02,0,.05,0,.07,0,.04,0,.07.02.11.03.02,0,.03.02.05.03.01,0,.02.02.03.03.02.02.04.04.06.07,0,0,0,0,0,0,.02.02.03.05.05.07.02.04.04.08.06.12.08.22.12.45.15.68,0-.03,0-.05-.01-.08,0,.05.01.09.03.13-.22.29-.28.65-.2,1,.09.39.36.71.62,1,.14.16.43.15.57,0,.16-.17.15-.4,0-.57-.04-.05-.09-.1-.13-.15-.02-.02-.03-.04-.05-.06,0,0,0,0,0,0,0-.02-.02-.03-.03-.04-.04-.05-.07-.11-.11-.16-.01-.02-.03-.05-.04-.07,0-.02-.02-.03-.02-.05,0-.02-.01-.02-.01-.02-.01-.04-.02-.1-.03-.12,0-.03,0-.06,0-.08,0-.01,0-.04,0-.06,0-.01,0-.02,0-.02,0-.02.01-.04.02-.06,0,0,0-.01,0-.02,0,0,0-.01.02-.02.01-.01.02-.03.03-.03,0,0,.01,0,.02-.01.02,0,.03-.01.05-.02,0,0,0,0,0,0,.02,0,.03,0,.05,0,0,0,.02,0,.03,0,.04.01.09.02.14.03.03.01.05.03.08.04,0,0,.03.02.04.03.01,0,.02.02.03.02.02.02.04.04.06.06.01.01.02.03.03.04.04.05-.01-.02-.01-.02.02,0,.1.16.11.18.03.06.06.12.09.18,0,.01.01.03.02.04.01.03.02.06.03.09.03.07.05.14.07.21.07.2.28.35.5.28.2-.06.35-.28.28-.5-.1-.3-.21-.62-.4-.88-.21-.28-.49-.52-.84-.59-.09-.02-.18-.02-.28-.02-.04-.23-.09-.46-.17-.67,0,0,0-.02.01-.03.03-.06.05-.12.09-.18.03-.06.07-.12.11-.18,0,0,0,0,0-.01,0,0,0,0,.01-.01.02-.03.05-.05.07-.07,0,0,.04-.04.05-.04.02-.01.04-.03.06-.04,0,0,.05-.03.06-.03.02,0,.05-.02.07-.02.02,0,.12-.01.03,0,.03,0,.07,0,.1,0,.01,0,.06,0,.06,0,.02,0,.05,0,.07.01.03,0,.07.02.1.03.01,0,.01,0,.02,0,0,0,0,0,.02.01.06.03.11.06.17.1.01,0,.03.03.04.04.03.02.05.05.08.08.01.01.02.01.02.02,0,0,0,0,.01.02.02.03.04.06.06.1.02.03.04.07.05.1,0,0,.02.05.03.06.02.06.04.12.06.18.02.07.04.15.05.22,0,.01,0,.02,0,.04,0,0,0,0,0,0,0,.04,0,.09.01.13.01.21.18.41.4.4.21,0,.42-.18.4-.4-.02-.34-.11-.7-.26-1.01,0-.01.02-.03.03-.04,0,0,0,0,0-.01,0,0,0,0,0,0,.02-.02.04-.04.05-.06,0,0,.02-.02.04-.04.01,0,.04-.03.04-.03.03-.02.05-.03.08-.05.01,0,.04-.02.05-.02.05-.02.1-.03.16-.04,0,0,0,0,0,0,0,0,0,0,0,0,.03,0,.07,0,.1,0,.02,0,.04,0,.05,0,0,0,.05,0,.06.01.03,0,.07.02.1.03,0,0,.05.02.06.02.05.02.1.05.14.08,0,0,.05.04.06.05.01.01.03.03.04.03.03.02.05.05.07.07.01.03.03.05.05.07.03.05.07.1.09.15,0,0,.02.04.03.05,0,.02.02.06.03.07.02.06.04.13.05.2,0,.01.01.13,0,.04,0,.04,0,.07,0,.11,0,.02,0,.04,0,.06-.02,0-.04,0-.06,0-.35.05-.65.29-.82.58-.21.35-.23.77-.23,1.17,0,.21.19.41.4.4.22,0,.4-.18.4-.4,0-.08,0-.17,0-.25,0-.04,0-.08,0-.13,0-.02,0-.03,0-.05,0,0,0,0,0,0,.02-.08.04-.16.06-.24,0-.01,0-.01,0-.02,0,0,0-.01,0-.02.01-.02.03-.05.04-.07,0-.01.02-.03.03-.04,0,0,0,0,0,0,.02-.02.05-.05.05-.05,0,0,.01-.01.02-.02,0,0,.05-.03.08-.04.01,0,.02,0,.04-.01,0,0,0,0,0,0,0,0,.01,0,.02,0,0,0,.01,0,.02,0,.02,0,.08.04.04,0,.01,0,.03.02.04.02,0,0,.01,0,.02.01.02.02.04.04.06.06,0,0,0,.01.01.02.02.03.03.06.05.09,0,0,0,0,0,0,0,0,0,.01,0,.02.01.03.02.06.03.1,0,0,0,.01,0,.02,0,.07.02.16,0,.23.03-.1,0,.03-.01.05,0,.04-.02.09-.03.13-.02.08-.05.17-.09.25,0,0-.02.04-.03.07-.02.04-.03.07-.05.11-.05.1-.07.2-.04.31.03.09.1.2.19.24.17.09.46.06.55-.14.15-.35.3-.7.32-1.08.02-.35-.1-.68-.31-.94-.02-.03-.05-.04-.07-.07.01-.04.03-.08.03-.12.03-.45-.09-.88-.32-1.24,0-.03,0-.07,0-.07.01-.07.03-.15.06-.22.05-.12.12-.23.19-.34.18-.24.35-.35.64-.33.74.05,1.04.82,1,1.46,0,.01,0,.02,0,.04-.09,0-.19.02-.28.05-.25.1-.47.26-.6.51-.15.28-.18.58-.12.89.02.09.11.19.19.24.09.05.21.07.31.04.22-.07.32-.27.28-.48,0,.02,0,.03,0,.05,0-.07,0-.15,0-.22,0-.01,0-.02,0-.03,0-.02.01-.04.02-.06,0,0,0-.02.01-.02,0-.02.02-.03.03-.05,0,0,0-.01.01-.02,0,0,0,0,0,0,.01-.01.02-.03.04-.04,0,0,0,0,.01-.01.01,0,.03-.02.04-.02,0,0,0,0-.02,0,.01,0,.02,0,.03-.01,0,0,0,0,0,0,0,0,0,0,0,0,.03,0,.04-.01.04-.01.01,0,.02,0,.03,0,.03,0,.06,0,.09,0,.01,0,.02,0,.03,0,.01,0,.02.01.03.02,0,0,.02.02.02.02,0,0,.02.02.03.03.02.03.04.06.05.09,0,0,0,0,0-.02,0,.02.02.04.02.06.03.08.04.16.05.25,0,.06.01.12.02.19,0,.11.04.21.12.29.07.07.19.12.29.12.2,0,.42-.18.4-.4-.02-.29-.06-.57-.18-.83-.07-.15-.17-.28-.3-.39.01-.02.03-.03.04-.05.16-.35.34-.71.63-.98.23-.21.58-.36.89-.25.72.26.62,1.23.37,1.78-.03.07-.04.14-.04.21,0,0,0,.01,0,.02-.26-.08-.55-.05-.79.1-.15.1-.28.23-.37.39-.1.17-.14.34-.16.53-.01.1.05.22.12.29.07.07.19.12.29.12.1,0,.21-.04.29-.12.08-.08.1-.17.12-.29-.02.13,0,.02,0-.01,0-.03.01-.05.02-.08,0,0,0,0,0,0,0,0,0,0,0,0,.02-.03.03-.05.05-.08.01-.01.04-.04.06-.05,0,0,0,0,0,0,0,0,.02-.01.03-.02.02,0,.04-.01.06-.02,0,0,0,0,0,0,.01,0,.02,0,.03,0,.01,0,.02,0,.03,0h0s0,0,0,0c0,0,0,0,0,0,.02.02.04.03.05.05,0,0,0,0,0,0,.02.02.03.05.04.07,0,0,0,.02.01.03,0,.02.01.04.02.06,0,.02,0,.06.02.08,0,0,0,0,0,.01,0,.03,0,.07,0,.1,0,0,0,0,0,0,0,.03-.01.06-.02.09,0,0,0,.01,0,.02,0,.01-.02.04-.02.05-.01.03-.03.05-.05.07-.02.02-.04.04-.06.06-.01.01-.03.02-.04.03,0,0-.02.01-.02.02-.03.02-.05.03-.08.04-.19.09-.26.38-.14.55.03.04.06.08.1.1-.4-.07-.79.03-1.17.16-.2.07-.35.28-.28.5.06.2.28.36.5.28.14-.05.27-.09.41-.13.03,0,.07-.02.1-.02,0,0,.02,0,.02,0,.03,0,.06,0,.09,0,.04,0,.08,0,.12,0,.01,0,.03,0,.04,0,.01,0,.02,0,.03,0,.02,0,.05.01.07.02,0,0,0,0,.01,0,.04.02.07.04.1.06,0,0,0,0,0,0,.02.02.03.04.05.05,0,0,0,0,0,0,0,0-.01-.01-.02-.02,0,0,.01.01.02.02,0,0,0,0,0,0,0,.02.01.03.01.05,0,0,0,0,0,0,0,0,0,.02,0,.04,0,0,0,.01,0,.02,0,.01,0,.03-.01.04,0,.01-.01.02-.02.03-.01.02-.03.04-.04.06,0,0,0,0,0,0-.03.03-.06.06-.09.08,0,0-.02.02-.03.02-.02.01-.04.03-.07.04,0,0-.01,0-.02,0-.03.01-.06.02-.09.03-.03,0-.07.02-.1.03-.01,0-.03,0-.04,0,0,0-.01,0-.02,0,0,0,0,0,0,0-.02,0-.05,0-.07,0-.04,0-.07,0-.11,0-.15,0-.3,0-.45-.01-.21-.01-.41.2-.4.4.01.23.18.39.4.4.33.02.67.03,1-.06.33-.09.63-.3.81-.59.09-.14.13-.29.15-.45.04,0,.07-.02.11-.03.03-.01.05-.03.08-.04.01,0,.03-.01.04-.02.04-.02-.03.01-.03.01,0-.01.09-.03.1-.04.03-.01.07-.02.1-.03.03,0,.06-.01.09-.02,0,0,0,0,.01,0,0,0,0,0,0,0,.07,0,.13,0,.2,0,.02,0,.03,0,.05,0,0,0,0,0,0,0,.02,0,.04,0,.05,0,.06.01.11.03.16.05,0,0,0,0,0,0,.02.01.05.02.07.04.03.01.05.03.08.05,0,0,.01,0,.02.01.04.03.07.07.11.1,0,0,0,0,0,0,.01.02.03.04.04.07,0,0,.02.04.03.05,0,.01,0,.03.01.03,0,.03.01.05.02.08,0,0,0,0,0,.01,0-.02,0-.04,0,0,0,0,0,0,0,0,0,0,0,.02,0,.02,0,0,0-.01,0-.02,0,.04,0,.1,0,.14,0,0,0,.01,0,.02,0,.03-.02.06-.03.09,0,0,0,0,0,0-.01.02-.03.04-.04.07-.02.02-.04.04-.05.05,0,0-.01,0-.02.01-.02.01-.04.02-.07.04,0,0,0,0-.01,0-.03,0-.05.01-.08.02,0,0,0,0,0,0-.03,0-.05,0-.08,0,0,0-.01,0-.02,0-.03,0-.12-.05-.01,0-.19-.09-.44-.06-.55.14-.09.18-.06.46.14.55.29.13.6.14.9.03,0,.01.01.02.02.04,0,.03.02.05.02.08,0,.02,0,.05,0,.07,0,.02-.01.05-.02.07Zm-2.27-1.94s0,0,0,0t0,0s0,0,0,0Zm-.3-.16s-.03,0-.03,0c0,0,.02,0,.03,0Zm2.63-1.37s-.02.08-.04.12c0,.01,0,.02-.01.04,0,0,0,0,0,.02-.02.04-.04.07-.06.11-.02.03-.04.06-.06.09,0,0-.05.05-.05.06-.03.03-.06.06-.09.09-.01.01-.02.02-.02.02,0,0-.02.01-.03.02-.03.02-.07.05-.11.07,0,0-.07.03-.09.04-.02,0-.08.02-.08.03-.05.01-.09.02-.14.03-.02,0-.03,0-.05.01-.32,0-.64.07-.93.22-.11-.12-.24-.21-.39-.28.06,0,.12-.02.17-.05.55-.27.82-.93.66-1.51-.02-.09-.06-.17-.1-.26.01,0,.02,0,.04-.01.04-.01.08-.02.12-.03.01,0,.12-.02.11-.02.03,0,.07,0,.1,0,.05,0,.11,0,.16,0,.02,0,.02,0,.03,0,0,0,0,0,.02,0,.09.02.17.04.25.07.01,0,.09.04.1.05.03.02.07.04.1.06.02.01.02.01.03.02.01.01.03.02.04.04.03.03.06.05.08.08.02.02.03.04.05.06-.02-.03-.02-.03,0,0,.02.03.04.06.06.1.02.04.04.08.06.11,0,0,.03.07.03.08.01.04.03.08.04.13,0,.02,0,.05.01.07,0,.09,0,.17,0,.25,0,.02,0,.04-.01.06Z"/>
      <polygon class="cls-1" points="69 64.49 69 64.49 69 64.5 69 64.49"/>
      <path class="cls-1" d="m58.91,62.37s0,0,0,0c-.03-.06-.02-.03,0,0Z"/>
      <path class="cls-1" d="m62.25,66.24c-.23.01-.39.18-.4.4,0,.07-.01.15-.02.22-.01.08-.03.16-.06.23-.02.03-.03.06-.05.09-.01.01-.03.03-.04.04-.02.01-.03.02-.05.03,0,0-.02,0-.03,0,0,0-.01-.02-.02-.03,0-.02-.01-.03-.01-.05,0-.03,0-.06,0-.09.01-.06.03-.12.05-.18.03-.08.07-.15.11-.23.1-.19.05-.45-.14-.55-.19-.1-.45-.05-.55.14-.14.26-.25.52-.28.81-.02.26.08.54.26.73.2.22.53.3.82.21.26-.08.5-.27.62-.51.14-.28.18-.58.2-.89.01-.21-.2-.41-.4-.4Z"/>
      <path class="cls-1" d="m3.87,68.77s0,0-.01,0c0,0,.02,0,.02,0,0,0-.01,0-.01,0Z"/>
      <path class="cls-1" d="m4.21,64.81s0,0,0,0c0,0,0,0-.01,0,0,0,.01,0,.02,0h0Z"/>
      <path class="cls-1" d="m5.78,60.88s.02.02.04.02c0,0,0,0,0,0,.01,0,.01-.02-.04-.03,0,0,0,0,0,0,0,0,0,0,0,0Z"/>
      <path class="cls-1" d="m1.84,65.15c-.52,0-.52.81,0,.81s.52-.81,0-.81Z"/>
      <path class="cls-1" d="m2.13,68.61c-.52,0-.52.81,0,.81s.52-.81,0-.81Z"/>
      <path class="cls-1" d="m3.86,62c.52,0,.52-.81,0-.81s-.52.81,0,.81Z"/>
      <path class="cls-1" d="m31.67,74.13c.52,0,.52-.8,0-.81-2.78-.04-5.57-.08-8.35-.12-.79-.01-1.59-.02-2.38-.03-.52,0-.52.8,0,.81,2.78.04,5.57.08,8.35.12.79.01,1.59.02,2.38.03Z"/>
      <path class="cls-1" d="m33.33,73.32c-.52,0-.52.81,0,.81s.52-.81,0-.81Z"/>
      <path class="cls-1" d="m43.81,72.96c-2.86.05-5.73.22-8.58.5-.22.02-.4.17-.4.4,0,.2.19.43.4.4,2.85-.28,5.71-.45,8.58-.5.52,0,.52-.82,0-.81Z"/>
      <path class="cls-1" d="m36.79,75.19c-3.07-.25-6.16-.31-9.24-.2-.52.02-.52.83,0,.81,3.08-.12,6.17-.05,9.24.2.22.02.4-.2.4-.4,0-.23-.19-.39-.4-.4Z"/>
      <path class="cls-1" d="m38.77,75.13c-.52,0-.52.81,0,.81s.52-.81,0-.81Z"/>
      <path class="cls-1" d="m40.77,37.33c-.09-2.06-.18-4.12-.26-6.19-.02-.52-.83-.52-.81,0,.09,2.06.18,4.12.26,6.19.02.52.83.52.81,0Z"/>
      <path class="cls-1" d="m40.26,38.91c-.52,0-.52.81,0,.81s.52-.81,0-.81Z"/>
      <path class="cls-1" d="m25.6,50.38c.11.2.32.31.53.34.47.08.96.09,1.43.11.48.02.95.03,1.43.03.22,0,.45,0,.67,0,.22,0,.44-.04.6-.21.15-.16.17-.38.19-.59.02-.25.03-.49.04-.74,0-.17.03-.35.04-.54.16-.01.32-.04.46-.06.35-.03.7-.07,1.04-.1.66-.06,1.32-.11,1.98-.19.19-.02.35-.09.45-.27.09-.16.07-.32.06-.48-.03-.28-.05-.57-.08-.85.49-.03.98-.06,1.47-.09.27-.01.4-.24.38-.45.01-.06.01-.12,0-.18-.35-2.27-.69-4.54-1.04-6.81-.17-1.08-.3-2.17-.52-3.25-.2-.97-.54-1.91-1.19-2.66-.58-.66-1.4-1.12-2.29-1.11-.89,0-1.73.45-2.35,1.08-1.46,1.47-1.44,3.65-1.31,5.58.17,2.55.36,5.09.54,7.63.01.17.11.32.27.38.06.08.16.14.3.15.31,0,.62,0,.93,0,0,.22,0,.44-.01.67-.19,0-.38,0-.55,0-1.08,0-2.16.01-3.24.03-.2,0-.32.12-.37.26-.08.07-.13.17-.12.28.04.46.07.92.11,1.38.02.22.01.46.12.66Zm7.81-2.69c-.21.02-.43.04-.64.06-.43.04-.86.08-1.29.12-.21.02-.43.04-.64.06-.11.01-.21.02-.32.03,0,0-.03,0-.06,0,0-.02,0-.04,0-.07,0-.11,0-.21,0-.32,0-.17,0-.34,0-.51,1.06-.04,2.12-.11,3.18-.18.01.15.03.29.04.44,0,.11.03.22.04.33-.1.01-.21.02-.31.03Zm.49-.05s0,0,0,0c.09,0,.08,0,0,0Zm1.58-1.68c-.88.05-1.75.11-2.63.17-.12-1.12-.23-2.23-.35-3.35.82-.04,1.65-.08,2.47-.12.17,1.1.34,2.2.5,3.3Zm-1.05-6.88c.14.93.28,1.86.43,2.78-.81.04-1.62.08-2.43.12-.13-1.25-.26-2.51-.39-3.76.76.02,1.52.05,2.28.1.04.26.07.51.11.76Zm-.82-3.52c.05-.03.11-.06.17-.09.06.18.11.37.15.55.11.49.2.98.27,1.48-.72-.05-1.43-.07-2.15-.09,0-.01,0-.02,0-.03.02-.07.04-.13.07-.19,0-.01,0-.02,0-.02,0,0,0,0,.01-.02.01-.03.03-.06.04-.09.07-.14.15-.27.23-.39.04-.05.07-.1.11-.15,0-.01.04-.05.05-.06.03-.03.05-.06.08-.09.1-.11.2-.22.31-.32.05-.05.11-.1.17-.15,0,0,.05-.04.07-.06.01-.01.05-.04.06-.04.11-.08.23-.16.36-.23Zm-4.57-1.05c.4-.63,1.02-1.16,1.75-1.35.74-.19,1.46.08,2,.59.3.29.52.62.7.99-.55.25-1.04.63-1.44,1.09-.26.31-.49.65-.65,1.01-.5-.96-1.33-1.72-2.35-2.12-.04-.02-.08-.02-.13-.02.03-.06.07-.13.11-.19Zm-.67,2.54c.02-.57.1-1.16.28-1.7.05.06.11.11.2.14,0,0,.12.05.04.02.03.01.07.03.1.05.06.03.12.06.18.09.12.07.25.14.36.22.03.02.05.03.08.05,0,0,.04.03.06.04.01,0,.05.04.05.04.03.02.06.05.08.07.11.09.21.19.31.29.05.05.09.1.14.15.02.03.05.06.07.08,0,0,.03.04.04.05.01.02.04.05.04.06.02.02.04.05.05.08.04.06.08.12.12.19.07.12.13.23.19.36.01.03.02.05.04.08-.81,0-1.62.02-2.43.06,0-.14,0-.27,0-.41Zm.14,3.06c-.04-.61-.1-1.23-.12-1.84.95-.05,1.89-.07,2.84-.06.13,1.27.26,2.55.39,3.82-.99.05-1.98.1-2.96.15-.05-.69-.1-1.37-.15-2.06Zm.44,6.18c-.08-1.1-.16-2.21-.23-3.31,1-.05,1.99-.1,2.99-.15.12,1.12.23,2.24.35,3.36-1.03.06-2.07.11-3.1.1Zm.78,2.26s0-.05,0,0h0Zm-1.55.03c.37,0,.75,0,1.12,0,.11,0,.21,0,.32,0,.02,0,.07.01.11.01,0,.06,0,.13,0,.19-.02.38-.04.75-.07,1.13,0,.02-.01.08-.02.13-.07,0-.16.01-.21.01-.11,0-.21,0-.32,0-.75,0-1.51-.02-2.26-.07-.11,0-.21-.02-.32-.02-.04,0-.16-.03-.23-.03,0,0,0,0,0,0-.01-.1-.02-.21-.02-.31-.03-.34-.05-.67-.08-1.01.66,0,1.32-.02,1.98-.02Z"/>
      <path class="cls-1" d="m38.61,45c.52,0,.52-.81,0-.81s-.52.81,0,.81Z"/>
      <path class="cls-1" d="m38.61,40.09c.52,0,.52-.81,0-.81s-.52.81,0,.81Z"/>
      <path class="cls-1" d="m17.36,43.03c-.52,0-.52.81,0,.81s.52-.81,0-.81Z"/>
      <path class="cls-1" d="m49.87,44.52c-.52,0-.52.81,0,.81s.52-.81,0-.81Z"/>
      <path class="cls-1" d="m31.96,31.67c.52,0,.52-.81,0-.81s-.52.81,0,.81Z"/>
    </g>
  </g>
</svg>