<?xml version="1.0" encoding="UTF-8"?>
<svg id="_レイヤー_2" data-name="レイヤー 2" xmlns="http://www.w3.org/2000/svg" viewBox="0 0 261.06 23.95">
  <defs>
    <style>
      .cls-1 {
        fill: #f7f8f8;
        stroke-width: 0px;
      }
    </style>
  </defs>
  <g id="_ヘッダー" data-name="ヘッダー">
    <g>
      <path class="cls-1" d="m13.12.61c.03,1.24.15,2.89.34,4.94v.09c0,.17-.17.25-.52.25-.12,0-.21-.07-.25-.22-.51-1.59-1.28-2.79-2.3-3.58-.88-.69-1.87-1.03-2.98-1.03-1.3,0-2.33.41-3.08,1.23-.64.71-.95,1.6-.95,2.67,0,1.81,1.17,3.26,3.52,4.34l1.61.73c2.27,1.04,3.85,2.16,4.75,3.36.76,1.01,1.14,2.22,1.14,3.62,0,2.22-.76,3.93-2.28,5.12-1.35,1.06-3.19,1.59-5.5,1.59-1.67,0-3.53-.38-5.59-1.12-.41-1.43-.74-3.03-1-4.8l-.03-.25c0-.22.16-.33.48-.33.16,0,.26.06.31.19.65,1.75,1.58,3.1,2.81,4.05,1.04.82,2.17,1.23,3.38,1.23,1.54,0,2.76-.48,3.66-1.44.76-.81,1.14-1.83,1.14-3.05s-.39-2.32-1.16-3.19c-.7-.78-1.85-1.57-3.45-2.38l-1.61-.8c-1.84-.93-3.12-1.91-3.83-2.94-.62-.91-.94-1.99-.94-3.27,0-1.75.69-3.16,2.08-4.23C4.09.5,5.61.03,7.42.03c.92,0,1.79.13,2.62.39.6.19,1.28.28,2.02.28.38,0,.74-.03,1.06-.09Z"/>
      <path class="cls-1" d="m23.79,12.03v6.25c0,1.36.03,2.25.08,2.64.04.28.13.54.27.78.22.36,1.07.61,2.56.73.22.02.33.15.33.38,0,.28-.11.42-.33.42-1.68-.08-3.08-.12-4.22-.12s-2.52.04-4.11.12c-.17,0-.25-.14-.25-.42,0-.23.08-.35.25-.38.9-.08,1.5-.18,1.81-.3.26-.09.46-.24.59-.44.26-.35.39-1.78.39-4.27V6.22c0-2.27-.12-3.63-.36-4.08-.2-.36-1.05-.61-2.56-.73-.17-.02-.25-.15-.25-.38,0-.34.08-.52.25-.52,2.16.1,3.57.16,4.23.16.72,0,2.07-.05,4.06-.16.22,0,.33.17.33.52,0,.22-.11.34-.33.38-.92.1-1.53.21-1.83.31-.23.08-.41.22-.53.42-.26.45-.39,1.55-.39,3.3v5.19c1.45.06,3.5.09,6.17.09s4.63-.03,6.02-.09v-4.41c0-2.33-.12-3.69-.36-4.08-.22-.36-1.06-.61-2.52-.73-.2-.02-.3-.15-.3-.38,0-.34.09-.52.28-.52,2.1.1,3.52.16,4.23.16s2.06-.05,4.11-.16c.21,0,.31.17.31.52,0,.23-.1.35-.31.38-1.35.1-2.16.35-2.41.73-.26.41-.39,1.77-.39,4.08v11.95c0,1.4.03,2.32.09,2.77.04.29.12.55.25.77.16.22.4.38.73.47.38.1,1.01.19,1.91.27.17.02.25.15.25.38,0,.28-.08.42-.25.42-1.8-.08-3.23-.12-4.3-.12-1.2,0-2.55.04-4.06.12-.19,0-.28-.14-.28-.42,0-.23.09-.35.28-.38,1.34-.12,2.12-.37,2.34-.73.25-.45.38-1.87.38-4.27v-5.41c-1.39-.1-3.39-.16-6.02-.16s-4.72.05-6.17.16Z"/>
      <path class="cls-1" d="m60.66.52c1.74.08,2.96.12,3.66.12.84,0,2.05-.04,3.61-.12.19,0,.28.17.28.52,0,.23-.09.35-.28.38-1.23.15-1.97.42-2.23.81-.35.53-.55,1.86-.58,4l-.06,3.89c-.04,2.69-.06,4.63-.06,5.83,0,2.5-.8,4.43-2.41,5.8-1.62,1.36-3.57,2.05-5.86,2.05-2.91,0-5.25-.84-7.03-2.53-1.24-1.18-1.86-2.79-1.86-4.83l.06-6.14v-4.7c0-1.9-.1-3.03-.31-3.41-.23-.39-1.09-.64-2.58-.77-.19-.02-.28-.15-.28-.38,0-.34.09-.52.28-.52,1.7.08,3.09.12,4.17.12,1.15,0,2.53-.04,4.14-.12.19,0,.28.17.28.52,0,.23-.09.35-.28.38-.9.08-1.5.18-1.81.3-.25.1-.44.26-.56.47-.26.45-.39,1.8-.39,4.05v4.12l-.03,4.44c0,1.64.14,2.86.42,3.69.22.64.59,1.2,1.11,1.69,1.34,1.24,2.98,1.86,4.91,1.86,2.26,0,3.97-.61,5.12-1.83,1.04-1.07,1.56-2.72,1.56-4.95v-3.81l-.03-5.2c-.03-2.17-.2-3.52-.52-4.05-.25-.41-1.06-.66-2.44-.77-.17-.02-.25-.15-.25-.38,0-.34.08-.52.25-.52Z"/>
      <path class="cls-1" d="m76.72,12.03v6.25c0,1.36.03,2.25.08,2.64.04.28.13.54.27.78.22.36,1.07.61,2.56.73.22.02.33.15.33.38,0,.28-.11.42-.33.42-1.68-.08-3.08-.12-4.22-.12s-2.52.04-4.11.12c-.17,0-.25-.14-.25-.42,0-.23.08-.35.25-.38.9-.08,1.5-.18,1.81-.3.26-.09.46-.24.59-.44.26-.35.39-1.78.39-4.27V6.22c0-2.27-.12-3.63-.36-4.08-.2-.36-1.05-.61-2.56-.73-.17-.02-.25-.15-.25-.38,0-.34.08-.52.25-.52,2.16.1,3.57.16,4.23.16.72,0,2.07-.05,4.06-.16.22,0,.33.17.33.52,0,.22-.11.34-.33.38-.92.1-1.53.21-1.83.31-.23.08-.41.22-.53.42-.26.45-.39,1.55-.39,3.3v5.19c1.45.06,3.5.09,6.17.09s4.63-.03,6.02-.09v-4.41c0-2.33-.12-3.69-.36-4.08-.22-.36-1.06-.61-2.52-.73-.2-.02-.3-.15-.3-.38,0-.34.09-.52.28-.52,2.1.1,3.52.16,4.23.16s2.06-.05,4.11-.16c.21,0,.31.17.31.52,0,.23-.1.35-.31.38-1.35.1-2.16.35-2.41.73-.26.41-.39,1.77-.39,4.08v11.95c0,1.4.03,2.32.09,2.77.04.29.12.55.25.77.16.22.4.38.73.47.38.1,1.01.19,1.91.27.17.02.25.15.25.38,0,.28-.08.42-.25.42-1.8-.08-3.23-.12-4.3-.12-1.2,0-2.55.04-4.06.12-.19,0-.28-.14-.28-.42,0-.23.09-.35.28-.38,1.34-.12,2.12-.37,2.34-.73.25-.45.38-1.87.38-4.27v-5.41c-1.39-.1-3.39-.16-6.02-.16s-4.72.05-6.17.16Z"/>
      <path class="cls-1" d="m114.36,23.23c-2.99-.11-5.63-.17-7.92-.17-2.56,0-5.31.06-8.23.17-.17,0-.25-.14-.25-.42,0-.24.08-.38.25-.41.84-.08,1.42-.18,1.73-.3.25-.1.45-.26.59-.47.26-.39.39-1.79.39-4.2V6.22c0-1.67-.03-2.73-.08-3.2-.04-.35-.14-.65-.28-.88-.26-.39-1.1-.63-2.53-.73-.19-.02-.28-.15-.28-.38,0-.34.09-.52.28-.52,2.15.1,4.81.16,7.98.16,2.94,0,5.53-.05,7.77-.16.27,2.69.45,4.38.55,5.06v.09c0,.19-.17.28-.52.28-.12,0-.2-.06-.25-.19-.47-1.41-1.15-2.46-2.05-3.17-.78-.62-2.39-.94-4.83-.94-1.52,0-2.45.26-2.8.77-.23.34-.34,1.23-.34,2.67v5.66c.36.02,1.05.03,2.05.03,2.29,0,3.7-.21,4.22-.64.55-.44.88-1.12.97-2.05.02-.19.13-.28.34-.28.32,0,.48.09.48.28-.04,1.46-.06,2.51-.06,3.14,0,.9.02,2.09.06,3.59,0,.19-.16.28-.48.28-.21,0-.32-.1-.34-.31-.09-1.18-.44-1.97-1.03-2.38-.56-.41-1.95-.61-4.16-.61-.67,0-1.35.02-2.05.06v5.56c0,2.09.15,3.36.45,3.81.23.33.57.56,1.03.69.46.11,1.18.17,2.16.17,1.56,0,2.78-.11,3.66-.33.74-.18,1.4-.47,1.98-.89.85-.62,1.65-1.69,2.39-3.2.06-.15.14-.22.23-.22.41,0,.61.12.61.36l-.03.16c-.39,1.68-.94,3.43-1.67,5.25Z"/>
      <path class="cls-1" d="m119.17,22.41c1.31-.1,2.09-.36,2.33-.77.19-.3.3-.71.34-1.23.05-.54.08-1.53.08-2.97V6.22c0-1.67-.03-2.72-.08-3.17-.04-.34-.15-.64-.31-.88-.25-.39-1.09-.64-2.53-.77-.17-.02-.25-.15-.25-.38,0-.34.08-.52.25-.52,2.1.1,3.5.16,4.17.16.75,0,2.11-.05,4.09-.16.22,0,.33.17.33.52,0,.23-.11.35-.33.38-1.31.14-2.09.39-2.33.77-.28.44-.42,1.79-.42,4.05v12.44c0,1.61.13,2.61.39,2.98.16.23.41.4.75.5.35.1.95.19,1.78.27.21.02.31.16.31.41,0,.28-.1.42-.31.42-1.69-.08-3.11-.12-4.27-.12s-2.5.04-4.02.12c-.17,0-.25-.14-.25-.42,0-.24.09-.38.27-.41Z"/>
      <path class="cls-1" d="m145.92,14.51c-.82-1.07-1.24-2.14-1.24-3.21,0-.98.36-1.8,1.07-2.45.66-.59,1.47-.89,2.45-.89,1.04,0,1.87.3,2.48.89.52.49.77,1.11.77,1.84,0,1.66-1.25,2.89-3.76,3.67,1.47,1.88,3.02,3.68,4.64,5.41.44-.67.78-1.35,1.01-2.02.22-.68.33-1.22.33-1.61,0-.2-.03-.35-.09-.46-.17-.31-.7-.5-1.59-.58-.13-.01-.19-.11-.19-.3,0-.21.06-.31.19-.31,1.03.06,1.82.1,2.36.1.41,0,1.14-.03,2.2-.1.13,0,.19.09.19.27,0,.21-.06.33-.19.34-.44.07-.71.13-.82.17-.25.09-.46.23-.62.43-.09.13-.44.87-1.03,2.22-.53,1.12-.96,1.89-1.3,2.31,1.29,1.34,2.22,2.16,2.79,2.46.32.16.79.27,1.4.33.1,0,.16.01.18.04.02.03.03.1.03.21,0,.18-.07.27-.2.27-.77-.06-1.39-.09-1.85-.09-.62,0-1.15.01-1.6.04-.28-.39-.87-1.06-1.76-2.02-1.51,1.64-3.12,2.46-4.82,2.46-1.46,0-2.65-.47-3.57-1.4-.82-.83-1.22-1.86-1.22-3.09s.38-2.21,1.13-3.05c.56-.63,1.43-1.26,2.61-1.9Zm.4.56c-.81.49-1.39,1.02-1.75,1.61-.37.61-.56,1.33-.56,2.17,0,1.18.43,2.15,1.28,2.89.69.61,1.49.91,2.4.91.78,0,1.45-.12,2.01-.38.55-.24,1.1-.65,1.64-1.22-1.83-2.05-3.51-4.04-5.02-5.98Zm1.03-1.21c1.02-.44,1.73-.94,2.12-1.49.32-.45.48-1.02.48-1.72,0-.64-.18-1.16-.53-1.54-.32-.34-.73-.52-1.24-.52-.58,0-1.06.24-1.44.72-.35.44-.53.98-.53,1.63,0,.89.38,1.86,1.13,2.91Z"/>
      <path class="cls-1" d="m189,.61c.72.02,1.61.03,2.69.03.9,0,1.99-.04,3.3-.12.21,0,.31.16.31.48,0,.25-.1.39-.31.41-1.37.08-2.18.34-2.44.77-.26.43-.39,1.25-.39,2.47v.39l.14,12.41c0,1.67.05,2.75.12,3.25.06.38.18.69.34.95.18.24.44.41.78.52.33.09.91.18,1.73.25.21.03.31.17.31.41,0,.28-.1.42-.31.42-1.73-.08-3.15-.12-4.27-.12s-2.45.04-4.05.12c-.15,0-.22-.14-.22-.42,0-.24.07-.38.22-.41,1.35-.1,2.16-.36,2.41-.77.26-.42.39-1.39.39-2.92l-.09-14.81h-.36l-4.86,11.11c-1.07,2.42-2.18,5.06-3.33,7.94-.08.19-.25.28-.48.28-.15,0-.26-.09-.34-.28-1.16-2.92-2.17-5.36-3.05-7.33l-5.09-11.72h-.34l-.09,13.53v.53c0,1.94.15,3.16.45,3.67.16.24.41.41.75.52.32.09.87.18,1.64.25.22.02.33.16.33.41,0,.28-.11.42-.33.42-1.55-.08-2.71-.12-3.48-.12-1,0-2.2.04-3.59.12-.19,0-.28-.14-.28-.42,0-.25.09-.39.28-.41,1.17-.1,1.88-.37,2.16-.8.23-.42.38-.9.47-1.45.08-.56.14-1.47.17-2.72l.28-12.77v-.3c0-1.09-.13-1.83-.39-2.2-.29-.38-1.12-.63-2.5-.77-.19-.02-.28-.15-.28-.38,0-.34.09-.52.28-.52,1.66.08,2.8.12,3.44.12,1.04,0,1.97-.01,2.78-.03.35,1.26.78,2.47,1.28,3.62l4.39,10.39c.26.59.59,1.38,1,2.34.43,1.03.72,1.73.88,2.11.9-2.15,1.54-3.63,1.92-4.45l4.12-9.95c.54-1.23,1.05-2.58,1.52-4.06Z"/>
      <path class="cls-1" d="m198.82,22.41c1.31-.1,2.09-.36,2.33-.77.19-.3.3-.71.34-1.23.05-.54.08-1.53.08-2.97V6.22c0-1.67-.03-2.72-.08-3.17-.04-.34-.15-.64-.31-.88-.25-.39-1.09-.64-2.53-.77-.17-.02-.25-.15-.25-.38,0-.34.08-.52.25-.52,2.1.1,3.5.16,4.17.16.75,0,2.11-.05,4.09-.16.22,0,.33.17.33.52,0,.23-.11.35-.33.38-1.31.14-2.09.39-2.33.77-.28.44-.42,1.79-.42,4.05v12.44c0,1.61.13,2.61.39,2.98.16.23.41.4.75.5.35.1.95.19,1.78.27.21.02.31.16.31.41,0,.28-.1.42-.31.42-1.69-.08-3.11-.12-4.27-.12s-2.5.04-4.02.12c-.17,0-.25-.14-.25-.42,0-.24.09-.38.27-.41Z"/>
      <path class="cls-1" d="m216.13,12.03v6.25c0,1.36.03,2.25.08,2.64.04.28.13.54.27.78.22.36,1.07.61,2.56.73.22.02.33.15.33.38,0,.28-.11.42-.33.42-1.68-.08-3.08-.12-4.22-.12s-2.52.04-4.11.12c-.17,0-.25-.14-.25-.42,0-.23.08-.35.25-.38.9-.08,1.5-.18,1.81-.3.26-.09.46-.24.59-.44.26-.35.39-1.78.39-4.27V6.22c0-2.27-.12-3.63-.36-4.08-.2-.36-1.05-.61-2.56-.73-.17-.02-.25-.15-.25-.38,0-.34.08-.52.25-.52,2.16.1,3.57.16,4.23.16.72,0,2.07-.05,4.06-.16.22,0,.33.17.33.52,0,.22-.11.34-.33.38-.92.1-1.53.21-1.83.31-.23.08-.41.22-.53.42-.26.45-.39,1.55-.39,3.3v5.19c1.45.06,3.5.09,6.17.09s4.63-.03,6.02-.09v-4.41c0-2.33-.12-3.69-.36-4.08-.22-.36-1.06-.61-2.52-.73-.2-.02-.3-.15-.3-.38,0-.34.09-.52.28-.52,2.1.1,3.52.16,4.23.16s2.06-.05,4.11-.16c.21,0,.31.17.31.52,0,.23-.1.35-.31.38-1.35.1-2.16.35-2.41.73-.26.41-.39,1.77-.39,4.08v11.95c0,1.4.03,2.32.09,2.77.04.29.12.55.25.77.16.22.4.38.73.47.38.1,1.01.19,1.91.27.17.02.25.15.25.38,0,.28-.08.42-.25.42-1.8-.08-3.23-.12-4.3-.12-1.2,0-2.55.04-4.06.12-.19,0-.28-.14-.28-.42,0-.23.09-.35.28-.38,1.34-.12,2.12-.37,2.34-.73.25-.45.38-1.87.38-4.27v-5.41c-1.39-.1-3.39-.16-6.02-.16s-4.72.05-6.17.16Z"/>
      <path class="cls-1" d="m249.45,0c3.6,0,6.51,1.25,8.72,3.73,1.93,2.18,2.89,4.87,2.89,8.08,0,3.7-1.24,6.69-3.72,8.97-2.15,1.98-4.78,2.97-7.89,2.97-3.58,0-6.48-1.27-8.7-3.8-1.93-2.2-2.89-4.89-2.89-8.08,0-3.67,1.23-6.64,3.7-8.92,2.15-1.97,4.78-2.95,7.89-2.95Zm0,1.09c-2.64,0-4.75,1.11-6.34,3.34-1.41,1.96-2.11,4.42-2.11,7.38,0,3.48.9,6.22,2.69,8.23,1.53,1.72,3.45,2.58,5.77,2.58,2.65,0,4.77-1.11,6.36-3.33,1.41-1.95,2.11-4.41,2.11-7.39,0-3.46-.91-6.2-2.73-8.23-1.55-1.72-3.46-2.58-5.73-2.58Z"/>
    </g>
  </g>
</svg>