<?xml version="1.0" encoding="UTF-8"?>
<svg id="_レイヤー_2" data-name="レイヤー 2" xmlns="http://www.w3.org/2000/svg" viewBox="0 0 123.8 19.69">
  <defs>
    <style>
      .cls-1 {
        fill: #f7f8f8;
        stroke-width: 0px;
      }
    </style>
  </defs>
  <g id="_ヘッダー" data-name="ヘッダー">
    <g>
      <path class="cls-1" d="m12.78.76c.06.81.18,1.88.34,3.2v.08c0,.12-.11.18-.34.18-.08,0-.13-.04-.17-.12-.33-.95-.75-1.64-1.28-2.06-.46-.37-1.25-.56-2.37-.56-.48,0-.81.03-1,.1-.15.05-.27.15-.37.3-.12.19-.19.43-.22.73-.03.31-.05.88-.05,1.71v7.31c0,.9.02,1.49.05,1.75.03.22.1.41.21.56.11.15.28.26.52.32.22.06.6.11,1.14.16.12.01.19.1.19.25,0,.19-.06.28-.19.28-1.07-.05-1.98-.08-2.71-.08s-1.62.03-2.59.08c-.12,0-.18-.09-.18-.28,0-.16.06-.24.18-.25.85-.07,1.35-.23,1.5-.48.18-.27.26-1.09.26-2.44V3.86c0-1.1-.08-1.77-.24-2.01-.16-.24-.61-.36-1.36-.36-1.05,0-1.82.19-2.3.56-.53.42-.97,1.11-1.32,2.06-.03.08-.08.12-.14.12-.23,0-.34-.06-.34-.18v-.06C.17,2.7.29,1.63.36.76c1.78.06,3.84.1,6.18.1s4.46-.03,6.24-.1Z"/>
      <path class="cls-1" d="m17.26,7.72c.78-1.22,1.8-1.83,3.09-1.83.9,0,1.6.26,2.11.78.47.49.71,1.15.71,1.98l-.03,2.18v1.26c0,1.17.05,1.85.15,2.04.08.18.46.3,1.12.36.12.02.18.1.18.24s-.06.21-.2.21c-.8-.03-1.44-.04-1.92-.04s-1.16.01-1.98.04c-.13,0-.2-.07-.2-.21s.06-.22.2-.24c.6-.05.95-.17,1.04-.36.1-.21.16-.9.16-2.04v-3.1c0-.47-.07-.84-.21-1.1-.33-.67-.91-1.01-1.74-1.01s-1.54.37-2.06,1.1c-.28.41-.42.92-.42,1.54v2.56c0,1.19.04,1.87.12,2.04s.47.3,1.17.36c.12.02.18.1.18.24s-.06.21-.18.21c-.83-.03-1.45-.04-1.87-.04-.53,0-1.23.01-2.08.04-.1,0-.16-.07-.16-.21s.05-.22.16-.24c.41-.04.68-.08.81-.14.11-.05.2-.12.25-.22.12-.2.18-.88.18-2.04V3.32c0-.83-.05-1.37-.16-1.64-.11-.27-.3-.4-.57-.4l-.69.04c-.11,0-.17-.08-.17-.25,0-.14.08-.23.24-.26.74-.16,1.62-.42,2.64-.8.14,0,.21.05.21.14-.06,1.64-.1,3.22-.1,4.75v2.84Z"/>
      <path class="cls-1" d="m31.4,14.18c-.47.42-.94.72-1.39.88-.42.15-.9.22-1.46.22-.73,0-1.31-.21-1.75-.63-.37-.36-.56-.83-.56-1.39,0-.74.23-1.33.68-1.76.33-.33,1.12-.69,2.37-1.06.76-.23,1.28-.45,1.58-.67.29-.23.44-.48.44-.76v-.52c0-1.37-.43-2.05-1.28-2.05-.56,0-1.01.16-1.36.48-.24.24-.36.57-.36.99,0,.25-.13.47-.4.63-.24.15-.53.22-.88.22s-.54-.18-.54-.54c0-.61.41-1.16,1.22-1.66.72-.44,1.51-.66,2.37-.66,1.05,0,1.78.22,2.18.66.35.38.51,1.02.51,1.89l-.04,4.33c-.02,1.13.23,1.7.75,1.7.18,0,.35-.05.49-.16.08-.05.14-.07.18-.07.06,0,.11.04.16.11.04.06.07.13.07.2,0,.05-.03.08-.08.12-.47.34-.96.51-1.48.51-.71,0-1.19-.34-1.43-1.01Zm-.08-4.1c-.2.25-.81.57-1.84.95-.62.23-1.06.51-1.32.84-.23.29-.34.66-.34,1.11,0,.48.16.86.49,1.16.28.25.6.38.97.38.63,0,1.14-.19,1.53-.56.33-.31.49-.69.49-1.12l.02-2.76Z"/>
      <path class="cls-1" d="m38.48,7.76c.79-1.23,1.8-1.85,3.05-1.85.88,0,1.58.27,2.11.81.49.5.73,1.15.73,1.93l-.03,2.2v1.26c0,1.19.05,1.87.17,2.04.1.18.46.3,1.06.36.12.02.18.09.18.22,0,.14-.06.21-.18.21-.78-.03-1.4-.04-1.88-.04-.51,0-1.18.01-2,.04-.12,0-.18-.07-.18-.21,0-.13.06-.21.18-.22.55-.03.89-.15,1.03-.36.12-.18.18-.86.18-2.04v-3.06c0-.47-.07-.85-.22-1.14-.34-.68-.91-1.03-1.72-1.03s-1.47.37-2.02,1.12c-.29.4-.44.91-.44,1.54v2.56c0,1.21.04,1.89.14,2.04.08.12.19.2.33.24.14.04.41.08.8.12.1.02.16.09.16.22,0,.14-.05.21-.16.21-.8-.03-1.43-.04-1.88-.04-.53,0-1.2.01-2,.04-.1,0-.16-.07-.16-.21,0-.13.05-.21.16-.22.55-.05.89-.17,1.03-.36.12-.18.18-.86.18-2.04v-2.79c0-.83-.05-1.37-.16-1.62-.13-.28-.32-.42-.57-.42l-.69.04c-.12,0-.19-.1-.19-.3,0-.12.09-.19.26-.22.83-.18,1.69-.45,2.58-.81.14,0,.21.06.21.18-.03.72-.04,1.25-.04,1.6Z"/>
      <path class="cls-1" d="m49.79,10.34c.42-.4.77-.72,1.04-.96l1.13-1.14c.57-.57.86-.96.86-1.16,0-.22-.29-.34-.88-.36-.1,0-.16-.08-.16-.25,0-.15.05-.22.16-.22.39.01,1.02.02,1.88.02.61,0,1.19-.02,1.74-.06.1,0,.16.08.16.24,0,.15-.05.23-.16.25-.44.04-.82.13-1.12.28-.26.13-.78.55-1.56,1.26l-1.02.92c-.4.38-.67.64-.8.78,1.11,1.3,2.15,2.45,3.12,3.46.44.45.83.75,1.15.9.19.1.5.17.93.21.12.02.18.1.18.24s-.06.21-.18.21c-.79-.04-1.31-.06-1.58-.06-.47,0-.86,0-1.18.02-.29-.42-.53-.72-.7-.92-1.08-1.18-2.09-2.31-3.02-3.4v1.49c0,1.22.04,1.9.12,2.04.1.2.49.32,1.16.36.1.02.16.1.16.24s-.05.21-.16.21c-.85-.03-1.48-.04-1.89-.04-.51,0-1.19.01-2.04.04-.1,0-.16-.07-.16-.21s.05-.22.16-.24c.59-.05.94-.17,1.04-.36.12-.2.18-.88.18-2.02V3.32c0-.89-.05-1.45-.16-1.66-.13-.25-.31-.38-.53-.38l-.69.04c-.11,0-.17-.09-.17-.27,0-.13.07-.21.22-.24.8-.16,1.68-.43,2.64-.8.14,0,.21.05.21.14-.06,1.53-.1,3.11-.1,4.75v5.46Z"/>
      <path class="cls-1" d="m62.97,6.12c.01.42.07,1.14.17,2.14v.06c0,.08-.09.12-.26.12-.1,0-.16-.05-.2-.14-.45-1.23-1.2-1.85-2.26-1.85-.5,0-.89.15-1.16.44-.24.25-.36.58-.36.99,0,.33.12.61.35.82.25.23.7.49,1.37.76l.72.3c.91.38,1.53.8,1.87,1.27.27.38.41.86.41,1.45,0,.89-.32,1.59-.96,2.1-.59.47-1.36.7-2.32.7-.83,0-1.67-.17-2.52-.5-.13-.48-.27-1.12-.42-1.92l-.02-.16c0-.11.08-.17.24-.17.1,0,.18.04.21.12.29.66.69,1.18,1.22,1.55.45.33.92.49,1.41.49.57,0,1.02-.18,1.35-.55.29-.31.43-.7.43-1.17,0-.42-.13-.77-.4-1.04-.26-.27-.68-.52-1.26-.77l-.7-.3c-.92-.4-1.54-.8-1.85-1.22-.26-.36-.39-.84-.39-1.44,0-.7.29-1.28.87-1.72.51-.39,1.13-.59,1.87-.59.36,0,.8.06,1.33.19.23.04.49.06.77.06.15,0,.32,0,.5-.02Z"/>
      <path class="cls-1" d="m71.87,7l-1.24.02c-.13,0-.2-.09-.2-.26s.06-.27.2-.29c.6-.14,1.07-.4,1.43-.8.34-.38.61-.84.8-1.37.04-.12.14-.18.29-.18.18,0,.26.07.26.21-.04.98-.06,1.61-.06,1.91.75,0,1.66-.01,2.72-.04.08,0,.12.04.12.12l-.19.57c-.03.09-.1.14-.2.14-.48-.04-1.31-.06-2.5-.06l-.04,4.9c0,.97.13,1.64.4,2,.26.35.61.52,1.05.52.48,0,.9-.18,1.26-.55.04-.04.08-.06.12-.06.07,0,.14.04.21.13.06.07.09.14.09.2,0,.04-.02.08-.06.12-.64.71-1.34,1.06-2.1,1.06-.83,0-1.45-.23-1.87-.68-.4-.46-.6-1.17-.6-2.14l.04-2.71.04-2.74Z"/>
      <path class="cls-1" d="m82.1,5.9c1.29,0,2.35.47,3.17,1.41.76.85,1.13,1.93,1.13,3.23,0,1.47-.46,2.66-1.4,3.57-.79.78-1.76,1.17-2.91,1.17-1.3,0-2.36-.48-3.18-1.44-.73-.85-1.09-1.91-1.09-3.18,0-1.46.48-2.66,1.44-3.59.81-.78,1.75-1.17,2.84-1.17Zm0,.6c-.83,0-1.48.39-1.94,1.16-.42.72-.63,1.7-.63,2.94,0,1.46.27,2.54.81,3.23.44.57,1.03.85,1.77.85.84,0,1.5-.39,1.97-1.16.44-.72.65-1.69.65-2.92,0-1.48-.28-2.57-.84-3.27-.45-.55-1.04-.83-1.79-.83Z"/>
      <path class="cls-1" d="m97.24,14.94c-.26-.68-.57-1.45-.94-2.31l-1.46-3.66c-.4-1-.72-1.65-.96-1.94-.17-.21-.52-.33-1.06-.36-.1-.02-.16-.09-.16-.21,0-.16.05-.24.16-.24.86.03,1.54.04,2.04.04.53,0,1.24-.01,2.13-.04.1,0,.16.08.16.24,0,.12-.05.2-.16.21-.49.03-.82.1-.99.2-.12.07-.18.19-.18.34,0,.27.18.86.54,1.77l1.04,2.58c.08.21.2.5.35.89.1.28.2.52.27.71.22-.62.43-1.17.62-1.64l.95-2.54c.25-.71.38-1.22.38-1.54,0-.29-.08-.48-.24-.59s-.45-.16-.87-.18c-.1,0-.16-.07-.16-.21,0-.16.05-.24.16-.24.78.03,1.37.04,1.79.04.36,0,.88-.01,1.58-.04.12,0,.18.08.18.24,0,.13-.06.2-.18.21-.38.02-.67.13-.88.34-.24.22-.57.88-.99,1.96l-1.4,3.62-1.28,3.06c-1.15,2.7-2.46,4.04-3.96,4.04-.48,0-.72-.16-.72-.48,0-.29.13-.57.39-.84.23-.24.45-.36.66-.36.12,0,.29.03.49.1.2.06.36.1.48.1.18,0,.41-.17.69-.52.53-.62,1.04-1.54,1.52-2.74Z"/>
      <path class="cls-1" d="m107.73,5.9c1.29,0,2.35.47,3.17,1.41.75.85,1.13,1.93,1.13,3.23,0,1.47-.47,2.66-1.4,3.57-.79.78-1.76,1.17-2.91,1.17-1.3,0-2.36-.48-3.18-1.44-.73-.85-1.09-1.91-1.09-3.18,0-1.46.48-2.66,1.44-3.59.81-.78,1.75-1.17,2.84-1.17Zm0,.6c-.83,0-1.48.39-1.94,1.16-.42.72-.63,1.7-.63,2.94,0,1.46.27,2.54.81,3.23.44.57,1.03.85,1.77.85.84,0,1.5-.39,1.97-1.16.44-.72.65-1.69.65-2.92,0-1.48-.28-2.57-.84-3.27-.45-.55-1.04-.83-1.79-.83Z"/>
      <path class="cls-1" d="m121.05,15.28c-.13,0-.2-.06-.2-.19.03-.72.04-1.25.04-1.61-.72,1.2-1.73,1.8-3.01,1.8-.89,0-1.59-.26-2.11-.79-.46-.48-.69-1.11-.69-1.89,0-.9,0-1.61,0-2.12v-1.47c0-.85-.05-1.38-.15-1.6-.12-.28-.31-.42-.58-.42l-.62.04c-.12,0-.18-.08-.18-.24s.08-.25.24-.27c.92-.14,1.78-.32,2.58-.52.14,0,.21.06.21.18-.04,1.15-.06,2.28-.06,3.38v2c0,.82.08,1.4.24,1.74.33.69.89,1.04,1.68,1.04s1.44-.37,1.98-1.11c.18-.25.3-.48.36-.69.05-.2.08-.47.08-.83v-2.68c0-.85-.05-1.38-.14-1.6-.12-.28-.31-.42-.57-.42l-.63.04c-.12,0-.19-.08-.19-.24s.08-.25.22-.27c1.02-.16,1.88-.33,2.58-.52.14,0,.21.06.21.2-.04,1.07-.06,2.19-.06,3.36v2.64c0,1.15.05,1.81.14,1.98.1.2.36.3.78.32l.36.02c.12.02.19.09.19.21,0,.14-.06.22-.18.24-.87.05-1.73.15-2.57.32Z"/>
    </g>
  </g>
</svg>