<?xml version="1.0" encoding="UTF-8"?>
<svg id="_レイヤー_2" data-name="レイヤー 2" xmlns="http://www.w3.org/2000/svg" viewBox="0 0 250 47.53">
  <defs>
    <style>
      .cls-1 {
        fill: #aab849;
        fill-rule: evenodd;
      }

      .cls-1, .cls-2 {
        stroke-width: 0px;
      }

      .cls-2 {
        fill: #c9a063;
      }
    </style>
  </defs>
  <g id="_出欠" data-name="出欠">
    <g>
      <path class="cls-1" d="m107.88,42.66c-38.67.38-77.22,1.24-93.37,2.1-10.08.54-14.51,1.22-14.51,2.22,0,.6,2.02.68,8.1.38,13.31-.66,22.95-.96,46.81-1.5,36.48-.8,46.51-.9,88.5-.9s50.43.1,76.44.84c14.69.42,28.04.46,29.41.1.82-.22.9-.32.52-.56-1.59-.86-9.47-1.26-41.99-2.08-25.54-.64-68.9-.9-99.91-.6Z"/>
      <g>
        <path class="cls-2" d="m49.16,6.11c3.9-.88,8.25-.77,12.37-.27,2.36-2.36,4.73-4.12,7.37-4.78,3.69-.93,4.51,2.58,1.82,4.51-1.54,1.1-4.23,1.65-7.53,2.03-2.25,3.08-5.39,10.39-7.37,14.96-3.24,7.48-8.19,18.15-18.31,21.67-2.47.88-5.55,1.1-8.08-.55-.55-.33-1.15-1.43-1.04-2.75.05-1.32,2.2-2.69,2.2-1.26,0,.94.44,2.47,1.32,3.3,2.64,2.48,6.88-.44,9.29-3.08,5.77-6.32,9.68-22.6,18.64-31.95-5.11.44-12.21-1.7-17.32,3.35-1.92,1.92-3.02,3.63-3.35,3.96-1.21,1.32-2.92.44-2.58-.5.99-2.91,2.86-6.21,3.9-8.8.5-1.15,2.31,1.1,2.09,1.92-.17.6-.27,1.04-1.21,2.2,1.48-1.21,3.35-2.97,7.81-3.96Zm15.07,0c3.19.49,8.52-2.64,6.82-4.01-1.26-.99-4.45.6-6.82,4.01Z"/>
        <path class="cls-2" d="m59.61,40.2c0-2.75,3.13-11.22,6.1-12.04,2.2-.6,2.8.77,2.8,1.59,0,3.24-7.15,8.8-7.15,12.15,0,.88.44,1.26,1.26,1.26,2.8,0,8.14-4.51,11.16-8.19.66-.77,1.04-.22,0,1.04-2.42,2.8-7.26,7.7-11.55,7.81-1.65.06-2.64-1.7-2.64-3.63Zm9.68-14.35c-1.54,0-2.47-.99-2.47-2.47s1.43-2.36,2.53-2.36c1.43,0,2.37.99,2.37,2.36,0,1.48-.93,2.47-2.42,2.47Z"/>
        <path class="cls-2" d="m111.75,34.92c.66-.77,1.04-.11,0,1.15-2.42,2.8-7.21,8.19-11.55,8.41-1.49.06-2.92-.99-2.92-2.53,0-2.69,4.34-9.51,3.74-9.68-2.53-.66-11.22,8.74-13.8,9.79-.88.39-1.81-.16-1.76-1.81.05-1.87,6.32-13.47,6.16-13.8-.88-1.92-13.25,15.01-17.54,17.49-.38.22-1.37.05-1.43-.66-.17-2.03,3.35-13.2,5.33-13.36,2.31-.17,2.36,1.59,2.36,2.36,0,1.65-3.41,6.93-3.41,8.14.99.11,12.21-16.72,18.37-16.66.71,0,1.65.39,1.65,1.16.06,3.9-6.82,12.26-7.7,14.52,1.48-.33,8.69-8.47,13.25-8.36.94,0,2.15.38,2.15,1.37.11,4.01-6.71,11.38-4.29,11.38,2.8,0,8.36-5.22,11.38-8.91Z"/>
        <path class="cls-2" d="m112.25,37.78c0-5.33,4.78-11.11,10.83-11.05,1.32,0,5.33.38,5.33,2.2,0,2.97-7.54,3.74-9.73,4.07-1.76,1.38-4.01,10.17-.61,10.34,3.41.17,9.35-5.55,11.82-8.47.61-.72,1.04-.17,0,1.1-2.42,2.8-7.64,7.92-11.93,8.14-3.85.22-5.72-3.46-5.72-6.32Zm6.71-5.39c2.2-.11,6.82-.6,6.82-3.63,0-.71-.27-1.26-1.04-1.26-2.47,0-4.51,3.02-5.77,4.89Z"/>
        <path class="cls-2" d="m145.3,34.92c.66-.77,1.04-.22,0,1.04-2.97,3.46-7.92,9.18-13.03,9.18-1.93,0-3.03-.99-3.03-2.86-.05-5.83,6.93-16.39,9.57-21.56,0,0-4.29.06-4.62.06-.16-.11-.11-.5.11-.72,2.25.06,2.92,0,4.73.06,2.09-3.46,4.89-9.73,6.32-9.73.94,0,2.04.5,2.04,2.15,0,1.15-3.13,6.27-3.96,7.64.93,0,3.63-.11,4.95-.06.11.17-.06.6-.28.6-2.37.11-3.13.06-5,.17-1.87,3.13-13.53,23.26-10.94,23.59,3.85.5,9.07-4.84,13.14-9.57Z"/>
        <path class="cls-2" d="m170.16,34.92c.66-.77,1.1-.17,0,1.04-2.47,2.69-7.92,8.3-11.16,8.96-1.87.38-3.52-1.59-3.41-3.57.11-2.42,1.27-4.01,1.1-4.34-.11-.22-8.19,7.09-10.89,7.09-1.43,0-2.25-1.04-2.25-2.31,0-7.64,11-14.96,19.08-14.9.99,0,3.69.11,3.69,1.54,0,.55-.66,1.04-1.21,1.04-.66,0-1.26-.99-1.71-1.37-1.21-1.04-3.08-.55-4.4.11-3.46,1.7-11.93,11-12.59,14.74-.22,1.1,2.09-.38,4.84-2.69,2.64-2.2,5-4.73,7.31-6.43.93-.66,2.47-.5,2.69.93.28,1.92-.77,3.3-2.03,6.87-.38,1.1-.66,2.53,0,2.42,2.25-.33,8.08-5.77,10.94-9.13Z"/>
        <path class="cls-2" d="m180.17,38.77c-1.71,3.02-4.4,5.5-6.82,5.5-1.76,0-2.31-3.08-2.31-4.34.22-12.98,9.4-28.49,19.63-36.02,1.93-1.43,4.84-1.76,4.62.82-.55,7.26-14.35,19.96-17.21,22.55-4.07,7.59-5.78,16.28-4.18,16.28,1.92,0,4.12-2.42,5.66-5.22-.88-1.04-1.54-2.69-1.54-4.73,0-1.54.71-3.52,2.59-3.52,1.26,0,1.65,1.59,1.65,2.36,0,1.54-.66,3.57-1.76,5.61,1.6,1.65,3.85.06,5.34-1.38.22-.22,1.15-1.1,1.7-1.7.83-.88.99-.11,0,.93-1.98,2.15-4.89,4.89-7.37,2.86Zm11.11-27.11c2.58-4.01,3.63-7.37,2.7-7.37-2.26-.06-13.2,16.72-15.07,20.9,3.96-3.35,9.68-9.35,12.37-13.53Zm-11.16,25.63c.99-1.92,1.21-3.13,1.32-4.4.05-.5.11-2.09-.77-1.98-1.38.17-1.1,5.55-.55,6.38Z"/>
        <path class="cls-2" d="m202.39,34.92c.66-.77,1.04-.22,0,1.04-2.42,2.8-7.48,7.7-11.55,8.03-2.14,0-3.35-1.76-3.24-4.34C187.98,31.18,203.76-.22,212.84,0c2.14.06,2.04,1.27,2.04,2.25,0,8.08-13.31,20.51-19.52,25.19-1.21,1.1-8.08,15.89-4.73,15.89,2.8,0,8.58-4.67,11.77-8.41Zm11.82-32.83c0-.38,0-1.04-.55-.99-3.19.38-14.85,19.63-17.71,24.69,5.17-3.57,17.87-16.33,18.26-23.7Z"/>
        <path class="cls-2" d="m208.94,44.11c-3.85.22-5.72-3.46-5.72-6.32,0-5.33,4.79-11.11,10.83-11.05,1.32,0,5.33.38,5.33,2.2,0,2.97-7.53,3.74-9.73,4.07-1.76,1.38-4.02,10.28-.61,10.45,2.14.11,5.33-2.09,7.97-4.45.22-.17.44.38.11.77-2.2,2.53-5.5,4.23-8.19,4.34Zm.99-11.71c2.2-.11,6.82-.6,6.82-3.63,0-.71-.28-1.26-1.04-1.26-2.47,0-4.51,3.02-5.78,4.89Z"/>
      </g>
    </g>
  </g>
</svg>