<?xml version="1.0" encoding="UTF-8"?>
<svg id="_レイヤー_2" data-name="レイヤー 2" xmlns="http://www.w3.org/2000/svg" viewBox="0 0 326.06 162.3">
  <defs>
    <style>
      .cls-1 {
        fill: #f7f8f8;
        stroke-width: 0px;
      }
    </style>
  </defs>
  <g id="_ヘッダー" data-name="ヘッダー">
    <g>
      <path class="cls-1" d="m105.66,9.96c-13.43,15.13-21.34,32.13-30.6,49.3-4.17,7.91-7.65,16.15-12.5,23.55-.93,1.36-2.21,2.29-3.83,2.38-1.87.08-2.46-3.57-2.46-4.93-.6-13.01,9.35-33.66,9.44-37.4-1.53-.17-23.55,37.15-23.55,37.15-.68.85-1.62,2.89-2.8,2.98-2.72.08-3.15-2.89-3.23-5.02-.51-12.75,13.09-44.63,15.73-59.67h-.17c-4.17.26-16.49,13.35-23.55,13.69-2.12.08-3.06-2.21-3.06-3.91-.09-1.62,1.1-7.48,3.14-7.65.6,0,2.12,1.1,2.04,2.55-.17,2.46-1.36,4.08-1.36,5.44,0,.94.94,1.45,1.79,1.36,4.17-.17,21.25-14.45,23.12-14.45,2.12-.17,3.99,2.04,4.08,4,.08,2.38-3.91,12.24-4.76,15.13-2.04,7.14-11.99,38.34-12.24,43.35,0,.08.09.08.17,0,.94,0,5.1-6.97,5.7-8.08,3.15-5.36,6.8-10.46,19.89-33.24,1.02-2.04,3.31-6.38,5.7-6.38,1.79,0,2.72,1.53,2.8,3.32.26,5.1-16.07,36.81-15.64,47.35,0,.59-.34,2.29.51,2.12C64.18,81.02,98.44.86,118.16.01c2.55-.17,5.19,1.62,5.27,4.42.08,1.96-3.23,4.5-4,4.08-1.62-1.02.17-4.33.08-6.21,0-.94-.34-1.62-1.36-1.62-3.83.17-9.95,6.54-12.5,9.27Z"/>
      <path class="cls-1" d="m93.76,79.92c-5.1,0-7.57-5.36-7.57-9.78,0-8.25,6.8-17.09,15.47-17.09,2.04,0,7.57.59,7.57,3.4,0,4.59-11.56,5.78-14.96,6.29-2.8,2.21-6.21,16.41-.17,16.32,5.27-.08,13.6-8.08,18.11-12.84.59-.59.93-.94,1.1-.94.09,0,.17.17.17.25,0,.17-.25.43-1.27,1.7-3.49,4-12.5,12.67-18.45,12.67Zm.94-17.94c3.4-.17,11.47-1.11,11.47-5.78,0-1.1-.76-2.12-1.96-2.12-3.82,0-7.56,5.02-9.52,7.91Z"/>
      <path class="cls-1" d="m138.04,84.17c3.4,11.56,20.32,14.54,24.06,2.55,1.36-4.5,2.55-3.66,2.38.51-.34,7.14-7.23,8.76-13.77,7.82-6.38-.94-11.14-4.59-14.45-12.24-2.12-4.85-3.4-11.9-1.79-17.17-.76.93-.08.25-3.48,4-3.23,3.4-6.63,6.71-11.31,9.01-3.31,1.7-5.36.93-6.12-2.81-1.87-9.35,12.58-25.33,23.29-19.47.42-2.38,4.42-11.31,6.29-15.05,3.57-6.8,10.46-21.17,18.45-20.91,5.44.17-7.22,24.74-17.34,31.96-4,8.84-9.01,22.19-6.21,31.79Zm-18.79-13.35c.08-.17-3.57,8.76-.34,7.31,5.95-2.63,10.8-8.67,15.64-13.77.68-2.47,1.45-4.93,2.04-7.06-7.82-3.15-14.88,6.72-17.34,13.52Zm65.97-3.49c-4.34,5.44-11.31,13.6-15.98,13.52-4.67-.08-5.53-5.61-5.53-9.27,0-1.96.09-4.08.77-5.95-4.17,3.57-11.65,13.86-17.68,13.86-2.38,0-3.31-2.8-3.31-4.84,0-8.84,9.52-19.72,18.62-19.72,2.38,0,2.72.25,4.76,1.44,2.21-9.35,17.6-38.76,25.67-38.76,1.19,0,1.53.59,1.53,1.7,0,8.67-13.18,27.88-19.55,32.9-2.98,6.72-7.48,15.73-7.48,23.21,0,1.7.42,4.42,2.63,4.59,3.57.26,11.82-9.1,15.56-13.77.51-.59.93-.94,1.1-.94.08,0,.17.17.17.25,0,.17-.25.43-.34.51-.34.34-.59.85-.93,1.27Zm-40.29-16.75c1.62-1.02,3.32-3.14,4.76-4.67,4.17-4.34,15.13-22.87,11.9-24.48-1.7-.85-5.61,6.8-5.61,6.8-2.72,4.85-3.57,7.06-8.67,16.92l-2.38,5.44Zm21.68,6.72c-.77-.85-1.96-1.11-3.06-1.11-7.05,0-15.98,14.28-15.98,20.83,0,.59.08,1.28.85,1.28,3.4,0,13.52-11.14,16.15-13.94.85-2.98,1.1-4.76,2.04-7.06Zm8.33-6.72c5.53-3.49,18.36-24.14,18.36-31.2,0-.51.08-.76-.42-.76-3.15,0-16.41,28.31-17.94,31.96Z"/>
      <path class="cls-1" d="m194.73,66.57c-4.34,5.27-7.48,10.12-4.85,11.9,3.91,2.63,16.15-9.01,18.79-12.16.34-.34,1.02-1.19,1.19-1.02.43.34-.59,1.28-1.19,1.96-4.17,5.02-14.88,14.45-19.55,11.82-4.33-2.46-.25-11.56,1.02-14.79,1.1-2.72,5.27-11.65,9.1-8.67,2.04,1.62-.26,5.78-4.51,10.97Zm6.8-15.56c-1.87,0-3.15-1.36-3.15-3.14,0-1.53,1.79-2.98,3.23-2.98,1.7,0,2.98,1.36,2.98,2.98,0,1.79-1.28,3.14-3.06,3.14Z"/>
      <path class="cls-1" d="m234.52,79.66c-3.74,0-4.42-4.33-4.59-7.14-.43-7.99,10.46-19.98,8.84-20.4-4.76-1.28-26.86,26.78-28.56,27.54-.93.43-1.62-.85-1.62-1.87,0-2.21,6.12-20.4,9.35-19.38,1.79.59,2.12,1.79,2.12,2.72,0,1.62-5.44,10.37-6.46,12.75.68,0,21.42-23.8,26.1-23.8,2.12,0,3.14,1.36,3.14,3.4,0,8.16-8.93,17.09-8.93,24.06,0,.59.34,1.11,1.02,1.11,4.42.17,13.09-9.1,15.81-12.24.51-.59.94-.94,1.11-.94.08,0,.17.17.17.26,0,.17-.26.42-1.28,1.7-3.06,3.48-11.05,12.24-16.24,12.24Z"/>
      <path class="cls-1" d="m268.86,81.79c1.19-2.12,5.18-13.43,5.18-15.39,0-.17-.76,0-.85-.08-.94.08-13.86,11.9-17.43,11.9-2.21,0-2.72-2.55-2.72-4.25,0-11.99,15.98-22.1,26.95-22.1,1.7,0,6.89.17,6.89,2.63,0,.43-.6,1.19-1.02,1.19-1.53,0-2.12-3.15-5.95-3.15-6.8,0-23.38,16.41-23.38,23.21,0,.42,0,.94.59.94,4.42,0,17.94-15.64,21-15.64,1.79,0,2.29,1.7,2.29,3.23,0,2.46-1.7,5.53-2.72,7.91-6.21,14.71-17.43,29.92-32.22,36.47-1.96.85-4.08,1.7-6.21,1.7s-3.15-1.02-3.15-2.97c0-9.95,23.55-21.34,32.73-25.59Zm-.68,1.19c-7.99,2.98-32.64,16.07-31.28,25.16.08.76.85,1.19,1.62,1.19,11.14,0,24.82-17.94,29.67-26.35Z"/>
      <path class="cls-1" d="m35.19,102.37c-4.25,0-2.38-7.99.25-7.99.6,0,1.96.68,1.96,1.45,0,1.02-3.57,6.21-.25,5.44,10.71-1.96,17.94-4.59,26.61-4.59,1.28.17,1.87,1.02,1.87,1.7,0,.43.09,1.36-.51,1.79-1.36-.08-2.97-3.31-7.31-2.21-13.18,15.56-21.93,38.34-31.96,56.61,3.4,0,6.8,0,10.12-.34,1.36-.08,2.72-.68,4.08-.68.25,0,.42.17.42.42,0,1.28-2.21,3.32-3.4,3.15l-11.9-1.36-.6,1.02c-2.63,4.59-9.27,5.53-14.45,5.53-1.96,0-10.12-1.28-10.12-3.74,0-4.85,15.39-4.17,20.23-4.08l.42-.76c10.8-17.51,17.68-37.49,29.24-54.57-4.42.93-9.78,3.23-14.71,3.23ZM1.02,158.22c0,3.57,12.41,3.4,13.94,2.55,1.96-1.02,3.57-3.4,4.76-5.53-2.04-.08-4.17-.25-6.21-.25s-12.5.85-12.5,3.23Z"/>
      <path class="cls-1" d="m74.55,159.66c-3.74,0-4.42-4.33-4.59-7.14-.43-7.99,10.46-19.98,8.84-20.4-4.76-1.28-26.86,26.78-28.56,27.54-.93.43-1.62-.85-1.62-1.87,0-2.21,6.12-20.4,9.35-19.38,1.79.59,2.12,1.79,2.12,2.72,0,1.62-5.44,10.37-6.46,12.75.68,0,21.42-23.8,26.1-23.8,2.12,0,3.14,1.36,3.14,3.4,0,8.16-8.93,17.09-8.93,24.06,0,.59.34,1.11,1.02,1.11,4.42.17,13.09-9.1,15.81-12.24.51-.59.94-.94,1.11-.94.08,0,.17.17.17.26,0,.17-.26.42-1.28,1.7-3.06,3.48-11.05,12.24-16.24,12.24Z"/>
      <path class="cls-1" d="m111.35,133.91c-3.06-.08-6.54-2.38-6.54-5.7,0-1.87,1.36-3.49,3.23-3.49,4.25,0,5.78,3.83,5.95,7.82.34-.08.68-.17.94-.17.17,0,.42,0,.59.17,0,.51-.68.85-1.53,1.02,0,1.62-.25,3.23-.68,4.5-2.46,7.82-8.67,14.03-14.54,19.55-.93.85-2.98,2.98-4.33,2.98-.6,0-.6-1.19-.6-1.53,0-4.76,1.53-9.52,1.53-14.37,0-2.81-.59-5.61-.59-8.42,0-1.7,1.02-3.14,2.89-3.14,2.21,0,2.89,3.14,2.89,4.84,0,6.55-2.64,13.43-3.4,19.98,7.48-5.53,13.35-15.05,14.2-24.06Zm.08-.76c.08-.51.08-1.02.08-1.62,0-1.96-1.02-6.04-3.57-6.21-1.28-.08-2.38,1.19-2.38,2.21,0,4.17,3.57,5.53,5.87,5.61Z"/>
      <path class="cls-1" d="m123.93,146.57c-4.34,5.27-7.48,10.12-4.85,11.9,3.91,2.63,16.15-9.01,18.79-12.16.34-.34,1.02-1.19,1.19-1.02.43.34-.59,1.28-1.19,1.96-4.17,5.02-14.88,14.45-19.55,11.82-4.33-2.46-.25-11.56,1.02-14.79,1.1-2.72,5.27-11.65,9.1-8.67,2.04,1.62-.26,5.78-4.51,10.97Zm6.8-15.56c-1.87,0-3.15-1.36-3.15-3.14,0-1.53,1.79-2.98,3.23-2.98,1.7,0,2.98,1.36,2.98,2.98,0,1.79-1.28,3.14-3.06,3.14Z"/>
      <path class="cls-1" d="m143.22,161.53c-2.98,0-4.17-1.53-4.17-4.42,0-8.76,11.56-27.2,14.79-33.41h-8.42c0-.34,0-.42.17-.76,4.25.08,5.7,0,8.58.08,2.38-4.59,7.57-15.22,9.78-15.22,1.45,0,1.7,1.96,1.7,3.14,0,2.38-2.12,5.19-6.29,12.07h9.18l-.17.59-9.44.17c-3.66,6.38-17.34,30.18-17.34,34.94,0,1.36.42,2.21,1.87,2.21,5.61.08,16.07-10.29,19.89-14.71.51-.59.93-.94,1.11-.94.08,0,.17.17.17.25,0,.17-.26.43-1.28,1.7-3.66,4.17-13.69,14.28-20.15,14.28Z"/>
      <path class="cls-1" d="m185.98,161.11c-2.63,0-4.42-2.89-4.42-5.27s1.53-4.76,1.53-6.89c0-.08,0-.42-.17-.42-.68,0-12.75,11.31-17.09,11.31-2.21,0-2.8-1.62-2.8-3.57,0-11.82,18.02-22.95,28.82-22.95,1.53,0,5.27,0,5.27,2.21,0,.85-.51,1.7-1.36,1.7-1.02,0-1.96-1.7-2.63-2.29-1.53-1.53-5.53-.85-7.57.17-5.36,2.63-19.3,17.09-19.3,22.87,0,.43.17.77.68.77,4.59,0,17.68-15.05,20.57-15.22,1.19-.08,1.62,1.11,1.62,2.13,0,4.08-4.08,8.42-4.08,12.5,0,.94.51,2.04,1.53,2.04,2.63.08,12.92-9.69,16.92-13.94.59-.59.94-.85,1.11-.85.08,0,.17.17.17.26,0,.17-.26.42-1.28,1.61-4.17,4.85-14.03,13.86-17.51,13.86Z"/>
      <path class="cls-1" d="m208.84,161.53c-2.97,0-4.17-1.53-4.17-4.42,0-8.76,11.56-27.2,14.79-33.41h-8.42c0-.34,0-.42.17-.76,4.25.08,5.7,0,8.58.08,2.38-4.59,7.57-15.22,9.78-15.22,1.45,0,1.7,1.96,1.7,3.14,0,2.38-2.12,5.19-6.29,12.07h9.18l-.17.59-9.44.17c-3.66,6.38-17.34,30.18-17.34,34.94,0,1.36.43,2.21,1.87,2.21,5.61.08,16.07-10.29,19.89-14.71.51-.59.94-.94,1.11-.94.08,0,.17.17.17.25,0,.17-.25.43-1.28,1.7-3.66,4.17-13.69,14.28-20.15,14.28Z"/>
      <path class="cls-1" d="m238.51,146.57c-4.34,5.27-7.48,10.12-4.85,11.9,3.91,2.63,16.15-9.01,18.79-12.16.34-.34,1.02-1.19,1.19-1.02.42.34-.6,1.28-1.19,1.96-4.17,5.02-14.88,14.45-19.55,11.82-4.33-2.46-.25-11.56,1.02-14.79,1.1-2.72,5.27-11.65,9.1-8.67,2.04,1.62-.25,5.78-4.5,10.97Zm6.8-15.56c-1.87,0-3.15-1.36-3.15-3.14,0-1.53,1.79-2.98,3.23-2.98,1.7,0,2.98,1.36,2.98,2.98,0,1.79-1.28,3.14-3.06,3.14Z"/>
      <path class="cls-1" d="m282.63,158.64c0-3.15,6.46-21.25,6.8-21.68-.85.51-8.25,3.23-12.07,1.19.17,1.96.17,2.47-.59,6.04-1.53,7.14-10.2,17.51-15.56,17.34-4.5-.17-6.21-4.59-6.21-8.5,0-10.46,9.78-20.91,20.32-20.91,1.7.25,3.4.68,4,2.12-.17.94-2.55-.76-4.51,0-6.88,1.36-15.3,14.79-15.3,23.89,0,.94.43,1.87,1.45,2.21,4.25,1.53,12.58-8.25,14.62-15.56.93-3.23.85-6.12.59-6.63-1.79-.42-.93-2.8.94-1.96,4.25,3.91,12.5-.08,13.09-.42,4-.17,3.23,3.49,2.72,5.87-.51,2.55-5.1,10.2-5.1,12.07.68,0,21.25-23.63,25.93-23.63,2.12,0,2.98,1.36,3.15,3.4.68,6.63-12.75,24.06-7.91,25.16,3.49.76,12.92-9.18,15.81-12.41.51-.59.94-.94,1.11-.94.08,0,.17.17.17.25,0,.17-.25.43-1.28,1.7-2.98,3.4-11.39,12.41-16.24,12.41-3.74,0-4.42-4.33-4.59-7.14-.43-7.99,10.46-19.98,8.84-20.4-4.76-1.28-27.88,27.54-28.56,27.54s-1.62-.34-1.62-1.02Z"/>
    </g>
  </g>
</svg>