<?xml version="1.0" encoding="UTF-8"?>
<svg id="_レイヤー_2" data-name="レイヤー 2" xmlns="http://www.w3.org/2000/svg" viewBox="0 0 103.07 104.94">
  <defs>
    <style>
      .cls-1 {
        fill: #8fc31f;
        stroke-width: 0px;
      }
    </style>
  </defs>
  <g id="_回答" data-name="回答">
    <g>
      <path class="cls-1" d="m98.99,41.58c.34.76.7,1.52,1,2.29,1.98,5.01,2.87,10.32,3.07,15.58.14,5.27-.64,10.52-2.34,15.48-1.75,4.94-4.39,9.55-7.77,13.6-3.39,4.04-7.48,7.56-12.17,10.22-4.71,2.65-9.95,4.35-15.32,5.42-10.82,1.95-22.49.18-32.36-4.99l.04-.09c10.01,4.82,21.51,6.43,32.15,4.41,5.28-1.11,10.41-2.85,15-5.5,4.55-2.68,8.67-6,12.04-9.96,3.38-3.94,6.03-8.46,7.83-13.32,1.74-4.87,2.59-10.07,2.51-15.29-.02-5.99-1.47-11.97-4-17.55.11-.1.22-.2.32-.32Z"/>
      <g>
        <path class="cls-1" d="m82.57,16.11c.15-.66-.45-.91-.99-1.19-.19-.1-.32-.2-.14-.44.48-.71-.32-1.42-.51-2.1-1.04-.73-2.67-1.11-3.29.34-.39.62-1.46,1.54-2.16,1.11-.18-.21,0-.35.09-.5.82-.99,1.13-2.64,2.42-3.09.44-.14,1.14-.35.94-.95-.1-.34-.18-.73-.69-.68-.32-.04-.36-.52-.76-.42-.52.18-1.51,1.31-1.13,1.9.97,1.38-2.37,4.8-3.88,4.82-1.46.21-4.18,1.09-5.53.57.09-.08.18-.16.26-.24,1.25-.73,2.42-2.64,3.67-2.23.31.11.66-.12.93.15,1.14.75,1.74-.26,2.27-1.17.66-.66.11-1.48-.4-2-.43-.89-1.13-.55-1.83-.51-.75-.48-.18-2.22.63-2.42.59-.15.82-1.33.07-1.39-.29-.04-.54-.07-.79-.29-.52-.46-1.6.7-1.03,1.17.86.95.67,2.53-.56,3.04-.99.59-.78,1.52-.58,2.47-1.21,3.1-1.85.45-1.52-1.34.17-.74.1-1.44-.15-2.12.01,0,.03,0,.04-.02,0,0,.01-.01.02-.02.01-.02.02-.04.02-.06,0-.01,0-.02,0-.04,0-.02,0-.03,0-.04,0-.01,0-.03-.02-.04,0-.01-.02-.02-.03-.03,0,0,0,0,0,0,.04-.03.06-.09.03-.13-.12-.2-.22-.42-.36-.61-.12-.16-.28-.29-.46-.38-.03-.02-.07-.04-.11-.05,0,0,0,0-.01,0,0,0,0,0,0,0-.56-.23-1.64-.24-1.91-.13-.65.35-.63.98-.64,1.62-.49.65-.95,1.67-1.82,1.82-.31-.04.29-1.26.57-1.37.58-.36.06-1.52-.63-1.4-.43-.83-3.17.45-2.17,1.25.28.26.56.57.9.7,1.74,1.07-.58,2.49-1.14,3.64-.04.03-.07.05-.11.08-.17.12-.35.23-.54.33-.24.03-.45.15-.67.28-1.39,1.01-3.17,1.55-4.31,2.85-1.02.21-2.01.89-3.06.68.52-.33.38-1.34.94-1.47.2.03.38,0,.45-.23,1.5-.68-1.31-2.07-1.19-.34.49,2.38-2.46,2.65-4,3.53.08,0,.18-.03.25-.01,0,0-.02,0-.03.01,0,0-.01,0-.02,0-.03,0-.05,0-.08,0-.02,0-.05,0-.07.02,0,0,0,0,0,0-.01,0-.03-.01-.04-.01-.67.22-1.27.73-1.95.89-1.58.47-2.42,2.05-3.98,2.63-2.25.88-4.77.68-7.02,1.69.6-1.07,1.43-2,2.17-2.98.02,0,.03-.01.04-.02.41-.36.71-.81,1.09-1.2.42-.43.93-.78,1.41-1.15.48-.36.96-.7,1.45-1.05.42-.3.9-.52,1.3-.85.56-.29,1.12-.58,1.65-.89.04.04.09.05.15,0,.34-.29.78-.43,1.17-.63.45-.23.89-.46,1.35-.67.82-.38,1.58-.94,2.49-1.09.06,0,.08-.05.09-.1,0,0,0,0,0,0,2.19-.42,5.97.89,6.95-1.76,1.28-2.44,2.1-5.68,4.63-7.09,4.98,1.29,4.23-5.23,1.5-3.7-.23.15-.41.18-.65.05-.6-.26-.98.49-1.55.54-.73.14-.48.78-.52,1.3-.14.33-.07.62.11.89.56.78-1.47,3.82-2.14,2.7.03-.57-.6-1.49-.06-1.87.58-.3,1.05-.7.58-1.35-.71-1.13-2.36.13-1.47,1.16.71.83.45,1.97.76,2.95.16,1.66-1.03,3.46-1.85,4.86-1.75,1.6-4.42.6-6.54.84-.75-.11.08-1.79.24-2.3.64-1.04,2.37-.54,3.4-.51.19,1.76,2.33.6,1.14-.57-.23-.15-.45-.15-.69-.07-.89.35-1.89.19-2.84.29-1.1.09.56-1.91.68-2.46-.02,0-.04,0-.06,0,.04-.02.07-.04.1-.06.02,0,.03-.02.05-.02-.02.02-.04.04-.05.06.87-.32,1.58-1.17,2.5-1.2,1.69.05,2.31-1.04,1.22-2.39-.63-.57-1.47.31-1.59.95-.18.82-.79,1.36-1.39,1.9-.02.01-.04.03-.07.04-.14.1-.28.2-.44.28-.14.07-.28.14-.42.22-.06.04-.12.07-.17.12-.03-.05-.04-.12-.02-.22.13-1.13.77-1.81,1.73-2.38.64-1.01-1.3-1.23-1.04-2.59-.15-.82,1-.78.92-1.48-.3-1.87-2.03.25-1.41.69.47.24.14.77.21,1.17-.12,1.26-1.84-.04-2.24,1.42-.36.96-1.49-.39-1.8.63-.32.66-.93,1.06-1.32,1.66-.25.86-4.14,2.48-2.99.64.57-.69.62-1.95,1.32-2.45.01,0,.02,0,.03,0,.15-.05.29-.12.43-.18.03,0,.06-.01.09-.02-.01,0-.03,0-.04,0,.03-.01.05-.03.08-.04,0,0,.01,0,.02,0,0,0,0,0,0,0,.09-.04.22-.08.35-.13.06-.01.12-.02.17-.02.06,0,.11-.03.12-.09.84-.32,1.93-.82,1.57-1.61-.2-.44-.74-.66-.76-1.18-.05-.56-.8-.29-1.16-.43-1.19-.56-2.39-.33-3.5.33-.73.43-.34,1.55-.41,2.26-.01.87-1,1.54-1.53,2.14.27-1.22-.22-2.61.3-3.78.92-1.61-.54-2.15-1.44-.72-.9,1.04,1.02.72.89,1.6.04.47.1.95.12,1.43,0,1.31-.56,2.52-.2,3.83.05.41.13,2.58-.49,2.28-.13-.2-.28-.39-.13-.66.3-.58.14-1.74-.69-1.68-.57.17-1.52-.54-1.61.39-.02.13.07.3-.12.37-1.16.7.02,2.23-1.61,3.39-1.85,1.75-.68-2.36-.55-3.19.16-1.26,2.13-.73,2.26-2.08.56-1.47.49-1.91-1.1-2.39-.47-.03-.86,0-1.18-.44-.68-.17-1.71-.09-1.99.65.09.41-.22.54-.44.75-.62.52.12,1.33.03,2.01.07.53.68.88,1.13,1.1,1.94,1.31-.33,6.94-2.41,7.27-.07-1.66.67-3.31.29-5.02-.17-.78.64-1.61-.18-2.22-.29-.58-1.15-.78-1.37-.06-.15.66-1.22,1.16-.68,1.86.58.51,1.5-.45,1.87.73.38,1.97-.9,4.05-.39,6.02.08,2.56,1.02,6.04-1.44,1.55-.58-1.09-1.65-1.77-2.13-2.92-.45-.28-.28-1.16-1.01-1.01-.93-.21-.17-2.14-.14-2.85.07-.52.67-.74.86-1.21.21-.66,1.02-.64,1.33-1.21-.08-.6.09-1.59-.57-1.94-.17-.1-.16-.21-.09-.36.35-.35.49-1.69,1.05-1.49.92.41,2.25-1.19,1.36-1.89-.12-.84-1.24-1.18-1.95-1.28-.8.17-.94,1.05-1.06,1.75-.25.77.03,1,.52,1.55.1.63-.1,1.47-.8,1.66-.27.07-.5.52-.82.48-.71-.33-.91.32-1.45.61-.47.3-1.01,1.35-.26,1.63.43.25,1.12.09,1.17.71.34,1.55.23,3.38-.76,4.68-.47.54-.69,1.1-.23,1.76.41.38-.14,2.1-.49,1.11-.37-1.32-.68-2.66-1.38-3.86-.38-.51.26-.79.48-1.21.27-.56,0-1.31-.54-1.37-.69-.05-.6-.62-.79-1.09-.23-.51.09-.93.36-1.31.01-.31.1-.96-.4-.86-.06,0-.13-.12-.21-.15-.67-.58-1.68.05-2.01.73-.19.47.22,1.17.65,1.03.4-.13.6.09.89.28.73.47.85,2.11-.07,2.33-1.7-.6-1.78,2.66,0,2.09.89-.5,1.36.17,1.56,1,.2.77-1.15.61-1.63.83-.74-.06-1.51-.52-2.05-1.07-.45-.32-1.08-.51-1.17-1.17-.13-.37-.5-.71-.07-1.02.35-.33.49-.82.93-1.07.18-.1.26-.33.13-.51-.38-.62-1.92-1.18-2.29-.34-.28.43-.06,1.62-.86,1.2-1.39-.64-1.57.62-2.26,1.41-1.11.95.81,2.66,1.71,1.68.6-.43,1.34.46,1.77-.71.37-.78,1.74,1.11,2.43,1.23,1.42.59,1.52,2.05,1.46,3.43-.07.31-.11.36-.44.27-.85-.41-1.9-.25-2.61-.86-.73-.33.47-1.58-.6-1.7-.04,0-.1-.07-.09-.09.11-.46-.17-.33-.41-.3-1.03-.45-2.37.7-1.37,1.63.39.33.39.33.21.81-.45.98-.7,1.98-.75,3.06,0,.47-.98.96-1.06.27-.21-1.17-1.5.19-1.7-.72-.04-.66-.76-1.65-.13-2.14.23-.14.38-.35.32-.66-.12-.94-1.44-.73-1.62.11-.29,1.04.73.74.81,1.48.03.8.95,2.12.03,2.59-.5.35-1.11,1.04-.82,1.67.34,1.03,1.21.38,1.03.91-.36.56.44.67.39,1.17.1.79.49,3.02-.89,1.71-.83-.95-1.95-2.03-1.29-3.37.58-1.3-.7-2.29-1.93-2.01-.61-.21-2.32,1.2-1.55,1.66.71.23-.31.99.34,1.37.2.24.37.65.75.54.61.04,1.13-.82,1.56-.22.89.9,1.48,2.1,2.55,2.82,2.19,1.83.46,6.13-.95,7.96-.16-.48-1.54-3.93-.78-3.78,1.25-.28,1.4-2.14.98-3.11-.23-.74-.85-.12-1.16-.57-.46-.86-.76-.61-1.54-.3-.34.26-.67-.41-.97.02-.4.65-1.3,1.22-1.2,2.05.12.39-.06.55-.36.73-.37.19-.46.51-.42.85-.05.23-.02.48.1.69.16.29.45.48.77.53.12.02.24.01.36-.01.05.09.01.2-.2.36-1.87,1.96,1.78,1.66,2.84,1.94.79.14.86.25,1.05,1.04.23,1.13.65,2.28.77,3.4-.58-.06-1.12-.52-1.73-.58-.66-.33-1.58-.23-2.23-.39-.49-.88-1.76-.95-2.28-1.81-.02-.04-.04-.07-.07-.09-.1-.19-.21-.38-.37-.52-.16-.14-.37-.21-.58-.24-.51-.16-1.32-.12-.99.51.12.19.1.32-.07.49-.32.36-.96,1.23-.14,1.41.17.04.32.06.39.26.17.49.28.44.78.32.84-.16.8-1.58,1.79-1.19.56.17.92.6,1.25,1.04.25.46-.6.64-.81.95-.8.98-1.49-.13-2.16.32-.21.22-.36.15-.5-.08-.22-.39-.81-.06-1.1.08-.78.51-.62,1.24-.39,2.01.24.5.48-.22,1,.82,1.06.95,2.49-.91,2.18-1.99.15-.77,1.47-.83,1.85-1.5.19-1.04,2.86-.12,3.37.42,2.11.9,2.87,3.89,3.05,5.94-1.07.64-2.23-.19-3.19-.68-.35-.31.37-.86.37-1.26.19-1.28-.98-1.32-1.82-.86-.22,0-.43.09-.61.2-.04.02-.07.05-.1.07-.17.07-.28.16-.36.27-.05.04-.09.08-.14.12-.04.04-.06.11-.02.16-.16.4-.22.86-.91,1,.13.19.42.06.45.34.02.17.12.24.29.26,1.96-.03,6.06.93,2.11,2.4-2.66.8.43,2.69.23.84-.87-.74.84-.79,1.19-1.33.69-.82,2.03-.74,2.86-.27,1.31,4.75,4.86,9.1,4.33,14.2-.03.15-.17.3-.31.12-4.2-4.09-2.14-2.55-3.19-7.98-.06-.54-.76-4.82-1.48-2.89-.09,2.47.16,4.95.17,7.42-.03.45-.12.53-.53.37-4.24-1.06-6.69-1.2-10.4-3.72-.41.17-.16.75.06.99,2.26,2.65,5.68,2.99,8.84,3.77,2.45.52,2.19,1.51,2.57,3.64.59,3.9,3.03,7.22,3.48,11.11.18,2.11.84,4.38,1.84,6.19-1.24-3.52-1.34-7.15-2.71-10.54-1.15-2.56-2.07-5.25-2.51-8.03-.1-.64-.35-1.36-.37-1.97-.03-.6,0-1.3.03-1.91.04-.78.02-1.56,0-2.33-.06-1.61-.21-3.21-.18-4.82,1.21.29,1.26,6.6,1.36,8.11.78,2.83.92,6,2.04,8.81.86,2.12,1.31,4.39,1.27,6.68,0,.14-.16.4.12.46.15-.17.21-.77.15-1.07.15-.93.35-1.85.13-2.78-.24-1.58.28-3.09.04-4.66-.41-2.35-2.11-4.08-2.69-6.35,6.6,4.86-.19,15.33,5.62,24.52-.39-2.55-1.65-5.14-2.05-7.78-.97-3.36,0-6.89,0-10.33.96-2.61,2.97-4.8,3.57-7.58,1.63-6.17,2.1-12.78,5.34-18.34.03-.29-.22-.44-.48-.32-3.4,2.61-3.36,7.6-4.37,11.45-.98,4.43-1.99,8.97-3.93,13.06-.42-7.09.34-14.41,2.19-21.31,1.03-3.71,3.81-6.54,5.87-9.69,1.02-1.62,3.26-1.61,4.6-2.92,2.28-1.34,4.24-3.19,6.68-4.28,1.84-1.12-.5-1.19-1.31-.69-3.11,1.36-5.41,4.2-8.22,5.82,1.21-2.21,3.29-3.88,4.68-6.01.54-.78,1.25-1.38,2.11-1.81,4.87-1.95,10.21-2.29,15.3-3.5,1.76-.36,3.53-.45,5.29-.09,1.26.5,5.55,1.42,4.49,3.34-.46.78.8,1.61,1.49,1.27.21-.09.37-.18.6-.05.9.51,2.14-.58,2.3-1.44-.03-.39-.21-.79-.56-.96-.6-.27-.43-1.02-1.1-1.21-.56-.26-1.07-.2-1.59.06-1.81.58-3.7-.68-5.4-1.27-2.46-.86,5.71-1.34,6.28-2.23.6-.19,1.32.2,1.54.83.19.94,1.29,1.73.7,2.7-.09.18-.1.33.04.46.39.39.93,1.01,1.51.59.33-.26.67-.51.41-1.01-.04-.07,0-.19.01-.28.03-.23-.05-.38-.29-.42-.38-.05-.63-.47-1.06-.4-1.27-1.03-.8-2.01.7-1.52.45.42.93.8,1.22,1.38.62,1.63,1.31.28,2.29.85.29.29.34.29.66.04.05-.02.11-.05.16-.08,1.46-.3.11-2.87-.83-2.98-1.96.12-3.9.85-5.77-.16-.27-.15-.98-.53-.47-.83.74-.44,1.41-1.01,2.24-1.27.09,0,.12-.08.13-.16.48-.27.95-.6,1.35-.98.04-.02.08-.03.11-.05.16-.08.28-.21.4-.33.07,0,.14-.01.22,0,5.39-.16,1.86-.51,6.35,1.39.54-.03,2.68.03,2.62.69-.1.44-.09.46.3.64.56.36.71,1.21,1.53.82.57-.02,1.02-1,.91-1.48-.29-.28-.6-.57-1.05-.7-1.95-.11-4.26.03-5.84-1.33,1.67-1.27,3.9.09,5.8,0,.56.01.94.21,1.1.81.28,1.38,1.3.53,1.5,1.21.19,1.62,2.23,1.22,2.84.08.57-.79-.23-1.29-.19-1.97Zm-5.96-6.26c-.19-.61.91-.27.58-.88-.19-.36.48-.58.51-.18.15.45.96-.08.91.6-.1.7-.98.39-1.39.81-.14.14-.59-.14-.61-.36Zm-5.56-3.51c-.3-.29.12-.51.32-.72.45.1.59.85,1,.39.04-.04.15-.07.19-.05.54.33-.1,1.05-.55,1-.44.04-.67-.36-.96-.62Zm-.46,3.49c.4.06.49-.84.84-.36,1.23,1.16.98-1.06,2.61,1.54.26.87-.88.56-1.25,1.01-.11.09-.22.23-.06.35.24.13.78-.79.66-.06.02.01.04.03.06.04-.19.5-.79,1.15-1.24.56-.45-.54-.94.27-1.88-.41-.76-.31.45-2.02,1-1.21.33.4.43-.61.84-.19.12.11.24.02.36-.03-.27-.59-1.15-.31-1.67-.25-.26.05-.53.07-.66.36-.03.07-.16.14-.24.14-.78-.26-.07-1.5.6-1.5Zm-18.29,5.13c.28.09.11.55.48.3.5-.23.41.39.14.6-.68.02-.91-.4-.61-.91Zm7.46-11.72c.86-.92,1.26.64,1.63-.11.32-.71.39-.48,1.02-.63-.58-.97-.96.7-1.64.2-.15-.08-.37,0-.56.01-.76.14-.22-1.2.32-.63.21.16.3.01.38-.15.33-1.33.98.41,1.31-.23.38-1.6,2.78.32,1.48.83-.34.02-.84.11-.83.57,2.19-1,.92,1.9-.64,1.57-.71.18-.83-.68-.07-.56.05,0,.11-.06.16-.1-.79-.88-1.24,1.49-2.23-.09-.36-.32-.46-.53-.32-.68Zm-3.23.52c.12-.78,1.25-.75,1.2.08-.12.59-1.31.89-1.2-.08Zm-2.75,6.75c0,.67-.97.53-.9-.08.08-.69,1-.63.9.08Zm.32-5.48c.02-.11-.13-.31-.24-.37-.11-.12-.48-.1-.34-.33.17-.42,1.22-.51,1,.18-.26.5.86.91-.02,1.23-.51.05-1.39.58-1.3-.39.1-.76.64-.05.89-.32Zm-15.46-3.84c.02-.68,1.14-1.03.84-.13.25.88-.93.9-.84.13Zm-9.24,8.71c-.3-.3-.39,0-.59.16-.25.11-.47,0-.46-.29-.04-.68.85-.68.85-1.26.25-.85,1.06.46,1.12.83-.05.46-.6.82-.92.56Zm-9.79-.02c-.4-.18-1.11.3-1.03-.41.01-.48.37-.73.72-.91.24-.08.94.16.52.49-.11.65.5-.11.74.03.34.5-.56.97-.95.8Zm0,4.76c-.81.07-1.13-1.11-.5-1.52.93-.12,0,.54.25.83.6-.05.85-1.02,1.19-1.47.43-.62,1.3-.34,1.11.5-.54.64-1.09,1.59-2.04,1.66Zm-3.88-.83c-.24.45-.71,1.84-1.28,1.65-1.37-1.22-.04-1.2-.28-1.73-.15-.06-.28.16-.4.24-.45.4-.46.41-.13.95.58.6-.78,1.41-.84.49-.02-.42-.15-.24-.31-.09-.61.35-.65-.92-.09-1.08.81-.3.09-1.48,1.38-1.29.6.08.52.39.87.82.24-.24.21-.67.65-.63.58.01.66.13.42.68Zm-.47-1.67c.15-1.21,1.03-.35,1.69-.27.08.01.18.11.19.18-.27.69-1.8,1.13-1.89.09Zm-5.73,7.9c-.03-.11-.06-.22-.08-.27.23-1.55,2.09-.05.08.27Zm-1.73,5.85c-.12.36-.35.42-.66.35-.47,0-.88,1.3-1.29.38-1.1-.47.13-1.01-.66-1.59-.06-.04-.11-.17-.1-.24-.01-.4,1.45-1.4,1.37-.61-.13.18-.16.68.17.42.14-.34.25-.71.72-.65.55.08.94.71.84,1.28.09.32-.3.41-.39.66Zm-3.91,8.08c.09-.39.07-.83.57-.98.21-.12.28.09.41.16.18.11.4.16.6.23.72.29.45-.84.98-1.07.06-.79-.5.09-.62.35-.53.78-1.44-.34-1.09-.95.28-.48.55-1.48,1.24-1.36.08.24-.2.53-.26.77.28.53.83-1.12,1.49-1.01,1.72-.15-.23,1.57.29,1.91.86-1.7,2.06-1.61,1.65.45-.09.26-.37.45-.23.79-.29.46-1.06.51-1.54.32.03-.18.45-.78.08-.69-.84.52-.43,2.22-1.82,1.88-.18-.03-.26-.11-.18-.3.07-.16.13-.26-.15-.2-.35.05-.74-.1-1.08.08.03.04.06.08.1.11-.04,0-.08,0-.12-.01-.01,0-.03,0-.04,0-.02-.02-.05-.04-.07-.06-.12-.13-.19-.27-.21-.43Zm.67,2.45c-.63-.56.89-1.85.99-.68-.2.38-.46,1.03-.99.68Zm3.06.41s0,0,0,0c-.59-.27-1.23-.26-1.86-.33-.49-.11.01-.85.03-1.18.49-.47,1.8-1.17,2.17-.22.24.52.74,2.01-.34,1.74Zm-5.21,2.9c.5.71-.95,1.42-.86.52.07-.24.36-.43.25-.69-.61.4-1.23.85-.68-.3.16-.38.93-.63,1.23-.99.08.03.15.07.22.13.1.08.17.2.24.32-.03.03-.06.06-.09.11-.04.4-.5.53-.31.91Zm-1.19,4.75c-.16-.23-.3-.59-.52-.65-.41-.11-.37-.37-.4-.61.03-.81.96-1.38,1.39-.67.07.26-.28.49-.36.72-.18.35.11,1,.51.82-.02-.57-.47-.64.16-1.09.34-.16.17-.91.68-.68,1.17.97-.46,3.49-1.46,2.17Zm4.84,1.19c.12-.1.24-.2.38-.28.17-.1.37-.19.57-.19.13.17-.08.59-.16.82-.47.55-.94.13-.8-.35Zm1.79.63c-.11-.17-.31-.07-.35.04.11.19.3.47.19.69-.11.68-3.3-.46-1.51-.46,1.33.41.85-1.8,2.03-1.67.75.1.39,2.16-.36,1.39Zm-.13,4.54c-.06.45-.99.28-.81-.21.04-.18.13-.29.35-.21.36.11.5.22.45.42Zm1.68,10.11c-3.06-.71-6.78-.98-8.57-3.83,1.17.52,2.27,1.38,3.49,1.89,2.09.8,4.51.62,6.5,1.65-.36.32-1.09.18-1.43.28Zm5.12,2.99c1.18,1.86,2.14,3.95,1.88,6.22-.02,0-.03,0-.05,0,.08,4.38-2.65-5.84-2.49-6.61.16-.39.52.23.66.39Zm11.64-21.46c-3.91,6.11-3.32,13.95-6.17,20.38-.08-.41.17-.86.23-1.29-.21.33-.29.8-.64,1,2.18-4.79,2.7-18.37,6.58-20.1Zm11.09-14.77c-2.58,1.49-5,3.67-7.78,4.78,2.21-1.88,4.79-4.59,7.78-4.78Zm22.72-3.59c.17-.56.66-.77,1.13-.96.36-.31,1.78.43,1.1.7-.33-.26-.73-.43-1,0,.09.05.18.09.27.14,0-.02.01-.04.02-.05,1.06.23-2.03,1.4-1.53.17Zm-.08,1.15c.28-.2.54-.51.91-.38.72-.14.45.89.99.94.37-.32-.7-1.21.26-1.22.21-.02.43,0,.64-.04.17-.02.34-.24.51,0,.16.23.37.45.32.77-.02.09-.05.23-.11.25-.36.1-.49.43-.73.64-.62.68-1.11-.33-1.66.06-.65.57-1.86-.42-1.12-1.03Zm4.39-2.69c.36.13,1.08-.03.95.34-.46.32.41.61-.06.89-.38.35-1.3-.06-1.04-.65-.06-.28-.11-.41.14-.58Zm3.45-2.5c.72.03,1.47-.2.92.84.09.03.2.1.26.07.63-.1.85.59.67,1.17-.05,0-.1.02-.12.07,0,.01-.01.03-.02.04,0,0,0,0,0,0,0,0,0,0,0,0,0,0,0,.01-.01.02,0,.01-.02.03-.03.04,0,0-.01.01-.02.02,0,0,0,0,0,0-.02.02-.05.05-.07.07-.01.01-.03.02-.04.03,0,0-.01.01-.02.02,0,0-.03.02-.02.01.01,0-.01,0-.01,0,0,0-.02,0-.02.01-.02,0-.03.02-.05.03-.03.02-.06.03-.1.05-.02,0-.04.02-.06.02-.08-.03-.15-.07-.19-.13-.66-.87-1.96.7-2.33-.68-.13-.44.21-.59.6-.54.13.1.29.27.49.29.23-.76-.73-.82-1.21-.55-.85-.35.9-1.21,1.37-.92Zm-1.95-12.73c.66,1.02.48-.1,1.39.21.02.01.04.03.06.04.07.06.14.13.2.21.04.06.08.11.11.17.07.69-.32.18-.73.59.19.2.45.18.68.24.47.16.44.61-.06.59-.14.02-.3-.02-.34.18-.07.37-.31.35-.52.18-.48-.41-1.22.42-1.52-.43-.08-.42.44-.7.83-.59.06.02.17-.12.26-.19-.24-.32-.64-.15-.96-.08-.85-.07-.07-1.51.6-1.15Zm-4.34,1.85c.05-.32.62-.28.72-.6-.44-.28-.8.22-1.17.46-.31-.3-.6-.81,0-.95.34.07.59,0,.8-.29.38-.13.52.57.95.33.23,0,.6.41.34.65-.37.44-1.28,1.25-1.65.4Zm-24.82,11.45s.02.02.04.03c-.02,0-.03,0-.05,0,0,0,0-.02.01-.03Zm-.09.39s0,0,0,0c0,0-.02,0-.03.01,0,0-.01.01-.02.02,0,0,0-.02,0-.02.01,0,.03-.01.04-.02Zm1.29-1.08s.03-.01.05-.02c-.04.05-.09.09-.13.14.02-.04.05-.08.08-.12Zm8.64-5.33s-.05.02-.08.04c-.22.03-.41.12-.56.27-.25.12-.5.25-.74.38-.35.18-.71.32-1.03.54-.61.27-1.22.55-1.79.9-.03,0-.05,0-.08.03-.06.05-.12.09-.18.14-.08.05-.15.1-.22.16-.31.2-.65.38-.95.59-.02.01-.03.02-.05.03-.26.09-.47.28-.67.47-.26.19-.52.37-.77.57-.32.24-.65.48-.96.73-.2.14-.36.34-.56.48,0,0,0-.01.01-.02-.38.2-.72.92-1.15.74,0,0,0,0-.01,0,.22-.39.43-.82.63-1.24.11-.18.22-.36.3-.56,0-.01,0-.02,0-.04.13-.25.28-.5.43-.72.29.14-.19.98.37.83.64-.37,1.25-.81,1.79-1.32.35-.28.71-.55,1.03-.86.2-.2.42-.38.64-.56.17.05.35.05.55-.05,1.4-.66,2.82-1.29,4.27-1.8-.01.06-.03.12-.04.18-.06.03-.12.06-.18.09Zm.7-.38s.07-.02.1-.03c-.04.02-.08.04-.12.07,0-.01.01-.02.02-.03Zm1.46-5.11c0-.86-.49-1.9.21-2.58.18-.3.42-.33.72-.35.79-.19.57.41.55.95.02,0,.04.01.07.02-.29.61-.71,3.71-1.55,1.96Zm2.32-8c-.14-.27.38-.71.62-.77.68.56-.03.77-.62.77Zm-2.31,3.42c.86.04-.55-1.05,1.09-1.05.39.02.63.4,1-.04.24-.29.53-.13.62.29.05.26.15.35.42.38.85.45-.48,1.05-.96,1.06-.15.06-.35.13-.4.25-.2.44-.6.44-.96.51-.5.11-.41-.66-.99-.44-.32-.02-.28-.97.19-.96Zm.12,1.55c-.18.46-.75.37-.67-.08.12-.35.56-.14.67.08Zm-1.63-1.07c.18-.67.77.08.84.39-.18.43-1.01.12-.84-.39Zm-4.05,3.11c1.46-.32,2.42-1.3,3.29-2.49.43-.47.65.09,1.07.26.28.06.18.36.29.52.79.47.2,1.3.44,1.97.93,2.01.67,4.98-1.75,5.78-1.32.36-2.53,1.3-3.85,1.52.62-.84,1.1-1.81,1.51-2.8.11-.23.18-.51.52-.52.2-.45.66-.49,1.04-.66.33-.16.6-1.05.1-1.15-1.21-.18-.62-1.08-2.12-.1-.69.23-.7,1.43.02,1.62.77.48-.91,2.81-1.7,3.75-.29.27-.61.52-.9.8-.45.43-.95.78-1.43,1.17-.02.02-.03.04-.04.07-.61.4-1.16.59-.97-.38.96-3.11,1.11-7.83,4.46-9.34Zm.48,3.47c-.05-.18-.21-.68.1-.7.52.13.83-1.11,1.24-.22.07.97.43.01.76.37-.12.71-1.61.83-2.1.55Zm-1.18-5.08c-.69.46-.5-1-.65-1.36.51-1.84,1.66.54.65,1.36Zm-.88-5.14c.2-.02.36,0,.43-.26.17-.69.75.19,1.05-.26.3-.43.61.14.94.14.6-.25,1.24.55,1.59.95.25.54-.63.3-.88.51-.22.11-.35.26-.63.06-.39-.22-.6.49-.29.76.64.06.92-.66,1.59-.57.49.14.85-.34,1.26.12-.58.31-.87,1.08-1.66.85-.1.06-.17.16-.24.27-.09.03-.18.06-.27.1-.13.06-.26.14-.4.2-.27-.08-.49-.23-.28-.56.04-.06-.05-.21-.09-.32-.24.02-.31.14-.27.38.09.57-.91.8-1.15.34-.42-.7-.15-.75.37-1.14-.47-.29-1.47,1.17-1.36-.15.4-.5-.66-1.33.31-1.42Zm-.57,2.85c.7-.4.61,2.81.65,3.33.02.53-2.06,5.78-2.45,5.01-.63-1.78.59-3.62.21-5.47-.08-1.18.83-2.09,1.59-2.87Zm-4.63,4.79c.14.1.26.25.46.22.15-.45-.53-.72-.27-1.18.77.06.11,1.16,1.07.14.71-.39,1.17,1.96-.75,1.78-.25-.11-.6-.34-.88-.44-.11-.02-.25.03-.27-.14-.09-.39.33-.48.63-.38Zm-4.11-2.05c.3-.15.5-.31.56-.68.1-.74.81.06,1.18-.28.5-.44.44.82.82.27.06-.9-.92-.49-1.44-.68-.85-.27-.71.9-1.26.99-.62.03-.83-.9-.3-1.2.21-.11.56-.33.51-.58-.32-.92,1.72-.92,1.67-.02.33.29.81-.53,1.16.01.13.17.24.37.52.31.54-.14.52.61.27.84-.79.55.67,1.13-1.18,1.55-.62-.09-.92-.27-1.43-.14-.3.26.03.38.3.34.16.02.12.19.04.25-.59.64-2.79-.5-1.42-.99Zm-1.44,9.31c1.23-2.22,3.44-3.61,4.97-5.57.28-.68.78-.54,1.38-.47.28-.02.63-.17.81-.05.41.66.53,1.66.83,2.41.04.12.06.32.12.37-.01.2,0,.39,0,.59-.09.35.02.76-.15,1.11-.38,1.39-.74,2.8-1.32,4.12,0,0,0,0,0,0-.2.49-.54.9-.79,1.36-.09.17-.21.38-.28.6-.14.09-.24.23-.34.35-1.37,1.85-2.79,3.67-4.25,5.45-4.29,5.93-1.6.4-1.42-2.37.7-2.6-.82-5.46.42-7.91Zm-4.56-11.86c.45-.65.4.11.87,0,.21-.37,0-.77-.54-.68-.74.01-.07-.69.18-.9.06-.06.23-.1.26-.07.33.36.83.15,1.19.38.66.23-.18.74.36.9,1.02.25-.61,1.72-1.11,1.01.19-.31.66-.3.63-.73-.62-.22-1.94,1.74-1.84.08Zm-1.81,5.85c-.07-.42-.6-.8-.99-.6-1.21.17.8-2.1,1.27-1.52.31.28-.12.54-.23.8-.18.34.14.82.51.59.26-.14-.17-.31-.11-.48.58-.46.34-1.65,1.33-1.51.42.01.98.68.59.99-.5,0,.1.51-.01.69-.14.17-.33.29-.52.41-.27.06-.64-.07-.69.33-.02.65-1.01,1.13-1.14.3Zm-.89,5.77c.35-.38.71-1.14,1.32-1.21.51-.1.59-.08.65.44.02.22.14.27.27.37.85.45-.34.72.02,1.3.28.85-1.77,1.39-1.92.43,0-.36.36-.61.56-.88.27-.34.51.04.81-.02-.27-.4-.66-.57-1-.06-.33.51-.87.29-.71-.36Zm.9,5.74c1.08.03,2.14-.85.92-1.64-.52-.32-.99.32-1.08.81-.03.53-1.34,1.86-1.57.98.24-1.14.34-2.33.8-3.41.16-.44.28-.5.76-.35.3.14.48,0,.71-.17.56.01.91-.21,1.01-.8.48-.69,1.21,1.16,1.75,1.13.57.95,1.17,1.95,1.61,2.97,1.47,2.69-.07,5.81-.89,8.47-.89,2.43-2.87,4.38-4.44,6.41-.82.86-1.28,2.27-2.25,2.89-.51-.14-.35-.85-.41-1.27.08-3.2-.09-6.38-.33-9.56.36-2.46,1-5.3,3.44-6.47Zm.7-1.45c.66.05.65,1.14-.06,1.02-.43,0-.49-1.06.06-1.02Zm-5.42-1.89c.36-1.51-.46-1.36,1.49-1.64,3.46,1.46-.07,7.79-.55,10.44-.49.46-.72-2.58-.99-3.03-.41-1.04.9-1.76.87-2.74-.06-.33-.2-.57-.55-.69-.55-.42-.05-1.31-.27-1.91,0-.14-.07-.33,0-.43Zm.39,2.77c.39.35,0,.81-.27,1.1-.57.67-1.02,2.41-2.15,1.99-.55-.21.17-.87-.41-.96-.25-.03-.19-.23-.18-.39.1-.58.77-1.41,1.3-.97,0,.37-.91,1-.28,1.28.05,0,.15-.08.14-.11-.08-.42.23-.59.47-.82.4-.36.67-1.57,1.37-1.11Zm-5.43-3.23c.26.06.41-.27.56-.32,1.34.24.8,1.04-.22,1.08-2.46-.21.14-2.62-.35-.76Zm.2,1.13c1.04-.39,1.66.83,2.61,1.07.5.26,2.15-.11,1.82.79-.28.26-.47.57-1,.53-.79-.06-1.62.93-1.61,1.75.62,1.3.71,1.76,2.27,1.28,1.34.69,1.14,4.23,1.55,5.69-.08.51.53,3.09-.21,2.84-.88-.46-1.62-1.48-1.73-2.5-.22-.83.06-1.5.19-2.32.16-.52-.65-.95-.98-.49-.43.51-.95.25-1.41.1-.57-.33-1.85-.04-1.42.78.25.45.02.94-.25,1.22-.79.41-.47,1.34-.79,2.06-.63.7-1.29-2.82-1.63-3.31-.24-.48-.14-.91.04-1.39-.02-.38.08-.66.52-.71.01,0,.03-.02.04-.03.06-.01.12-.02.18-.04.2-.05.38-.12.51-.29.17-.22.22-.51.23-.79.29-.52.61-1.15.28-1.64-1-.86.03-3.92.79-4.61Zm2.91,9.19c.24-.7.9-.31.68.35-.4,2.1-2.71.65-1.73-.31.12-.13.25-.1.29.11.08.81.89.57.75-.16Zm-1.64.14c-.12.08-.25.16-.33.21-1.32-.23-.17-.96.33-.21Zm-6.39-2.92c-.5-.27-.18-1.16.18-1.51.25-.35.5.11.81.15.64.2.57-.23.09-.28-.52-.23.3-1.16.7-1.18.96-.21.42,1.15.99,1.39-.14.35-.11,1.03-.67.87-.73-.29-1.43.68-2.1.56Zm1.39-.12c.17-.14.38-.21.59-.03.44.49,1.36-1.11.81-1.28.17-.95,1.33-.87,1.44.03.17.63-.9.51-.56.92.09.09.14.19.17.3,0,.05,0,.09-.01.14-.02.18-.06.38-.17.53-.11.14-.29.18-.45.21-.09.02-.19.04-.28.06-.49-.03-1.02.18-1.47.38-1.03.19-.66-.95-.06-1.27Zm.09,5.32c-.21-1.07-.16-2.14-.28-3.14-.02-.43.29-.81.63-.46.21.94.53,1.88.84,2.81.79,1.85,1.4,2.76.8,4.85-.58.87-1.91-3.49-2-4.06Zm-.48,12.27c-2.27-5.2-1.22-3.8.19-8.04.12-.35.42-1.99.9-1.27.56,1.14,1.49,1.9,1.19,3.33-.47,2.26-.78,4.94-1,7.31-.31.79-.96-1.08-1.28-1.32Zm2.41-4.76c.51-2.9.48-5.89,2.02-8.45.16-.36.49-1.07.91-.48.89,1.22,2.3.41,1.83,1.06.58,2.91,3.33,2.79,2.77,4.36-.58,4.42-1.08,8.8-2.53,13.05-.32,2.69-.57,5.4-1.06,8.07-.66,2.76-2.61-2.57-2.92-3.43-2.24-4.36-2.08-9.49-1.02-14.17Zm27.3-14.57c-2.38.38-4.81.86-6.92,2.08-2.51,2.7-4.87,5.71-7.25,8.53-1.86,3.33-4.74,6-6.11,9.62-2.36,6.64-2.6,13.83-2.88,20.72-.38-.79-.47-1.79-.4-2.66.36-2.52-1.49-4.55-1.99-6.83.65.94,1.42,1.9,1.72,3.03-.06.34.4.71.54.29.28-3.76.82-7.55,1.44-11.28.41-1.82.95-3.62,1.47-5.41.72-2.02.18-4.24.84-6.22.26.88-.03,1.91.03,2.83.36.8-.13,1.68.17,2.43,4.02-5.85,8.76-11.26,13.19-16.83.57-.85,1.14-1.89,1.95-2.47-.33,1.28-2.01,2.01-2.06,3.32.92,0,1.73-.59,2.62-.79,1.4-.48,2.93-.41,4.34-.8-.08.34-.41.41-.71.46Zm3.52-.7c-.89.17-1.93.67-2.8.24.25-.07.49-.15.73-.26.44-.08,2.1-1.68,2.08-.84-.06.36.62.7,0,.85Zm2.22-.46c-.71-.41,4.91-1.27,5.2-1-1.6.41-3.54.45-5.2,1Zm7.75-.92c-.48-.23-1.05,0-1.48-.2.37-.22.94-.16,1.28-.25.45-.04.7.38.2.45Zm-9.49.48c2.28-3.29,6.96-3.28,10.17-5.17,0,0,0,0,0,0,.01,0,.02-.01.03-.02,0,0,0,0,0,0,0,0,0,0,0,0,1.37-.94,2.85-.88,4.41-.48.16.03.29.07.18.27-.19.36.22.55.25.85.32.17.32-.31.78.16.78.67,2.18-1.56,1.16-1.9,0,0,0,0,0,0-.36-.46-.68-.71-1.26-.36-.25.07-.57.12-.57.45-.02.45-2.36-.03-2.76-.11.73-.61,1.6-1.09,2.43-1.6.03.02.07.02.1,0,.31-.19.63-.37.94-.57.22-.16.48-.34.65-.57,1.35-1.2,2.89-3.84,4.16-3.16.21.21.5.32.71.21.46-.25.82.21,1.24.11.05-.01.14.05.17.11.7.87.4,2.11.64,3.15.13.69-.42,1.03-.78,1.48-.4.24-.68.65-.98,1-.22.14-.43.28-.65.42-.09.04-.18.09-.27.14-.1.06-.2.13-.29.21-7.73,4.82-10.83,3.86-20.46,5.38Zm15.49-6.03l-.02.02c.22-.66,1-.23,1.52-.25.17,1.17-1.02.77-.48,1.4.03.02-.04.23-.11.27-.32.24-.6-.15-.82-.29-.71.21-.38-.82-.1-1.13.01,0,.03.01.04.02,0-.01-.02-.03-.03-.04Zm17.24,1.65c.41-.25,1.09.76.43.77-.2-.02-.38-.22-.6-.1-.05.41,1.09.54.45.86-.75.24-.75-.81-1.3-1.03-.03-.54.55-.67,1.02-.51Zm-.41-1.95s0-.05,0-.08c-.5-.13-3.32-.26-1.75-.96.94-.31,1.99-1,3-.66.8,1.33-.02,1.54-1.24,1.69Zm1.76-1.26c-.18-1.3.77-.45,1.08-.76-.04-.5-.75-.37-1.1-.35-.85.07-.52-.65-.2-1.06.37-.62.88-.07,1.44-.07h0c.26-.21.45,0,.64.12,1.27.67-.47,1.19.11,1.39.44-.41.83-.19.84.36-.07.28-.49.36-.77.33-.59-.07-1.74.67-2.03.03Zm3.93,3.32c-.13-.08-.41-.19-.51-.13-.17.13.02.24.1.34.41.47-.48.67-.67.73-.99-.02-1.57-1.31-.68-1.66.21.04.41.13.61-.06-.21-.41-1-.4-1.27.07-.12.21-.4.36-.7.27-.58-.12-.84-1.26-.02-1.16.42.11.35-.3.04-.43-.14-.04-.33.03-.46-.09.24-.31.61-.67,1.07-.49.05.02.17-.06.23-.12.39-.45.64-.22,1.01.03.51.25.12.49.17.94.33,0,.61-.19.79-.46.37.43-.27.96.28,1.27.36.15.62,1.1,0,.94Z"/>
        <path class="cls-1" d="m50.81,7.53s.01,0,.02,0c0,0,.02-.02.03-.03-.01,0-.02,0-.04.01,0,0,0,0,0,.01Z"/>
        <path class="cls-1" d="m20.25,61.54s0,.02,0,.04c0,0,0-.01,0-.02v-.02Z"/>
        <path class="cls-1" d="m20.31,61.32c-.01.06-.03.12-.04.18.03-.06.09-.13.04-.18Z"/>
        <path class="cls-1" d="m20.26,61.51s-.01.02-.02.03v.02s.01-.03.02-.05Z"/>
        <path class="cls-1" d="m42.4,2.36c.43-.63.34.04.78-.03.13-.33-.28-.58-.61-.53-.62-.03-.7,1.11-.16.57Z"/>
        <path class="cls-1" d="m44.92,1.86c.01-.3-.55-.4-.73-.21-.09.18.63.28.73.21Z"/>
        <path class="cls-1" d="m6.64,25.62c-.02.17.05.31.13.45.21-.29.04-.74.56-.73.35-.72-.81-.25-.69.28Z"/>
        <path class="cls-1" d="m49.57,5.07c.14-.44.47-.54.88-.52.02,0,.05-.07.07-.11-.14-.65-1.76.6-.95.64Z"/>
        <path class="cls-1" d="m25.28,15.62c-.17-.08-.24-.3-.39-.05.15.04.3.23.39.05Z"/>
        <path class="cls-1" d="m60.5,16.59c-.07-.29-.34-.38-.59-.5.15.24.26.5.59.5Z"/>
      </g>
    </g>
  </g>
</svg>