<?xml version="1.0" encoding="UTF-8"?>
<svg id="_レイヤー_2" data-name="レイヤー 2" xmlns="http://www.w3.org/2000/svg" viewBox="0 0 215 43.24">
  <defs>
    <style>
      .cls-1 {
        fill: #aab849;
        fill-rule: evenodd;
      }

      .cls-1, .cls-2 {
        stroke-width: 0px;
      }

      .cls-2 {
        fill: #c9a063;
      }
    </style>
  </defs>
  <g id="_出欠" data-name="出欠">
    <g>
      <path class="cls-1" d="m92.78,36.39c-33.26.53-66.41,1.74-80.29,2.94-8.67.76-12.48,1.71-12.48,3.11,0,.84,1.74.95,6.96.53,11.44-.93,19.74-1.35,40.26-2.1,31.37-1.12,40-1.26,76.11-1.26s43.37.14,65.74,1.18c12.63.59,24.11.64,25.3.14.7-.31.78-.45.44-.78-1.37-1.21-8.15-1.77-36.11-2.92-21.96-.9-59.26-1.26-85.92-.84Z"/>
      <g>
        <path class="cls-2" d="m41.28,2.31c.1,2-5.85,16.95-7.1,20.1.35-.1,3.75-1.65,3.75-.55,0,.8-3.8,1.85-4.2,1.95-.9,1.8-2.35,6.75-3.85,11.8-1.5,5.1-2.45,7.9-3.65,7.6-1-.25-1.5-2-1.5-2.7,0-2.55.9-4.25,1.65-6.7-.9-2.85-1.95-5.45-3.65-8.1-1.35.2-2.4.25-4.6.25-.25.3-7.1,9.6-8.85,9.65-1.95.05-2.5-3.4-2.5-4.55.05-2.1.7-3.4,2.25-3.35,1.1.05,1.65,1.05,1.65,1.75,0,1.15-1.2,2.55-1.75,4.35-.1.35-.25.8.1.75,1.15-.2,6.5-7.35,7.65-8.8-2.35-.05-7.2-1.95-7.2-4.85,0-1.75,2.45-2.6,3.85-2.6,2.6,0,5.15,1.35,7,3,2.75-3.3,15.55-19.3,17.7-20.65,1.25-.8,3.15-.4,3.25,1.65Zm-21.5,19.65c-1.7-1.9-7.35-4.3-7.35-1.15,0,2.05,4.95,2.9,5.75,3.15l1.6-2Zm-.15,2.3c.85.15,1.4.2,2.4.25-.4-.5-1.15-1.25-1.4-1.5-.4.45-.55.65-1,1.25Zm1.7-2.1c.8.8,1.15,1.45,1.9,2.3,2.4-.05,4.05-.35,6.4-.75,3.15-8.7,5.05-14.1,7.3-20.2-5.25,6-12.55,15-15.6,18.65Zm7.95,2.6c-2.15.5-3.25.6-5.4.8,1.5,2.5,2.1,3.4,3.2,5.85.85-2.85,1.35-3.8,2.2-6.65Z"/>
        <path class="cls-2" d="m41.53,37.61c-1.75-.15-2.75-.9-2.75-2.6-.05-5.3,6.3-14.85,8.7-19.55h-4.55c-.15-.1-.1-.45.1-.65,2.05.05,3.05-.05,4.7,0,1.9-3.15,4.4-8.8,5.7-8.8.85,0,1.85.45,1.85,1.95,0,1.05-2.85,5.7-3.6,6.95,3.3-.05,5.6,0,8.8-.1,1.9-3.15,4.4-8.8,5.7-8.8.85,0,1.85.45,1.85,1.95,0,1.05-2.85,5.7-3.6,6.95.85,0,3.7-.1,4.9-.05.1.15-.05.55-.25.55-2.15.1-3.25.05-4.95.15-1.7,2.85-12.35,21.05-10,21.25,3.75.3,8.3-4.2,12-8.5.6-.7.95-.2,0,.95-2.7,3.15-7.45,8.35-11.85,8.35-1.75,0-2.75-.9-2.75-2.6s.25-2.8,1.2-5.05c-3.3,3.5-8.05,7.95-11.2,7.65Zm18.7-22.15l-8.85.1c-1.7,2.85-12.2,20.25-10.05,21.25,2.05.95,7.95-3.7,12.05-8.5,2.1-4.55,5.2-9.65,6.85-12.85Z"/>
        <path class="cls-2" d="m66.48,30.91c0-4.85,4.35-10.1,9.85-10.05,1.2,0,4.85.35,4.85,2,0,2.7-6.85,3.4-8.85,3.7-1.6,1.25-3.65,9.25-.55,9.4,3.1.15,8.5-5.05,10.75-7.7.55-.65.95-.15,0,1-2.2,2.55-6.95,7.2-10.85,7.4-3.5.2-5.2-3.15-5.2-5.75Zm6.1-4.9c2-.1,6.2-.55,6.2-3.3,0-.65-.25-1.15-.95-1.15-2.25,0-4.1,2.75-5.25,4.45Z"/>
        <path class="cls-2" d="m93.48,31.56c.15-5.3,6.3-11,5.6-11.1-2.85-.4-15.65,16-16.65,16.05-.85.05-1.2-.5-1.2-1.1,0-1.3,3.1-11.3,5.1-11.45,1.4-.1,2.2,1.1,2.2,1.65,0,.95-3.05,5.55-3.9,7.2,1.2-1.05,12-13.65,15.15-13.7,1.25,0,2.25.85,2.2,2.05-.2,5.4-7.5,14.45-5.1,14.45,2.55,0,6.5-3.85,9.45-7.25.6-.7.95-.15,0,1-2.2,2.55-6.5,7.15-9.6,7.15-2.2,0-3.35-1.85-3.25-4.95Z"/>
        <path class="cls-2" d="m117.88,32.01c0-.95-.05-1.9.1-2.95-2,2-6.25,7.35-9.8,7.35-1.4,0-2.65-1.65-2.65-2.85,0-6.15,7.7-13.8,13.9-11.1C120.73,16.96,129.63.01,134.38.01c.7,0,1.6-.2,1.65,1,.2,5.25-8.1,16.55-11.5,19.35-1.75,3.95-4.25,9.25-4.25,13.65,0,1,.05,2.7,1.35,2.65,2.2-.1,6.6-5.3,9.2-8.35.6-.7,1-.05,0,1.05-2.25,2.45-6.45,7.85-9.45,7.85-2.75,0-3.5-3.05-3.5-5.2Zm1.4-9c-5.45-2.15-12.05,12.45-10.15,12.6,1.75.15,7.3-5.8,9.05-7.6.4-2.4.65-3.7,1.1-5Zm5.65-3.95c3.3-2.35,10.9-14.65,10.45-18.1-.25-2.1-9.55,15.85-10.45,18.1Z"/>
        <path class="cls-2" d="m153.43,28.31c.6-.7,1-.15,0,.95-2.25,2.45-7.2,7.55-10.15,8.15-1.7.35-3.2-1.45-3.1-3.25.1-2.2,1.15-3.65,1-3.95-.1-.2-7.45,6.45-9.9,6.45-1.3,0-2.05-.95-2.05-2.1,0-6.95,10-13.6,17.35-13.55.9,0,3.35.1,3.35,1.4,0,.5-.6.95-1.1.95-.6,0-1.15-.9-1.55-1.25-1.1-.95-2.8-.5-4,.1-3.15,1.55-10.85,10-11.45,13.4-.2,1,1.9-.35,4.4-2.45,2.4-2,4.55-4.3,6.65-5.85.85-.6,2.25-.45,2.45.85.25,1.75-.7,3-1.85,6.25-.35,1-.6,2.3,0,2.2,2.05-.3,7.35-5.25,9.95-8.3Z"/>
        <path class="cls-2" d="m164.38,31.56c.15-5.3,6.3-11,5.6-11.1-2.85-.4-15.65,16-16.65,16.05-.85.05-1.2-.5-1.2-1.1,0-1.3,3.1-11.3,5.1-11.45,1.4-.1,2.2,1.1,2.2,1.65,0,.95-3.05,5.55-3.9,7.2,1.2-1.05,12-13.65,15.15-13.7,1.25,0,2.25.85,2.2,2.05-.2,5.4-7.5,14.45-5.1,14.45,2.55,0,6.5-3.85,9.45-7.25.6-.7.95-.15,0,1-2.2,2.55-6.5,7.15-9.6,7.15-2.2,0-3.35-1.85-3.25-4.95Z"/>
        <path class="cls-2" d="m183.13,37.11c-3.4-.05-5.25-2.6-5.25-5.45,0-5.45,4.9-11,11.05-11,1.85,0,2.85,1.7,2.85,3.35,0,.95-1.15,3.8-2.25,3.8-.65,0-.85-.55-.85-.95,0-1.65,2-2.6,2-4.25,0-.8-.5-1.1-1.15-1.2-4.45-.7-7.85,9.1-7.85,12.75,0,1.6.4,2.25,2.05,2.15,4.05-.5,8.4-4.8,11.4-8.05.65-.7,1-.2,0,.9-2.5,2.7-7.85,7.95-12,7.95Z"/>
        <path class="cls-2" d="m201.03,36.66c-3.5.2-5.2-3.15-5.2-5.75,0-4.85,4.35-10.1,9.85-10.05,1.2,0,4.85.35,4.85,2,0,2.7-6.85,3.4-8.85,3.7-1.6,1.25-3.65,9.35-.55,9.5,1.95.1,4.85-1.9,7.25-4.05.2-.15.4.35.1.7-2,2.3-5,3.85-7.45,3.95Zm.9-10.65c2-.1,6.2-.55,6.2-3.3,0-.65-.25-1.15-.95-1.15-2.25,0-4.1,2.75-5.25,4.45Z"/>
      </g>
    </g>
  </g>
</svg>