<?xml version="1.0" encoding="UTF-8"?>
<svg id="_レイヤー_2" data-name="レイヤー 2" xmlns="http://www.w3.org/2000/svg" viewBox="0 0 55.89 79.74">
  <defs>
    <style>
      .cls-1 {
        fill: #3e3a39;
        stroke-width: 0px;
      }
    </style>
  </defs>
  <g id="_プロフィール" data-name="プロフィール">
    <g>
      <path class="cls-1" d="m40.98,17.98c-6.81,1.81-21.31-4.37-27.5-6.7,1.8,2.91-1.24,6.02-6.18,7.69-9.21,2.88-28.4,5.23-39.07,3.05-1.31-.36-4.16-.81.28-3.85,1.59-1.08,2.92-1.43,4.27-.8,1.79.84-1.11,2.01-2.48,2.91-1.13.74-1.42,1.17-.18,1.29C-20.75,22.03.02,18.06,9.14,14.69c3.81-1.52,1.32-3.26.53-4.34-.91-1.28,1.95-1.68,3.22-1.01,7.32,2.89,30.44,8.12,28.22,5.12-3.11-5.29-20.19-8.03-36.58-5.71-16.44,1.68-32.19,8.43-33.91,7.45-1.03-.55.48-2.26,1.94-3.09C-22.57,10.1-9.04,5.63,2.97,3.96c12.04-2.02,22.55-1.23,22.21-1.73C24.1.51,7.41-.77,4.27-2.7c-1.07-.82.32-1.84,2.77-2.85,3.76-1.54,5.95-1.06,6.73-.33,1.81,1.69-2.83,2.75-5.05,3.03,3.3,1,19.52,3.35,21.84,6.9.44.58.07,1.43-.93,1.67-2.29.59-13.08-.19-24.69,1.33-11.54,1.22-23.9,4.75-27.82,6.98C-14.8,11.59-.17,7.26,13.38,6.88c13.51-.71,25.94,2.52,28.75,7.56.74,1.26,1.27,2.89-1.16,3.55Z"/>
      <path class="cls-1" d="m8.98,26.19c.32,0,.68.04,1.17.06,2.28.16,4.39.33,6.46.46.45-1.38,2.3-2.7,5.05-2.81,2.04-.09,4.02,1.06,1.98,2.18-1.52.88-3.84,1.15-5.94,1.11.03,1.5,3.64,2.32,4.73,4.28.55.97-.37,1.84-1.49,2.02-.85.13-3.57-.73-6.92-1.35-3.69-.66-7.89-.97-9.84.05-.84.43-.65,1.33,2.89,2.59,4.44,1.58,9.35,2.38,13.69,3.06.95.16.6.62-.93.35-4.32-.88-13.33-1.97-17.08-5.2-1.8-1.62-.34-3.38,2.69-3.95,5.24-.99,11.93,1.91,12.2.62.28-.94-.88-1.45-.85-2.35-3.05-.33-4.44-.38-7.73-.61-1.52-.09-1.51-.56-.1-.51Zm8.92.59c4.02,0,7.94-1.87,4.72-1.81-2.02.04-3.85.78-4.72,1.81Z"/>
      <path class="cls-1" d="m18.69,42.39c2.15-.91,10.45-1.47,12.16.19,1.25,1.18.32,1.9-.34,2.12-2.5.81-9.65-1.84-12.36-.76-.68.27-.77.64-.4,1.12,1.31,1.59,6.8,3.36,10.51,4.18.79.18.51.56-.78.28-2.87-.69-8.32-2.09-10.41-4.48-.8-.92.09-2.05,1.62-2.64Zm15.24,1.77c-.49-.94.02-1.76,1.3-2.12,1.23-.35,2.48.32,2.79.99.41.88-.17,1.67-1.31,2-1.23.35-2.31.03-2.78-.87Z"/>
      <path class="cls-1" d="m30.74,60.42c.69-.27,1.36-.57,2.18-.77-2.05-.73-7.33-1.88-8.68-4.12-.53-.89.23-2.18,1.16-2.54,4.86-1.89,13.56,1.11,12.89,5.78,4.45-.75,20.55.94,21.02,3.76.07.41.33.9-.68,1.2-4.37,1.32-14.48-.87-17.48-2.28-3.4-.06-8.01-.18-11.12,1.08-.71.28-1.87.81-1.43,1.61.77,1.36,5.6,2.66,8.38,3.45.64.18.29.62-.72.29-2.27-.73-7.16-1.85-8.11-3.74-.87-1.74,1.02-3.1,2.59-3.71Zm7.09-1.6c.32-4.12-13.27-4.26-12.65-2.92.57,1.14,6.77,2.96,8.57,3.59,1.9-.41,2.96-.6,4.07-.67Zm4.41,2.53c2.58,1.45,13.46,3.01,16.36,1.98,1.71-.65-14.53-2.07-16.36-1.98Z"/>
      <path class="cls-1" d="m34.1,76.13c-1.12-2.16.59-4.19,2.34-4.93,3.27-1.37,7.94-.1,9.23,3.35.29.75,1.02,3.15-.03,3.63-1.75.77-4.07-3.36-4.77-4.52-1.25-.65-7.15.36-6.35,2.37.48,1.26,2.59,2.53,4.65,3.43.16.08-.11.36-.42.27-2.05-.61-3.9-2.07-4.65-3.59Zm7.2-2.48c.58,1.23,1.99,3.75,3.79,2.96.42-.19.68-.49.5-.92-.57-1.41-2.86-1.8-4.29-2.04Z"/>
    </g>
  </g>
</svg>