<?xml version="1.0" encoding="UTF-8"?>
<svg id="_レイヤー_2" data-name="レイヤー 2" xmlns="http://www.w3.org/2000/svg" viewBox="0 0 200 60.64">
  <defs>
    <style>
      .cls-1 {
        fill: #aab849;
        fill-rule: evenodd;
      }

      .cls-1, .cls-2 {
        stroke-width: 0px;
      }

      .cls-2 {
        fill: #c9a063;
      }
    </style>
  </defs>
  <g id="_プロフィール" data-name="プロフィール">
    <g>
      <path class="cls-1" d="m86.3,53.43c-30.94.38-61.77,1.24-74.69,2.1-8.06.54-11.61,1.22-11.61,2.22,0,.6,1.62.68,6.48.38,10.65-.66,18.36-.96,37.45-1.5,29.18-.8,37.21-.9,70.8-.9s40.34.1,61.15.84c11.75.42,22.43.46,23.53.1.65-.22.72-.32.41-.56-1.27-.86-7.58-1.26-33.59-2.08-20.43-.64-55.12-.9-79.93-.6Z"/>
      <g>
        <path class="cls-2" d="m76.07,49.03c-.44-1.76-1.98-6.6-4.12-9.9-1.87.17-3.79.39-5.28.22-3.41,6.27-5.88,11.66-6.93,12.37-1.1.77-4.23-.6-3.85-2.25.22-.88,2.8-5.33,6.21-11.11-2.47-.83-4.23-2.25-4.34-4.18-.11-1.98,2.64-2.97,4.29-2.97,1.43,0,2.58.22,3.91.94,5.77-10.34,9.18-15.73,8.41-15.73-1.26.06-7.92,5.94-10.39,5.72-2.09-.17-2.14-1.76-2.2-2.8-.05-1.21,1.04-3.41,2.53-3.41,3.52,0-.88,4.89.88,4.89,1.92-.05,9.62-6.32,11-6.38.99,0,2.69.33,2.75,1.48,0,.38-4.95,9.51-9.68,18.42,1.49,1.7,2.04,2.14,3.08,3.46,3.24-.44,6.1-1.15,9.46-2.31C89.76,19.67,101.92-1.56,108.13.09c3.03.82,1.98,2.03-1.04,1.15-5.22-1.54-17.54,23.48-21.28,33.27,2.42-.77,4.89-1.92,5.06-.99-.11.77-3.74,1.87-5.55,2.47-1.49,3.85-2.75,7.09-4.07,11.05-1.49,4.4-1.92,8.52-3.46,12.81-.17.55-1.04.77-1.04.77-1.54,0-2.58-2.75-2.64-3.79-.11-2.69,1.04-5.5,1.98-7.81Zm-10.89-15.78c-1.1-.49-4.23-1.43-5,.28-.61,1.32.6,2.91,2.69,3.63l2.31-3.9Zm2.14,5c1.32.22,2.58,0,3.79-.22-.88-1.1-1.54-1.92-2.42-2.53-.55,1.04-.93,1.87-1.38,2.75Zm13.64-.66c-3.02.82-4.62,1.1-7.7,1.48,1.98,2.75,3.02,4.18,4.23,6.71,1.1-2.75,1.65-4.29,3.46-8.19Z"/>
        <path class="cls-2" d="m102.47,47.88c-2.03,3.19-5.28,6.1-7.92,6.1-2.8,0-4.73-3.41-4.67-5.94.17-6.43,5.94-13.36,13.97-13.2,1.16,0,2.92.77,2.92,1.87,0,.17-.06.27-.28.27-.77,0-1.32-.77-2.14-.77-6.16.06-12.98,16.72-9.35,16.94,1.81.11,4.73-2.58,6.65-5.55-1.59-.66-2.58-2.47-2.58-4.34,0-1.76,1.32-4.51,3.19-4.45,1.65.05,2.47,1.7,2.42,3.24-.05,1.54-.66,3.24-1.81,5.11,2.53.33,4.4-1.43,6.21-3.35.71-.71,1.04-.33,0,.94-1.65,1.87-3.85,3.46-6.6,3.13Zm-.27-1.04c1.48-2.36,2.36-6.65.66-6.76-1.21-.06-1.76,2.09-1.87,3.02-.17,1.32,0,2.92,1.21,3.74Z"/>
        <path class="cls-2" d="m116,37.71c0-2.36.77-6.43,4.12-6.38,2.03.05-1.38,4.12-1.82,4.73,0,3.63,1.71,6.27,1.87,9.95.05,1.59-.17,2.47-1.1,3.74,3.02-1.98,4.84-3.41,7.26-6.05.66-.77,1.16-.11,0,1.04-2.36,2.47-4.45,4.34-7.97,6.05-1.76,1.92-4.84,3.24-7.42,3.24-1.92,0-4.01-.71-4.01-2.97,0-1.43.77-2.47,2.31-2.47,1.81,0,2.58.77,4.89,1.48,2.03-3.35,2.14-7.37,1.92-11.44-1.76,1.98-3.41,4.12-5.33,6.21-.88.99-1.43.66-.66-.27.17-.22.39-.44.66-.77,1.76-2.03,3.19-3.74,5.28-6.1Zm-5.17,12.04c-.77-.06-2.47.55-2.47,2.2,0,.94.6,1.54,1.59,1.54,1.76,0,2.86-1.43,3.9-2.75-1.16-.6-1.81-.88-3.02-.99Zm8.85-17.71c-.66,0-1.65,1.7-1.48,2.97.77-.77,2.36-2.97,1.48-2.97Z"/>
        <path class="cls-2" d="m132.78,51.89c.93-.38,1.48.33,0,1.04-1.92.94-3.08,1.04-4.07.99-1.92-.11-3.02-.99-3.02-2.86-.06-5.83,6.93-16.39,9.57-21.56,0,0-4.78.06-5.11.06-.17-.11-.11-.5.11-.72,2.25.06,3.41,0,5.22.06,2.09-3.46,4.89-9.73,6.32-9.73.93,0,2.04.5,2.04,2.15,0,1.15-3.13,6.27-3.96,7.64.94,0,2.92-.11,4.23-.06.11.17-.05.6-.27.6-2.37.11-2.42.06-4.29.17-1.87,3.13-13.75,23.26-11.16,23.59,1.38.17,2.69-.66,4.4-1.38Z"/>
      </g>
    </g>
  </g>
</svg>