<?xml version="1.0" encoding="UTF-8"?>
<svg id="_レイヤー_2" data-name="レイヤー 2" xmlns="http://www.w3.org/2000/svg" viewBox="0 0 70 87.93">
  <defs>
    <style>
      .cls-1 {
        fill: #3e3a39;
        stroke-width: 0px;
      }
    </style>
  </defs>
  <g id="_出欠" data-name="出欠">
    <g>
      <path class="cls-1" d="m12.46,57.42s0,.02-.01.03c0,0,0,0,0,0,.01,0,.02-.04.02-.04Z"/>
      <path class="cls-1" d="m17.63,62.08s0,0,0,0c0,0,0,0,0-.01,0,0,0,.02,0,.02,0,0,0,0,0,0Z"/>
      <path class="cls-1" d="m68.59,53.53c-.52-.95-1.2-1.81-2.08-2.46-.87-.64-1.92-.97-2.99-.96-.05,0-.08.01-.12.03-.46-1.17-1.11-2.25-2.15-3.02-.87-.65-1.89-.97-2.93-1.13,0-.03.02-.07.02-.1.23-3.39.35-7.29-1.96-10.06-1.16-1.38-2.81-2.2-4.51-2.71-1.87-.56-3.83-.79-5.76-1.04-2.23-.29-4.46-.51-6.7-.66-2.19-.14-4.39-.25-6.58-.14-3.9.18-7.92,1.15-10.9,3.82-.51.46-.98.97-1.39,1.52-.23-1.07-.36-2.17-.41-3.27-.07-1.45-.04-2.93.21-4.36.1-.61.25-1.22.45-1.8.28.02.57,0,.85-.03.37-.05.74-.19.91-.55.2-.41.03-.88-.06-1.29-.14-.62-.28-1.24-.42-1.85,3.85-2.15,7.84-4.48,10.19-8.35,1.09-1.8,1.78-3.89,1.7-6.01-.07-1.88-.76-3.71-1.88-5.22-1.15-1.54-2.7-2.75-4.52-3.39-1.75-.62-3.69-.63-5.48-.12-1.77.51-3.42,1.51-4.65,2.89-1.4,1.57-2.15,3.55-2.34,5.63-.08.87-.06,1.72.04,2.57-1.09-.74-2.36-1.22-3.65-1.47-1.56-.3-3.23-.3-4.76.18-3.22,1-5.6,4.04-6.41,7.23-.42,1.68-.46,3.54.18,5.16.33.84.81,1.6,1.47,2.22.66.61,1.44,1.08,2.26,1.45.86.39,1.76.69,2.65,1,1.06.37,2.11.74,3.17,1.11.88.31,1.79.67,2.74.71-.16.78-.33,1.57-.49,2.35-.07.36-.24.79-.14,1.16.12.45.57.62.99.52.41-.1.82-.34,1.2-.52.28-.13.56-.25.84-.38.24,1,.6,1.98,1.02,2.92.51,1.16,1.12,2.28,1.82,3.33.32.48.67.95,1.04,1.4-.4,1.48-.5,3.06-.24,4.57.04.23.09.45.16.68-.47.1-.93.25-1.37.47-.72.36-1.34.9-1.77,1.59-.37.59-.59,1.25-.75,1.92-.96.03-1.89.35-2.73.8-.85.47-1.62,1.1-2.2,1.88-.06.01-.13.02-.19.04-.54.15-1.06.53-1.32,1.03-.24.47-.19.96-.11,1.45.02.12.05.25.08.38-.34.09-.66.24-.92.47-.47.42-.62.98-.53,1.53-1.29,2.67-2.96,5.42-2.87,8.48.04,1.46.39,3.07,1.57,4.04.98.8,2.21,1.25,3.4,1.6.31.09.62.17.93.25-.23,1.48-.29,3.01.1,4.46.17.62.42,1.24.8,1.76.4.56.91.95,1.5,1.29,1.52.87,3.28,1.33,5.03,1.3,1.68-.03,3.48-.5,4.89-1.44.76-.5,1.39-1.16,1.84-1.95.44-.78.7-1.64.86-2.52.85.12,1.69.24,2.54.34,2.32.28,4.66.47,7,.59-.88,1.59-2.13,2.98-3.42,4.25-.47.46-.95.91-1.43,1.35-.31-.24-.67-.43-1.03-.49-.77-.13-1.37.41-1.96.81-.64.43-1.27.86-1.91,1.29-.07,0-.13.02-.18.06-.94.7-1.14,2.07-.3,2.94.38.4.94.63,1.5.6.37-.02.72-.14,1.05-.3.08-.02.15-.05.22-.1,0,0,.01-.02.02-.02.14-.08.27-.16.4-.25.55-.37,1.09-.74,1.64-1.12.48-.33,1.08-.64,1.35-1.18.27-.54.14-1.15-.19-1.62,1.94-1.8,3.9-3.68,5.14-6.05.02-.04.04-.09.07-.13.7.03,1.4.05,2.1.06-.52,2-1.04,3.99-1.55,5.99-.35.02-.7.11-.99.29-.63.4-.76,1.2-.97,1.86-.23.72-.45,1.44-.68,2.16-.05.05-.1.11-.12.2-.31,1.18.51,2.35,1.72,2.46.57.05,1.14-.17,1.55-.57.22-.22.38-.48.51-.75.05-.05.1-.11.11-.18,0-.03,0-.07.01-.1.06-.15.11-.29.16-.44.2-.61.38-1.23.58-1.85.19-.61.52-1.34.29-1.98-.2-.56-.72-.91-1.29-1.03.52-2.01,1.04-4.02,1.56-6.03.51,0,1.02,0,1.54,0,.11,2.1,1.02,4.14,2.57,5.58-.02.02-.05.04-.08.06-.46.39-.81.97-.74,1.6.07.66.57,1.04,1.08,1.38.56.38,1.11.76,1.67,1.14.26.18.52.36.79.51,0,0,.01.02.02.02.06.05.14.09.22.1.19.09.37.17.58.23.56.14,1.16.07,1.64-.26,1.14-.79,1.11-2.4.02-3.21-.05-.04-.12-.06-.18-.06-.57-.38-1.13-.76-1.7-1.15-.26-.17-.52-.35-.78-.52-.27-.18-.55-.37-.88-.43-.31-.06-.62,0-.9.12-1.46-1.28-2.38-3.16-2.49-5.1,2.02-.02,4.04-.11,6.06-.26.77,2.53,3.02,4.56,5.66,4.94,2.82.4,5.69-.89,7.14-3.36.7-1.2,1.06-2.61.98-4,1.48.71,3.32.49,4.78-.17.8-.36,1.54-.89,2.08-1.58.7-.9,1.15-2,1.44-3.09.3-1.11.44-2.27.54-3.41.1-1.2.19-2.41.22-3.62.05-2.38-.25-4.78-1.4-6.9Zm-43.1,31.2c-.67-.3-.86-1.21-.36-1.73.03,0,.05,0,.08,0,.09-.02.18-.04.27-.06.02,0,.06,0,.07,0,.06,0,.11,0,.17,0,.04,0,.08,0,.12,0,.01,0,.02,0,.03,0,0,0,.01,0,.02,0,.1.02.19.04.28.07.01,0,.13.06.05.02.04.02.07.04.11.06.04.02.07.04.1.06,0,0,.04.03.05.04.05.05.11.09.16.15.01.01.08.1.02.02.02.03.05.07.07.1.02.03.04.07.06.11,0,0,0,0,0,.01,0,0,0,0,0,.01.02.07.04.14.06.22,0,0,0,.01,0,.02,0,.03,0,.05,0,.08,0,.08,0,.15,0,.23,0,.03,0,.07,0,.1,0,.01,0,.02,0,.03,0,0,0,0,0,.02-.01.06-.03.12-.05.19,0,0,0,.02-.01.03-.01.02-.02.04-.03.06-.04.02-.07.04-.11.06-.36.18-.78.28-1.16.11Zm3.79-1.84c-.45.31-.9.62-1.35.92-.07.05-.13.09-.2.14-.01-.32-.09-.65-.26-.93-.26-.42-.65-.7-1.09-.84.57-.39,1.14-.78,1.73-1.16.17-.11.34-.22.55-.21.23.02.44.15.63.28.31.22.66.53.7.93.04.43-.39.67-.69.87Zm18.27,1.71c-.48.35-1,.22-1.49-.03-.01-.02-.02-.04-.03-.06,0,0,0,0,0,0,0-.01,0-.02-.01-.03-.02-.06-.03-.12-.05-.19,0,0,0,0,0-.01,0,0,0,0,0-.02,0-.04,0-.08,0-.12,0-.07,0-.14,0-.21,0-.03,0-.07,0-.1,0,0,0-.01,0-.02.01-.08.04-.15.06-.22,0,0,0,0,0-.01,0,0,0,0,0-.01.02-.04.04-.07.06-.11.02-.03.04-.05.05-.08,0,0,.02-.03.04-.04.05-.06.11-.11.17-.16.01,0,.03-.02.04-.03.03-.02.06-.04.09-.06.03-.02.07-.04.1-.05,0,0,.05-.02.07-.03.09-.03.19-.05.28-.07,0,0,.02,0,.02,0,0,0,.01,0,.03,0,.04,0,.08,0,.12,0,.05,0,.1,0,.15,0,.01,0,.07,0,.09,0,.09.01.18.03.27.06.03,0,.05,0,.08,0,.43.45.36,1.22-.14,1.6Zm-3.11-3.74c.24.1.46.28.68.43.26.17.52.35.78.52.18.12.36.24.54.37-.44.14-.83.42-1.09.84-.17.28-.25.6-.26.92l-1.21-.82c-.21-.14-.42-.28-.62-.42-.15-.11-.32-.25-.39-.43-.15-.39.17-.78.44-1.01.29-.25.73-.57,1.13-.4ZM21.68,26.27c-.26.08-.56.08-.83.07-.31-.01-.61-.07-.9-.16-.24-.08-.54-.17-.72-.35-.02-.02-.04-.04-.05-.07.07-.09.15-.17.24-.25.62-.54,1.24-1.07,1.86-1.61.06.26.12.52.18.78.08.36.16.72.25,1.07.03.12.09.28.08.4,0,.09-.01.08-.1.11Zm-4.43-21.36c.92-1.45,2.3-2.57,3.86-3.27,1.54-.69,3.32-.96,4.98-.65,1.73.32,3.3,1.22,4.51,2.48,1.21,1.25,2.06,2.84,2.37,4.56.35,1.87-.05,3.83-.86,5.54-1.88,3.94-5.62,6.4-9.29,8.49-.1.06-.21.12-.31.17.71-1.43,1.42-2.86,2.13-4.3.25-.5-.5-.93-.75-.44-.68,1.38-1.37,2.76-2.05,4.13-.05-.84-.16-1.67-.37-2.49-.13-.54-.97-.31-.83.23.23.93.35,1.89.36,2.84-2.38-3.47-4.81-7.18-5.08-11.48-.13-2.02.23-4.09,1.32-5.82Zm-8.44,22.08c-.95-.33-1.9-.66-2.85-1-1.52-.55-3.14-1.25-4.08-2.63-.92-1.34-1.12-3.02-.94-4.61.35-3.07,2.32-5.99,5.09-7.38,1.29-.64,2.77-.8,4.19-.69,1.46.12,2.92.54,4.17,1.31.28.17.54.36.78.57.05.04.1.07.15.09.36,1.77,1.04,3.47,1.89,5.09-.23.68-.34,1.41-.41,2.12-.08.83-.11,1.66-.15,2.49-.08,1.46-.25,2.91-1.04,4.17-.25.39-.55.75-.91,1.04-.31-.88-.47-1.8-.45-2.74,0-.23-.2-.43-.43-.43s-.43.2-.43.43c-.02,1.03.15,2.07.51,3.04-1.09-.52-1.98-1.22-2.73-2.16-.15-.18-.46-.15-.61,0-.18.18-.15.43,0,.61.58.72,1.29,1.35,2.08,1.84-.3-.03-.61-.1-.9-.18-.99-.28-1.95-.66-2.92-1Zm4.54,5.08c-.08.04-.16.07-.24.11,0,0-.05.02-.1.04.04-.12.05-.3.07-.41.04-.19.08-.39.12-.58.16-.74.31-1.49.47-2.23,0,0,0,0,0,0,.32-.06.63-.17.93-.32.01.01.02.02.04.04.78.58,1.56,1.16,2.34,1.73-1.21.54-2.42,1.09-3.63,1.63Zm4.56,4.54c-.6-1.06-1.11-2.17-1.51-3.31-.17-.48-.31-.97-.42-1.47.69-.31,1.37-.62,2.06-.93.33-.15.23-.58,0-.75-.89-.66-1.79-1.33-2.68-1.99.01,0,.02-.02.03-.03,1.22-1.05,1.8-2.69,2-4.24.21-1.66.1-3.35.41-5,0-.02,0-.04.01-.06.57.99,1.18,1.94,1.81,2.87.32.48.64.95.97,1.42.03.05.08.09.13.13,0,0,0,0,0,0-.67.58-1.38,1.14-2.03,1.76-.3.29-.47.7-.29,1.1.16.34.49.54.81.69.23.1.47.19.71.25-.41,1.2-.57,2.48-.65,3.73-.09,1.51-.03,3.03.17,4.53.1.77.24,1.53.44,2.28,0,.02.01.03.02.04-.2.39-.38.79-.53,1.2-.54-.71-1.02-1.46-1.46-2.24Zm1.83,4.07c.32-1.54.95-3.02,2.02-4.19,2.49-2.73,6.2-3.92,9.79-4.25,2.12-.19,4.25-.14,6.37-.03,2.16.11,4.31.28,6.46.53,1.96.22,3.95.46,5.88.88,1.62.35,3.29.87,4.6,1.93,2.69,2.19,2.85,5.89,2.7,9.09-.02.42-.05.84-.07,1.26-.43-.04-.86-.06-1.28-.07-.54-.01-1.08-.01-1.63,0,.32-.49.41-1.11.36-1.7,0,0,0,0,0-.01.56-2.22,0-4.75-1.4-6.56-.35-.45-.76-.85-1.22-1.19-.51-.37-1.11-.62-1.7-.83-1.43-.51-2.96-.7-4.47-.77-1.57-.07-3.14,0-4.71.04-1.67.04-3.35.08-5.02.13-1.57.04-3.15.05-4.71.17-1.51.12-3.04.36-4.45.93-1.23.5-2.26,1.26-3.04,2.34-.74,1.03-1.17,2.26-1.26,3.52-.02.28-.02.56,0,.83-.23.46-.36.96-.33,1.49.01.27.06.53.12.77-.96-.09-1.95-.15-2.91-.05-.39-1.38-.38-2.86-.1-4.26Zm31.56,5.8c-.31-.18-.66-.28-1.06-.26-.55.03-.56.89,0,.86,1.08-.06,1.64,1.32,1.89,2.19.17.58.28,1.22.13,1.81-.13.53-.48.94-.98,1.16-1.06.46-2.36.16-3.44-.05-1.3-.25-2.59-.59-3.83-1.07-.26-.1-.51-.21-.76-.33-.04-.02-.08-.04-.11-.05-1.04-.48-2.03-1.08-2.95-1.76.29-.43.48-.95.56-1.49,2.09-.1,4.29.19,6.24.94.22.08.47-.09.53-.3.07-.24-.08-.45-.3-.53-1.03-.4-2.12-.64-3.22-.8-1.07-.15-2.15-.22-3.22-.18-.01-.14-.04-.28-.06-.42,2.39-.05,4.74-.69,6.83-1.85.49-.27.05-1.02-.44-.75-1.89,1.05-4,1.64-6.16,1.73.79-.91,1.8-1.59,2.86-2.14,1.18-.61,2.44-1.06,3.73-1.38,1.5-.37,3.17-.64,4.64,0,1.2.51,2.21,1.78,1.84,3.14-.16.57-.63.94-1.16,1.21-.28.15-.58.25-.89.31-.23.04-.46.05-.67,0Zm-2.91,9.06c2.23,1.06,4.62,1.8,7.07,2.13,1.2.16,2.41.23,3.62.15-.02.02-.04.05-.06.07-.33.47-.38,1.09-.15,1.6-2.48-.03-4.97-.26-7.39-.77-.7-.15-1.39-.32-2.07-.52-.53-.16-.76.67-.23.83,2.52.75,5.17,1.11,7.8,1.26.7.04,1.4.06,2.11.07-.06.07-.11.14-.15.22-.12.22-.19.46-.2.7-1.63.26-3.3.27-4.94.13-1.72-.15-3.43-.48-5.08-1.02-3.17-1.03-5.94-3-8.07-5.56-1.14-1.37-2.08-2.91-2.77-4.55.62-.04,1.24-.26,1.73-.65.02.03.05.05.07.07.96.73,1.99,1.32,3.06,1.81,1.55,1.73,3.56,3.04,5.65,4.03Zm14.47-.61c.45-.18.94-.04,1.11.39.13.33.08.8-.12,1.15-.22.39-.67.7-1.07.94-.4.25-.83.47-1.26.66-.02-.05-.05-.09-.08-.13.21-.14.39-.32.49-.56.16-.36.17-.76-.02-1.11.18-.23.28-.5.31-.79.15-.24.36-.44.63-.55Zm2.48,2.06c.01-.08.04-.21.06-.26.04-.09.08-.14.11-.16.42-.27.96-.05,1.22.33.16.24.28.5.39.76.09.22.19.48.07.7-.24.44-.81.49-1.28.5.02-.08.03-.16.03-.24,0-.41-.24-.79-.59-.99-.02-.21-.03-.44,0-.65Zm-.49,5.2c-.14-.33-.33-.63-.56-.91.19.03.38.04.58,0,.61-.12,1.05-.61,1.2-1.19.24.3.37.71.29,1.08-.14.64-.76,1.05-1.4,1.01-.04,0-.07,0-.11.01Zm-2.87-.68c-.21-.32-.67-.26-.79.1-.2.63-1.05.77-1.44.24-.42-.57.03-1.3.71-1.3.14.21.33.38.54.48.51.25,1.13.23,1.57-.15.36-.31.54-.88.36-1.33-.16-.42-.51-.66-.91-.78.42-.19.83-.4,1.21-.64.06-.04.11-.07.17-.11-.28.46-.16,1.03.18,1.42.34.39.93.54,1.42.38.09-.03.17-.07.25-.11,0,.03-.02.07-.03.1-.03.31-.31.58-.62.63-.32.04-.62-.16-.76-.44-.09-.17-.31-.25-.49-.2-.2.05-.29.23-.32.42-.05.41-.1.96-.44,1.25-.09.08-.26.14-.37.14-.11,0-.12,0-.21-.03,0,0-.06-.04-.08-.07Zm-1.8-4.5s0-.03,0-.04c0-.02.04-.1.01-.04-.03.06.02-.04.03-.05,0-.02.03-.04.04-.06,0-.01.02-.02.03-.03.02-.02.04-.04.06-.06,0,0,.02-.02.04-.03.01-.01.04-.03.04-.03.03-.02.07-.04.1-.06.03-.02.05-.03.08-.05.01,0,.02-.01.03-.02,0,0,0,0,0,0,0,0,.01,0,.02,0,0,0,0,0,0,0,.02-.01.03,0,.02,0,.02,0,.04-.02.05-.02.02,0,.09-.02.11-.03,0,0,0,0,.01,0,.02,0,.05,0,.07,0,0,0,.01,0,.02,0,0,0,.01,0,.02,0,.02.01.05.02.06.03,0,0,0,0,.01,0,0,0,.04.03.05.04,0,0,.02.02.03.03.01.02.03.04.03.05,0,.02.02.04.03.05,0,0,0,0,0,0,0,.03.02.06.02.09,0,.03,0,.06,0,.08,0,.03-.02.06-.03.1,0,0,0,0,0,0-.02.03-.03.06-.05.09,0,0-.01.02-.02.02-.02.02-.04.04-.06.06,0,0-.02.02-.03.02,0,0,0,0-.02.02,0,0,0,0-.01,0,0,0,0,0-.01.01,0,0,0,0,0,0,0,0-.02.01-.03.02-.03.02-.05.03-.08.05-.01,0-.03,0-.03.01-.04.01-.07.03-.11.05-.04-.02-.07-.03-.11-.05-.14-.05-.27-.06-.41-.07,0-.04-.02-.08-.04-.12,0,0,0,0,0,0,0,0,0-.02,0-.03,0-.02,0-.04,0-.05Zm.08-.18s0,0,0,0c-.02.02-.04.04,0,0Zm.73-.33s.02,0,0,0h0Zm1.1,3.28s.03.04.04.06c0,.01,0,.02.01.03,0,0,0,.02,0,.03,0,.03,0,.06,0,.09,0,0,0,.02,0,.03,0,.02-.02.06-.03.09,0,0,0,.01-.01.02,0,.02-.02.04-.03.05,0,0,0,0,0,.01,0,0,0,0-.01.01-.01.01-.02.02-.04.04,0,0,0,0-.01.01,0,0,0,0-.01,0,0,0-.01.01-.02.02,0,0,0,0,.01-.01-.03.02-.05.03-.08.04-.02,0-.05.02-.07.02-.01,0-.03,0-.04,0,0,0,.01,0,.02,0,0,0-.02,0-.02,0,0,0,0,0,0,0-.02,0-.03,0-.03,0-.02,0-.04,0-.06,0-.02,0-.03,0-.05,0,0,0,0,0,0,0,0,0-.01,0-.02,0,0,0-.01,0-.02,0-.03,0-.03,0-.01,0-.03,0-.07-.01-.09-.02,0,0-.04-.02-.07-.02.01,0,.02.01-.02,0,0,0,0,0,0,0,0,0-.01,0-.01,0,0,0,0,0,.01,0-.02,0-.04-.02-.06-.03,0,0-.03-.02-.06-.03,0,0,0,0,0,0-.02-.01-.03-.02-.03-.03,0,0,0,0,.01,0-.02-.02-.03-.03-.05-.05-.02-.02-.03-.03-.04-.05-.02-.03-.04-.06-.06-.09,0-.01-.01-.03-.02-.04-.01-.04-.02-.08-.03-.12,0,0,0,0,0,0,0,0,0,0,0,0,0,0,0,0,0-.01-.01-.05,0-.04,0-.01,0-.02,0-.04,0-.05,0,0,0-.02,0-.04,0,0,0,0,0,0,0-.02,0-.03.01-.05.02-.02.04-.07.06-.1.01-.01.02-.03.04-.04,0,0,.01-.01.02-.02,0,0,0,0,.01,0,.01,0,.03-.02.04-.02,0,0,0,0,0,0,.01,0,.03,0,.04-.01,0,0,0,0,0,0,0,0,.02,0,.02,0,.06.03.12.05.19.05.01,0,.02,0,.03,0,.04,0,.07.01.11.02.08.02.15.04.23.07.01,0,.03.01.04.02.03.02.06.03.09.05.01,0,.02.02.03.03.01.01.02.02.03.04Zm-.94-.18c-.02.05-.04.04-.01.02,0,0,0-.01.01-.02Zm-.37-.85s0,.04,0,.05c-.29.18-.49.48-.55.84-.5-.18-.83-.72-.54-1.22.14-.23.39-.39.65-.31.29.09.46.34.43.64Zm3.48-.39s.01-.01.02-.02c0,0,0,0,.01,0,.02-.02.09-.07.12-.07-.02,0-.03.01-.05.02.01,0,.03-.01.04-.02.02,0,.04-.01.06-.02.08.07.18.12.29.12.02,0,.04,0,.06,0,0,0,0,0,0,0,.02,0,.04.01.06.01,0,0-.01,0-.03-.01.01,0,.02.01.03.02,0,0,0,0,0,0,.02,0,.03.01.02.01.01,0,.02.01.03.02,0,0,0,0,0-.01,0,0,0,0,0,.01,0,0,0,0,0,0,.05.03.02.02,0,0,.02.02.05.05.06.06,0,0,0,.01.01.02,0,0,0,.01.01.02,0,.02.02.07.02.09,0,.01,0,.03,0,.04,0,0,0,0,0,.03h0s0,.03,0,.04c0-.02,0-.02,0-.03,0,.03-.02.06-.03.09,0,.02-.02.03-.03.05,0,.01-.01.02-.02.03,0,0,0,0,0,0,0,0,0,0-.01,0,0,0,0,.01-.01.02-.02.03-.02.02,0,0-.02.02-.03.04-.04.05,0,0-.04.03-.04.03,0,0,0,0,0-.01-.02.01-.04.02-.05.03,0,0-.01,0-.02.01.05-.03-.01,0-.03,0-.02,0-.03.01-.05.01-.01,0-.02,0-.04,0-.03,0-.08,0-.1,0-.02,0-.04,0-.06,0-.04,0-.07-.02-.1-.03,0,0,0,0,0,0,0,0,0,0-.03,0,0,0,0,0,0,0,0,0-.02,0-.02,0,0,0,0,0,0,0-.03-.01-.05-.03-.07-.04,0,0,0,0,.01.01,0,0-.01-.01-.02-.02,0,0,0,0,0,0-.01,0-.02-.01-.02-.02,0,0-.01,0-.02-.01-.02-.02-.04-.04-.06-.06,0-.01-.02-.03-.03-.04-.02-.02-.03-.05-.04-.08,0-.02,0-.03-.01-.05,0,.01,0,0,0-.02,0,0,0,0,0-.01,0-.01,0-.02,0-.03,0,.01,0,.01,0,.02,0-.02,0-.05,0-.07,0-.01,0-.03.01-.04,0-.02.01-.03.02-.05,0,.01,0,.02,0,.03,0,0,0,0,0-.02,0-.02.02-.03.03-.04,0,0,0,0,0,0,0,0,0,0-.01.01,0,0,.01-.01.02-.02,0,0,0,0,.01-.01.02-.02.04-.04.06-.06Zm.73.1s0-.01,0,0h0Zm-.54-1.08c-.1.02-.19.04-.28.07.1-.1.2-.21.28-.33,0,.09,0,.17,0,.25Zm-3.27-1.71c-.11-.03-.21-.05-.33-.04-.42.01-.84.24-1.14.52-.1.09-.18.2-.24.32-.01,0-.03,0-.04,0-.41.15-.85-.27-.86-.71,0-.52.49-.95.93-1.14.47-.2,1.12-.26,1.55.08.18.14.29.35.31.57-.07.13-.13.26-.18.4Zm-43.07,5.16c-.19-.28-.42-.54-.67-.77-.15-.13-.31-.26-.48-.39.64-.15,1.3-.48,1.41-1.2,0-.06,0-.12,0-.17,2.95-.03,5.95-.98,8.34-2.7.6-.43,1.16-.91,1.68-1.44.03-.02.05-.04.08-.07.05-.06.11-.12.16-.18.05-.06.08-.12.1-.18.07-.02.15-.04.22-.07,1.34-.46,2.46-1.3,3.68-1.99.93-.53,1.96-1.03,3.02-1.31-1.85,1.58-3.8,3.03-5.85,4.35-.47.3-.03,1.05.44.75,2.04-1.31,3.99-2.76,5.84-4.32-1.46,2.01-3.19,3.82-5.17,5.32-2.34,1.77-5.01,3.11-7.87,3.81-1.61.4-3.27.58-4.93.56Zm-.49,1.27s0,.02,0,.02c0,0,0,0,0,0-.01.02-.02.04-.04.06,0,0,0,0-.01.02,0,.01-.02.02-.02.02-.02.02-.14.11-.05.05-.05.04-.11.07-.16.11-.04.02-.08.04-.11.06,0,0-.05.02-.06.03-.12.04-.24.08-.37.1-.02,0-.05,0-.06,0-.03,0-.05,0-.08,0-.08,0-.15,0-.23,0,0,0-.01,0-.02,0,0,0,0,0-.01,0-.04,0-.07-.01-.11-.02-.07-.02-.13-.04-.19-.06,0,0-.01,0-.01,0-.03-.02-.07-.03-.1-.05-.02-.01-.04-.03-.06-.04,0,0-.02-.01-.03-.02-.01-.01-.03-.03-.04-.04,0,0-.02-.02-.03-.03,0-.01-.02-.03-.03-.05,0,0-.01-.02-.02-.03,0-.01-.01-.04-.02-.05,0,0,0,0,0-.01,0,0,0,0,0-.01.04-.04.08-.07.12-.11.38-.43.45-1.09.25-1.62-.04-.1-.08-.19-.13-.28,0,0,0,0,0,0,.03.01.06.03.09.04.19.1.38.22.55.35,0,0,0,0,0,0,.03.02.05.04.08.06.04.04.09.07.13.11.09.08.18.17.27.26.04.04.08.08.11.13.01.01.06.07.07.09.06.09.13.18.18.27.03.04.05.09.07.13,0,.02.02.03.02.05,0,0,0,0,0,0,.01.04.03.09.04.13,0,.02.01.04.02.07,0,.01,0,.03,0,.04,0,0,0,0,0,0,0,.04,0,.08,0,.09,0,.01,0,.03,0,.04,0,.02-.01.05-.02.08.01-.02.02-.03,0,.01Zm-3.26,5.46c-1.13-.36-2.06-1.24-2.42-2.39-.12-.38-.57-.39-.79-.1-.86,1.15-2.24,1.83-3.65,1.93.38-.66.72-1.35,1.03-2.05.42-.94.81-1.91,1.06-2.91.02-.07.02-.13,0-.19.06-.02.12-.04.18-.06.02.1.04.19.07.28.15.49.39,1.06.79,1.39.4.33.97.54,1.49.43.48-.09.92-.41,1.29-.71.28-.23.57-.5.79-.8.25.06.5.09.75.07.08.25.24.46.46.63,0,0-.01,0-.01.02-.67,1.4-1.03,2.92-1.05,4.47Zm-5.71-6.47s0,0,0,0c-.02,0-.03,0-.05,0-.04,0-.07-.02-.11-.02-.04,0-.07-.02-.11-.03-.02,0-.03-.01-.04-.02-.02-.01-.19-.1-.19-.12,0,0,.06.05.03.02-.01-.01-.02-.02-.04-.03-.03-.03-.06-.06-.09-.09,0,0-.01-.01-.02-.02-.01-.02-.05-.08-.05-.08,0-.02-.02-.06-.04-.08,0-.01-.01-.03-.01-.04,0-.02,0-.06-.02-.09,0,0,0-.02,0-.03,0,0,0,0,0-.02,0,0,.01-.03.01-.04,0-.01.01-.02.02-.03,0,0,0,0,.01-.01.02-.02.05-.05.07-.07,0,0,.02-.01.02-.02.02-.01.03-.02.05-.03.06-.04.12-.07.18-.1.01,0,.03-.01.04-.02,0,0,.01,0,.02-.01,0,0,0,0,0,0-.03.03-.03.01,0,0,.02,0,.04-.02.06-.02.06-.02.13-.04.19-.05,0,0,0,0,.02,0,.03,0,.06,0,.09,0,0,0,.01,0,.02,0,.02,0,.04,0,.05.01.02,0,.03,0,.05,0,.08.22.2.42.36.61.11.12.23.22.36.31-.15.06-.3.1-.46.13-.01,0-.02,0-.02,0,0,0,0,0-.02,0-.04,0-.09,0-.13,0-.09,0-.17,0-.26,0Zm-.03-1.07s.02,0,.02,0c0,0-.01,0-.02,0Zm3.2.84c.11.24.26.46.45.64.3.27.65.45,1.03.59-.07.08-.14.16-.22.23-.29.28-.55.47-.92.65,0,0,0,0,0,0-.01,0-.03,0-.04.01-.04.01-.08.03-.13.04-.02,0-.05.01-.07.02,0,0-.04,0-.07,0-.03,0-.05,0-.06,0-.03,0-.06-.02-.09-.02-.05-.01-.1-.03-.14-.04-.03,0-.06-.02-.09-.03,0,0-.02,0-.02-.01-.06-.03-.19-.1-.21-.12.02.01-.05-.05-.07-.06-.03-.03-.09-.1-.1-.11-.09-.12-.19-.34-.26-.5,0,0,0-.01,0-.02-.01-.03-.03-.06-.04-.1-.02-.05-.04-.1-.06-.16-.04-.11-.07-.22-.08-.33,0-.03,0-.07,0-.1,0-.02,0-.04,0-.05,0,0,0,0,0,0,0,0,0-.01,0-.02,0,0,0,0,0,0,0,0,.01,0,.03-.01.05-.03.08-.06.12-.09.06,0,.12,0,.17-.02.32-.05.62-.19.88-.37Zm-1.19.49s0,0,0,0c.03-.01,0,0,0,0,0,0,0,0,0,0Zm-.02.04s-.01.02,0,0h0Zm0,.15s0,0,0,0c0-.05,0,0,0,0Zm3.39-3.29c-.03.05-.05.1-.08.15-.01.02-.02.03-.03.05,0,0-.05.06-.06.07-.02.02-.05.05-.07.07,0,0-.03.02-.04.03-.04.02-.07.05-.11.07-.01,0-.05.02-.06.03-.02,0-.04.01-.06.02-.03,0-.07.02-.1.02-.01,0-.03,0-.04,0,0,0,0,0-.01,0-.07,0-.14,0-.2,0-.02,0-.13-.02-.02,0-.03,0-.07-.01-.1-.02-.06-.02-.12-.04-.18-.06,0,0-.02,0-.02,0-.04-.02-.07-.04-.11-.06-.03-.02-.06-.04-.09-.06,0,0-.03-.02-.04-.03-.05-.04-.09-.08-.13-.12,0,0-.01-.01-.02-.02,0-.02-.02-.03-.02-.04,0,0-.01-.02-.02-.04,0,0,0-.02,0-.03-.01-.04-.02-.09-.03-.13,0-.02,0-.03,0-.04,0-.05,0-.11,0-.16,0-.03,0-.05,0-.08,0-.01,0-.02,0-.02.02-.13.05-.25.1-.38,0,0,0,0,0,0,0,0,0,0,0,0,0,0,0,0,0-.01,0-.02.01-.03.01-.03,0-.02.01-.03.02-.04.03-.06.06-.11.09-.16,0-.01.03-.04.04-.05,0,0,.01-.02.02-.02.03-.03.08-.11.13-.12-.02.01-.03.03-.05.04.01,0,.03-.02.04-.03,0,0,.03-.02.05-.03,0,0,0,0,.01,0,.03,0,.06-.02.09-.02h0s.06-.02.1-.03c0,0,.02,0,.03,0,.06-.02.13,0,.19,0,.03,0,.06,0,.09,0,.01,0,.02,0,.03,0,.07.01.13.04.2.06.02,0,.04.01.04.02.03.01.06.03.09.05.02.01.09.06.1.06.04.04.09.07.13.12.02.02.04.05.07.08-.07-.08.02.03.03.05.02.03.03.06.05.09,0,0,0,0,0,.01,0,0,0,0,0,0,.02.06.04.13.05.19,0,0,0,0,0,.01,0,0,0,0,0,0,0,.03,0,.07,0,.1,0,.06,0,.12,0,.18,0,.01,0,.02,0,.03,0,.03-.01.06-.02.1,0,.03-.02.06-.03.09,0,0-.01.03-.02.04Zm-2.44-4.1c.53-.73,1.77-.68,2.15.17.12.26.15.56.1.84-.12.21-.23.43-.33.65-.05.11-.06.22-.04.33-.26-.04-.52-.04-.78.04,0,0,0,0,0,0-.13.03-.25.08-.37.15-.38-.19-.65-.55-.79-.96-.15-.42-.19-.87.05-1.21Zm3.04,1.35c.15-.27.34-.52.58-.72.31-.25.82-.39,1.17-.17.39.25.31.81.1,1.15-.3.5-.89.78-1.38,1.04-.19.1-.26.35-.18.54.09.21.29.29.51.25.51-.1,1.11-.23,1.6-.02.31.13.59.52.51.81-.11.41-.81.49-1.17.54-.56.08-1.12.04-1.67-.08.29-.47.38-1.09.17-1.6-.15-.37-.42-.66-.75-.86.02-.02.05-.03.07-.05.02-.03.04-.06.07-.09,0,0,0,0,0,0,0,0,0,0,0,0,.17-.22.3-.47.37-.74Zm1.5,6.98s.02,0,0,0h0Zm-3.28-5.46s-.01,0-.03.01c.01,0,.02-.01.03-.01Zm4.82,4.82s0,.01,0,.03c0,0,0-.02,0-.03Zm8.16-13.8c.22.09.47-.1.53-.3.07-.25-.08-.44-.3-.53-1.19-.48-2.37-1.42-2.54-2.78-.07-.59.07-1.19.45-1.65.37-.46.89-.78,1.43-1.01,2.28-.94,5.07-.63,7.25.43,1.28.62,2.42,1.51,3.3,2.63.04.05.1.08.16.1-.11.18-.18.37-.24.57,0,0,0,0,0,0-.92.16-2.02-.04-2.95-.28-1.07-.28-2.01-.83-3.14-.93-.66-.06-1.34.07-1.89.44-.46.31-.03,1.06.44.75,1.21-.83,2.61.03,3.8.42.66.21,1.34.35,2.02.44.47.06.93.09,1.4.06-1.04.49-2.15.81-3.22,1.23-.6.23-1.16.51-1.74.79-.61.29-1.25.52-1.93.5-.56-.01-.56.85,0,.86,1.43.04,2.62-.82,3.9-1.31,1.09-.42,2.21-.76,3.28-1.25,0,.08,0,.15,0,.23,0,.35-.16.64-.24.97-.09.39-.02.75.17,1.05-.98.22-1.93.64-2.82,1.09-1.09.55-2.08,1.28-3.17,1.84-1.06.55-2.3.94-3.5.69-1.11-.23-1.94-1.04-2.26-2.12-.35-1.19.03-2.47.77-3.43.33.2.68.38,1.04.53Zm27.83-6.31c-1.42-1.16-3.3-1.27-5.04-.99-1.54.25-3.06.73-4.48,1.37-1.44.65-2.87,1.53-3.89,2.76-.47-.76-1.37-1.27-2.28-1.17-.5.06-.97.27-1.35.6-.02-.03-.03-.07-.06-.1-.67-.85-1.49-1.57-2.39-2.15,2.52-1.5,5.14-2.83,7.84-3.99.21-.09.26-.41.15-.59-.13-.22-.38-.25-.59-.15-2.77,1.19-5.45,2.56-8.04,4.1-.08.05-.13.11-.16.17-1.28-.67-2.71-1.09-4.15-1.21-1.37-.11-2.84.04-4.11.57-.44.18-.87.42-1.24.71.23-1.89,1.34-3.63,3.06-4.52,1.22-.64,2.63-.93,3.99-1.09,1.48-.17,2.97-.18,4.45-.22,1.6-.04,3.2-.08,4.81-.12,1.53-.04,3.07-.1,4.6-.1,1.43,0,2.88.06,4.28.37,1.16.26,2.36.65,3.24,1.47,1.33,1.24,2.02,3.14,2.01,4.96-.19-.26-.4-.49-.65-.69Zm-16.34,7.68c-.33-.06-.95-.24-.9-.68.03-.25.16-.48.21-.72.08-.32.08-.64.06-.97-.03-.49-.14-1.03.06-1.5.16-.38.49-.7.87-.87.92-.4,1.9.26,2.1,1.18,0,.03,0,.07.02.1,0,.03.02.06.03.09.27.76.18,1.68-.22,2.37-.43.75-1.38,1.13-2.23.99Zm-24.51,1.22c.65-.35,1.36-.62,2.1-.68-.13.65-.24,1.31-.43,1.95-.16.53.68.76.83.23.4-1.37.43-2.88,1.08-4.17.67-1.33,2.04-2,3.48-2.15,1.02-.11,2.05-.01,3.07.08.06,0,.12,0,.17-.03.25.44.59.82.98,1.15-.74.98-1.19,2.2-1.05,3.44.15,1.27.85,2.49,2.02,3.1.71.37,1.5.49,2.29.44-1.88,1.74-4.33,2.83-6.85,3.27-.78.14-1.58.2-2.37.19-.15-.24-.36-.44-.6-.57-.22-.12-.44-.19-.68-.22.05-.06.11-.11.16-.17.39-.48.59-1.11.44-1.72-.31-1.27-1.89-1.34-2.77-.66-.03.03-.06.06-.09.09-.21-.65-.7-1.19-1.44-1.35-.25-.05-.51-.06-.77-.03-.26-.46-.68-.8-1.17-.97.45-.49,1.01-.89,1.59-1.21Zm-3.41,2.65c.07-.16.2-.3.36-.43.01,0,.07-.05.08-.05.04-.02.07-.04.11-.07.04-.02.09-.05.13-.06-.07.03.07-.02.09-.03.04-.01.08-.02.12-.03.01,0,.08-.02.1-.02.02,0,.07,0,.08,0,.05,0,.1,0,.16,0,.04,0,.07,0,.11,0,0,0,0,0,0,0,.02,0,.04,0,.06.01.08.02.16.04.24.07.01,0,.08.04.09.04.04.02.08.04.12.07.02.01.03.02.05.03.01,0,.01,0,.02.01,0,0,0,0,0,0,.04.03.07.06.1.09.04.04.07.08.11.12,0,0,0,.01.02.02,0,0,0,0,0,.01-.15.08-.28.18-.41.29-.41.38-.58.88-.58,1.41-.1-.04-.21-.08-.32-.11-.24-.06-.48-.08-.72-.09,0,0-.01-.02-.02-.03-.05-.16-.09-.31-.12-.48,0-.01,0-.05-.01-.07,0-.02,0-.07,0-.08,0-.07-.01-.15-.02-.22,0-.17,0-.28.05-.41Zm0,1.29s0,0,.01,0c0,0,0,0,0,0,0,0,0,0-.01,0Zm-1.37,1.66c.1-.49.6-.74,1.06-.79.1-.01.19,0,.29,0,0,0,0,0,.01,0,.03,0,.07,0,.1,0,.38.02.74.13,1.11.3.05.03.11.04.17.05.2.49.54.95.98,1.21-.08.17-.15.34-.19.51-.07.31-.09.63-.02.94.08.35.3.61.58.82.57.43,1.36.5,1.97.16.03.07.08.13.15.18.41.28.94.61,1.1,1.11.11.34.05.82-.37.88-.29.04-.61-.07-.88-.15-.28-.08-.56-.17-.82-.3-.42-.22-.84-.64-.67-1.15.16-.47-.54-.75-.79-.33-.38.63-1.24,1.04-1.87.5-.25-.21-.41-.54-.29-.86.08-.21.28-.44.52-.5.1,0,.2,0,.29,0,.21,0,.4-.16.42-.37.02-.19-.09-.44-.31-.47-.04,0-.08,0-.12,0,0,0,0,0,0,0-.03,0-.07,0-.1,0-.02,0-.04,0-.06,0-.59,0-1.21-.09-1.7-.45-.38-.28-.66-.78-.56-1.26Zm14.48,21.15c-1.16.96-2.79,1.45-4.27,1.58-1.57.13-3.17-.16-4.6-.85-.6-.29-1.17-.59-1.6-1.07-.34-.38-.61-.89-.78-1.39-.48-1.41-.44-2.96-.21-4.43.74.16,1.49.31,2.24.47.09.02.17,0,.25-.02-.38,2.3.71,4.72,2.72,5.91.48.29.91-.46.44-.75-1.69-1.01-2.66-3.09-2.31-5.03,0-.03,0-.07,0-.1.9.29,1.83.51,2.72.71.39.09.78.17,1.17.25-.01,1.22.51,2.43,1.43,3.24.17.15.44.17.61,0,.16-.16.18-.46,0-.61-.72-.64-1.13-1.51-1.17-2.44,1.74.36,3.49.68,5.25.95-.26,1.36-.79,2.66-1.88,3.57Zm13.28,9.64c-.76.28-1.51-.34-1.46-1.1.03-.03.06-.05.08-.08,0-.01.01-.02.02-.03,0,0,0,0,.01-.01.02-.03.05-.06.08-.09.05-.06.11-.11.17-.16.07-.06.05-.05.13-.1.06-.04.13-.08.2-.11.02,0,.03-.01.03-.02,0,0,.02,0,.03-.01.03,0,.06-.02.09-.03.04-.01.09-.02.13-.03,0,0,.02,0,.03,0,.07,0,.15-.01.22,0,0,0,.07,0,.09,0,.03,0,.06.01.1.02.16.04.21.06.36.16.01,0,.01,0,.01,0,0,0,0,0,.02.02.03.02.05.05.08.07.05.05.1.1.15.16.01.01.01.01.01.02,0,0,0,.01.02.02.02.03.04.06.06.09.02.03.04.06.06.1,0,0,.03.05.03.07,0,.02.02.06.02.07,0,.03.02.06.02.1,0,0,0,0,0,.03-.17.38-.41.72-.79.86Zm1.68-3.65c-.16.52-.32,1.04-.49,1.56,0,.03-.02.07-.03.1-.26-.29-.6-.51-.94-.6-.43-.12-.85-.07-1.23.08.21-.7.43-1.41.67-2.1.06-.17.14-.33.3-.42.17-.1.38-.13.57-.15.4-.03.92-.02,1.2.32.29.34.05.84-.06,1.21Zm19.54-5.29c-2.14,1.21-4.86,1.06-6.81-.44-.98-.75-1.74-1.8-2.13-2.97.44-.04.88-.07,1.32-.11.85-.08,1.69-.17,2.54-.27-.04.17-.09.35-.16.52-.01.03-.02.06-.03.09,0,0,0,.01,0,.02-.03.06-.05.11-.08.17-.06.12-.12.23-.19.35-.07.11-.13.21-.21.31-.01.02-.02.03-.04.05,0,0-.03.04-.04.05-.04.05-.08.1-.12.14-.18.2-.37.38-.58.55-.18.14-.16.47,0,.61.19.17.42.15.61,0,.89-.7,1.51-1.74,1.73-2.85,0-.04,0-.08,0-.12.65-.08,1.31-.17,1.96-.27.32-.05.64-.1.96-.15-.22,1.03-.58,2.01-1.1,2.93-.27.48.47.92.75.44.58-1.03,1-2.15,1.23-3.31.01-.07,0-.15-.01-.22.95-.2,1.88-.47,2.74-.94.26-.14.51-.32.75-.5.18,2.36-.98,4.74-3.07,5.92Zm12-14.95c-.08,1.07-.17,2.15-.37,3.21-.35,1.82-1.04,3.73-2.69,4.73-1.41.86-3.38,1.19-4.85.36.03-.02.05-.04.08-.06.22-.19.43-.41.59-.65.13-.19.04-.49-.15-.59-.22-.12-.46-.05-.59.15,0,.01-.02.03-.03.04-.04.05-.08.09-.12.13-.1.11-.2.21-.31.3-.06.05-.12.11-.19.16-.01,0-.02.02-.03.03-.04.03-.07.05-.11.08-.15.11-.31.21-.47.29-.03.01-.04.04-.07.06,0,0-.01,0-.02.01-1.17.95-2.7,1.29-4.15,1.53-1.71.29-3.43.5-5.16.68-3.08.32-6.17.49-9.26.53.02-.22.04-.43.07-.64.04-.23-.06-.47-.3-.53-.21-.06-.49.07-.53.3-.05.29-.08.59-.09.88-.13,0-.26,0-.4,0-.31,0-.61,0-.92-.01.12-.46.24-.92.36-1.38.14-.54-.69-.77-.83-.23-.14.53-.28,1.06-.41,1.6-.65-.01-1.29-.03-1.94-.05.16-.39.3-.79.41-1.2.15-.54-.69-.77-.83-.23-.13.48-.3.95-.5,1.39-1.97-.09-3.94-.23-5.9-.44-3.48-.37-6.95-.92-10.38-1.66-1.52-.33-3.06-.65-4.54-1.14-1.25-.42-2.5-1-3.44-1.96-.23-.24-.44-.49-.62-.77-.31-.46-1.05-.03-.75.44.54.82,1.24,1.45,2.03,1.95-.49-.1-.98-.21-1.46-.34-1.15-.3-2.32-.65-3.32-1.31-.23-.15-.37-.26-.57-.45-.19-.19-.28-.29-.4-.5-.4-.66-.58-1.44-.64-2.2-.06-.71-.06-1.45.07-2.15.14-.7.36-1.39.62-2.05.49-1.29,1.12-2.51,1.73-3.75.17.23.38.43.62.58.24.15.51.26.78.34-.04.06-.08.12-.11.19-.05.11-.09.22-.12.34-.28-.02-.57.06-.82.17-.3.13-.61.35-.77.64-.2.37-.12.84.1,1.19.23.37.61.64,1.03.74.13.03.27.05.41.06-.24.9-.58,1.77-.96,2.61-.41.91-.86,1.8-1.4,2.64-.19.3.07.62.37.65,1.74.16,3.46-.53,4.66-1.76.64,1.26,1.87,2.22,3.29,2.44.26.04.56-.11.55-.42-.06-1.58.24-3.16.93-4.58.02-.04.03-.08.04-.12.61.11,1.28-.05,1.77-.41.42-.32.61-.8.53-1.3,2.95-.02,5.86-.68,8.54-1.91,2.78-1.26,5.28-3.11,7.39-5.31,1.03-1.08,1.97-2.25,2.82-3.49,1.35,2.99,3.44,5.61,6.08,7.59,1.38,1.04,2.9,1.86,4.52,2.44,1.69.61,3.46.99,5.25,1.2,1.93.22,3.89.22,5.81-.08.04.08.08.16.14.23.39.53,1.01.81,1.67.68.42-.08.78-.32,1.03-.65.4.17.9.13,1.29-.12.22-.14.37-.32.49-.52.6.66.96,1.62.51,2.43-.19.34-.48.6-.86.68-.03,0-.07.01-.1.02,0,0-.06,0-.07,0-.1,0-.19,0-.29,0-.22,0-.31-.02-.51-.07-.23-.06-.35-.09-.53-.21-.01,0-.07-.05-.07-.05-.03-.02-.05-.05-.08-.08,0,0-.01-.02-.02-.02,0,0,0,0-.01-.02,0-.01-.02-.03-.03-.05,0,0,0,0,0-.01-.01-.04-.03-.06-.05-.1.13-.28.25-.58.35-.88.07-.22-.09-.47-.3-.53-.24-.06-.46.08-.53.3-.3.88-.86,2.15-1.97,2.08-.35-.02-.73-.26-.81-.61,0-.04,0-.14,0-.18.03-.13.04-.15.09-.24.04-.07.03-.05.07-.09,0,0,.05-.05.06-.06.04-.02.13-.07.07-.05.02,0,.17-.04.1-.03.23-.02.43-.18.43-.43,0-.22-.2-.46-.43-.43-.57.06-1,.43-1.19.98-.18.53-.01,1.11.38,1.5.16.15.34.27.54.36-.02.05-.03.1-.04.15-.1,1.16.09,2.34.53,3.42.12.3.47.44.72.19.47-.45.94-.89,1.4-1.34.1-.09.28-.35.42-.33.08,0,.18.11.24.16.12.09.23.19.35.27.86.61,2.01.77,3.01.48.24-.07.43-.41.26-.63-.64-.83-1.09-1.77-1.33-2.8,0,0,0,0,0,0,.86-.43,1.37-1.44,1.27-2.42,0-.02,0-.03,0-.05.98,0,1.93-.73,2.12-1.7.12-.63-.06-1.24-.43-1.72.31-.08.61-.21.86-.44.22-.2.4-.49.45-.79.07-.39-.04-.75-.2-1.11-.25-.57-.54-1.2-1.13-1.49-.57-.28-1.36-.29-1.85.16,0,0-.01.02-.02.02.04-.39-.02-.79-.21-1.15-.36-.69-1.17-.95-1.9-.77-.31.08-.57.23-.8.42-.35-.59-1.03-.87-1.7-.88-.71,0-1.43.28-1.94.77-.5.48-.79,1.23-.54,1.9.1.27.28.52.5.72-1.93.04-3.87-.28-5.73-.8-2.29-.64-4.5-1.6-6.48-2.93-.43-.29-.85-.6-1.25-.93.93.3,1.88.54,2.85.73,1.32.25,2.81.54,4.08-.09.61-.31,1.07-.87,1.27-1.52.21-.7.14-1.47-.04-2.17-.15-.62-.43-1.36-.84-1.95.24-.05.48-.12.7-.22.26-.11.52-.24.76-.4.7-.04,1.41-.04,2.11-.03.75.01,1.5.03,2.25.12.85.11,1.7.36,2.44.81.72.43,1.27,1.06,1.68,1.78.48.84.77,1.77.99,2.7.13.54.96.31.83-.23-.07-.3-.16-.59-.25-.89,1.68.06,3.02,1.14,3.89,2.54,1.15,1.84,1.53,3.98,1.55,6.12.01,1.16-.07,2.32-.15,3.47Zm-9.63,5.51c-.25-.82-.34-1.67-.27-2.53.05,0,.09,0,.13,0,.6-.07,1.14-.39,1.54-.84.05-.06.09-.12.14-.18.49.53,1.38.69,2.09.64,0,0,0,.01,0,.02.21.88.57,1.71,1.05,2.47-.28.02-.56,0-.83-.08-.24-.06-.46-.15-.67-.27-.23-.13-.42-.32-.64-.47-.24-.17-.53-.27-.82-.2-.29.06-.5.28-.71.48-.34.32-.67.64-1.01.96Z"/>
      <path class="cls-1" d="m36.83,36.85c-1.63.55-3.19,1.33-4.6,2.31-.19.13-.28.38-.15.59.11.19.4.29.59.15,1.36-.94,2.83-1.7,4.39-2.23.52-.18.3-1.01-.23-.83Z"/>
      <path class="cls-1" d="m41.91,39.57c-1.49,1.04-2.99,2.08-4.48,3.12-.19.13-.28.38-.15.59.11.19.4.29.59.15,1.49-1.04,2.99-2.08,4.48-3.12.19-.13.28-.38.15-.59-.11-.19-.4-.29-.59-.15Z"/>
      <path class="cls-1" d="m37.22,23.42c1.17.82,2.33,1.64,3.5,2.45.19.14.48.03.59-.15,1.06-1.74,3.25-2.42,4.2-4.26.52-1.01.55-2.37-.44-3.1-.89-.65-2.16-.43-3.11-.04-.74.3-1.32.79-1.77,1.4-.3-.49-.78-.88-1.31-1.11-.86-.37-1.86-.4-2.71,0-.92.43-1.36,1.4-1.12,2.38.28,1.13,1.27,1.81,2.17,2.44Zm-.94-3.89c.49-.37,1.24-.43,1.83-.28.72.18,1.55.72,1.51,1.55,0,.18.08.29.2.36,0,0,.01.01.02.02,0,0,.02,0,.02,0,.01,0,.03,0,.04.01.19.07.44.01.53-.18.36-.76.85-1.4,1.6-1.78.68-.35,1.72-.65,2.44-.24.8.45.6,1.54.22,2.2-.46.79-1.2,1.36-1.91,1.91-.7.55-1.41,1.1-1.94,1.81-.78-.55-1.55-1.09-2.33-1.64-.43-.3-.86-.6-1.28-.9-.36-.26-.72-.54-.98-.9-.44-.59-.58-1.45.05-1.93Z"/>
      <path class="cls-1" d="m48.26,20.44c.22.36.45.78.76,1.06.36.32.83.36,1.23.1.36-.23.7-.55,1.02-.83.65-.58,1.26-1.21,1.82-1.87.53-.63,1.09-1.32,1.29-2.15.19-.79-.06-1.61-.76-2.06-.67-.44-1.57-.41-2.27-.07-.62.3-1.09.84-1.46,1.43-.41-.45-.95-.78-1.59-.76-.88.02-1.5.67-1.58,1.53-.09.87.43,1.71.84,2.44.22.4.45.79.7,1.18Zm-.23-4.23c.62-.24,1.18.28,1.49.77.1.16.25.21.4.2.16.05.35,0,.45-.2.46-.9,1.28-1.99,2.42-1.71.45.11.79.44.8.93,0,.61-.4,1.2-.76,1.67-.44.55-.91,1.08-1.41,1.58-.48.48-.99.97-1.54,1.37-.07.05-.15.12-.23.08-.1-.04-.18-.2-.24-.29-.21-.31-.41-.63-.61-.95-.37-.61-.75-1.24-1.03-1.9-.2-.47-.36-1.31.26-1.55Z"/>
      <path class="cls-1" d="m39.3,14.96c.72.55,1.47,1.06,2.2,1.59.25.18.53,0,.62-.25.02-.01.04-.02.06-.04,1.14-.98,2.21-2.01,2.7-3.47.26-.76.37-1.74-.3-2.33-.55-.48-1.37-.53-2.02-.25-.66.28-1.1.87-1.42,1.49-.67-.8-1.97-.95-2.73-.09-.44.5-.62,1.2-.38,1.83.24.65.74,1.1,1.28,1.51Zm.26-3.07c.48-.09.97.25,1.1.71.08.29.36.36.58.27.16,0,.33-.06.39-.2.24-.56.53-1.21,1.06-1.55.37-.25.92-.33,1.28-.05.47.37.19,1.17.02,1.64-.19.53-.49,1.02-.86,1.45-.43.5-.92.93-1.41,1.36-.06-.02-.13-.02-.19-.01-.55-.39-1.1-.78-1.64-1.18-.44-.32-.99-.74-1.1-1.31-.09-.49.27-1.03.76-1.12Z"/>
      <path class="cls-1" d="m52.02,64.22c-.03-.19-.24-.31-.42-.32-3.65-.05-7.31-.11-10.96-.16-3.64-.05-7.28-.1-10.92-.16-2.06-.03-4.11-.06-6.17-.09-.03,0-.05.01-.07.01-.02,0-.04,0-.06.01-.03.01-.06.02-.09.04-.03.01-.05.03-.07.05-.01.01-.03.03-.04.05-.01.02-.03.03-.04.05-.42.96-.64,2.01-.62,3.06.02,1.05.31,2.13,1.19,2.78.97.72,2.3.69,3.45.71,1.49.03,2.99.06,4.48.09,2.99.05,5.97.08,8.96.09,1.49,0,2.99,0,4.48,0,.74,0,1.48,0,2.22,0,.61,0,1.22-.03,1.82-.13,1.15-.21,2.17-.85,2.64-1.94.45-1.03.45-2.18.34-3.28-.03-.29-.07-.58-.11-.86Zm-.82,3.22c-.24.99-.89,1.68-1.88,1.95-.51.14-1.04.17-1.57.18-.68.02-1.35.01-2.03.01-1.41,0-2.81,0-4.22,0-2.81,0-5.63-.03-8.44-.07-1.41-.02-2.81-.05-4.22-.07-.69-.01-1.38-.03-2.07-.05-.54-.01-1.08-.03-1.6-.15-.49-.11-.99-.34-1.27-.74-.28-.38-.4-.85-.45-1.32-.09-.93.06-1.95.4-2.82,3.56.05,7.12.1,10.67.15,3.64.05,7.28.1,10.92.16,1.93.03,3.86.06,5.8.08.11.88.18,1.81-.03,2.68Z"/>
      <path class="cls-1" d="m38.04,66.69c-.01-.06-.04-.11-.06-.16-.03-.07-.08-.14-.13-.2-.01-.02-.03-.03-.05-.04-.04-.04-.09-.07-.14-.1-.14-.08-.3-.12-.46-.11-.08,0-.17.02-.25.05-.1.04-.18.08-.27.14-.08.07-.14.13-.21.22-.01.02-.03.04-.04.07-.02.05-.05.11-.06.17-.01.04,0,.09,0,.13-.01.04-.02.08-.02.12,0,.06.01.12.03.17.01.06.04.11.07.17.03.07.09.14.14.19.05.06.12.11.19.15.07.04.14.07.22.1.08.03.16.04.24.04.02,0,.04,0,.07,0,.06,0,.12-.01.18-.03.05-.01.1-.04.15-.06.02,0,.04-.02.06-.03.11-.07.17-.14.24-.24.05-.06.08-.14.1-.21.03-.08.04-.16.05-.24,0-.06,0-.12,0-.19,0-.04,0-.08-.02-.12Zm-.83.29s0,0,0,0c0,0,0,0,0,0,0,0,0,0,0,0Z"/>
      <path class="cls-1" d="m34.33,66.97c-.44.19-.97-.1-1.34-.33-.47-.29-.94-.57-1.45-.79-1.04-.44-2.15-.69-3.27-.72-1.02-.02-2.3.07-2.99.92-.33.41-.51.92-.43,1.45.08.5.42.91.88,1.11.54.23,1.21.21,1.68-.16.46-.37.58-1.14.08-1.54-.18-.15-.43-.18-.61,0-.15.15-.18.46,0,.61.21.17-.11.36-.32.38-.28.04-.62-.06-.78-.31-.18-.26-.09-.61.06-.86.19-.31.53-.49.87-.59.81-.24,1.76-.2,2.59-.06.89.15,1.75.43,2.54.87.45.25.87.56,1.35.75.52.21,1.06.23,1.58,0,.21-.09.26-.41.15-.59-.13-.22-.38-.25-.59-.15Z"/>
      <path class="cls-1" d="m46.7,65.19c-1.29.1-2.5.44-3.68.95-1.18.52-2.51,1.18-3.8.67-.22-.09-.47.09-.53.3-.07.25.08.44.3.53,1.97.78,3.83-.64,5.64-1.19.92-.28,1.93-.48,2.9-.41.63.05,1.65.51,1.37,1.32-.12.34-.5.45-.83.46-.18,0-.41.01-.58-.07-.01,0-.03-.02-.04-.04.4-.06.53-.72.05-.84-.69-.18-1.18.56-.89,1.16.26.53.89.66,1.44.65.54-.01,1.1-.18,1.44-.62.37-.46.4-1.1.17-1.63-.49-1.13-1.85-1.34-2.94-1.25Z"/>
      <path class="cls-1" d="m61.29,60.2s0,0,.01,0c0,0,0,0,.01.01,0,0,0,0,0,0,0,0-.01-.01-.02-.02Z"/>
      <path class="cls-1" d="m61.64,60.34s0,0,0,0c-.01,0-.03,0-.04,0,.01,0,.02,0,.03,0Z"/>
      <path class="cls-1" d="m61.98,60.27s0,0,0,0c0,0,.01-.01.02-.01,0,0,0,0,0,0,0,0-.02,0-.03.03Z"/>
      <path class="cls-1" d="m61.43,60.29s.01,0,.02,0c0,0-.02,0-.03,0,0,0,0,0,0,0Z"/>
      <path class="cls-1" d="m61.79,60.34s0,0,0,0c-.02,0-.04,0-.04,0,.01,0,.02,0,.04,0Z"/>
      <path class="cls-1" d="m61.08,59.83s0,.02,0,.02c0,0,0,0,0,0,0,0,0-.02,0-.02Z"/>
      <path class="cls-1" d="m64.13,58.64s0,.01,0,.02c0,0,0,0,0,.01,0,0,0-.02,0-.04,0,0,0,0,0,0Z"/>
      <path class="cls-1" d="m64.15,58.49s-.01.05,0,0h0Z"/>
      <path class="cls-1" d="m64.21,58.4s0,0-.01.01c0,0,0,0,0,0,.03-.02.03-.03.02-.02Z"/>
      <path class="cls-1" d="m64.9,58.94s0,0,0,0c.05-.03.02-.03,0,0Z"/>
      <polygon class="cls-1" points="64.95 58.4 64.95 58.4 64.95 58.4 64.95 58.4"/>
      <path class="cls-1" d="m64.9,58.37s0,0-.01,0c0,0,0,0,0,0,.02,0,.03.01.03.01,0,0,0,0-.01,0Z"/>
      <path class="cls-1" d="m64.97,58.87s.01-.01.02-.02c0,0,0,0,0,0,0,0-.02.01-.02.02Z"/>
      <path class="cls-1" d="m65.07,58.67s0,0,0-.01c0,0,0,0,0-.01,0,0,0,.02,0,.03,0,0,0,0,0,0Z"/>
      <path class="cls-1" d="m64.4,58.97s0,0,0,0c.01,0,.03.01.03.01,0,0-.02-.02-.04-.02Z"/>
      <path class="cls-1" d="m64.29,58.91s.01.01.02.02c0,0,0,0,0,0-.02-.02-.03-.03-.03-.02Z"/>
      <path class="cls-1" d="m60.69,56.51s-.02,0-.02,0c0,0,0,0,0,0,.02,0,.03,0,.03-.01Z"/>
      <path class="cls-1" d="m61,57.2s0,0,0,0c0,0,.02-.02.03-.03,0,0-.01,0-.03.03Z"/>
    </g>
  </g>
</svg>