<?xml version="1.0" encoding="UTF-8"?>
<svg id="_レイヤー_2" data-name="レイヤー 2" xmlns="http://www.w3.org/2000/svg" viewBox="0 0 234.31 69.24">
  <defs>
    <style>
      .cls-1 {
        fill: #3e3a39;
        stroke-width: 0px;
      }
    </style>
  </defs>
  <g id="_お礼" data-name="お礼">
    <g>
      <path class="cls-1" d="m22.39,7.14c4.44-.96,9.06-1.02,13.86-.48,2.58-2.58,5.34-4.56,8.22-5.4,3.6-1.08,4.14,2.58,1.38,4.56-1.68,1.2-4.98,1.8-8.4,2.1-3,4.26-5.34,8.82-7.5,13.8-3.18,7.2-5.04,12.12-10.44,19.02-3.6,4.62-13.5,10.68-18.42,6.84-.6-.48-1.2-1.38-1.08-2.82.06-1.44,1.74-2.58,1.74-1.56s.48,2.88,1.44,3.78c2.88,2.7,8.76-.48,11.22-3.54,8.22-10.2,9.36-22.8,20.52-35.34-7.02.54-13.74-2.34-19.8,3.6-2.88,2.82-3.06,3.3-4.26,4.92-.48.66-2.04.66-1.68-.36,1.08-3.18,2.82-6.66,3.96-9.48.54-1.26,1.92,1.38,1.68,2.28-.18.66-.6.96-1.5,2.58,1.62-1.32,4.2-3.42,9.06-4.5Zm15.84-.24c4.86,1.02,11.4-3.96,7.62-5.1-2.28-.72-5.4,2.28-7.62,5.1Z"/>
      <path class="cls-1" d="m35.95,43.5c2.4-2.28,14.34-15,17.1-14.16,3.84,1.2-.36,8.28-1.74,10.62-1.14,1.92-4.74,7.74-3.36,8.52,1.56.84,6.06-2.64,7.68-4.26,1.56-1.56,4.26-4.38,5.28-5.7,0,0,.78-.9.9-.48.06.18-.84,1.26-.84,1.26,0,0-3,3.48-4.92,5.34s-6.42,5.46-8.64,4.38c-6.06-2.94,4.74-15.84,4.56-18.42-.12-1.38-10.38,7.26-15.24,13.68-2.52,3.3-2.52,3.12-3.66,2.82-.96-.24-1.44-1.2.24-5.82,3-8.16,10.26-22.62,14.82-30C53.23,3.06,57.79-.54,60.25.06c1.92.48.24,6.78-4.2,12.48-4.74,6.06-11.22,11.4-11.28,11.46-1.8,2.52-7.62,16.08-8.82,19.5ZM55.87,11.46c3.96-5.28,5.4-10.14,4.32-10.68-1.26-.66-5.46,6-8.04,10.14-2.58,4.14-7.02,11.88-6.9,11.88.36.06,6.66-6,10.62-11.34Z"/>
      <path class="cls-1" d="m76.93,48.96c-1.86,0-3.12-2.04-3.12-3.72s1.08-3.36,1.08-4.86c0-.06,0-.3-.12-.3-.48,0-9,7.98-12.06,7.98-1.56,0-1.98-1.14-1.98-2.52,0-8.34,12.72-16.2,20.34-16.2,1.08,0,3.72,0,3.72,1.56,0,.6-.36,1.2-.96,1.2-.72,0-1.38-1.2-1.86-1.62-1.08-1.08-3.9-.6-5.34.12-3.78,1.86-13.62,12.06-13.62,16.14,0,.3.12.54.48.54,3.24,0,12.48-10.62,14.52-10.74.84-.06,1.14.78,1.14,1.5,0,2.88-2.88,5.94-2.88,8.82,0,.66.36,1.44,1.08,1.44,1.86.06,9.12-6.84,11.94-9.84.42-.42.66-.6.78-.6.06,0,.12.12.12.18,0,.12-.18.3-.9,1.14-2.94,3.42-9.9,9.78-12.36,9.78Z"/>
      <path class="cls-1" d="m107.53,47.94c-2.64,0-3.12-3.06-3.24-5.04-.3-5.64,7.38-14.1,6.24-14.4-3.36-.9-18.96,18.9-20.16,19.44-.66.3-1.14-.6-1.14-1.32,0-1.56,4.32-14.4,6.6-13.68,1.26.42,1.5,1.26,1.5,1.92,0,1.14-3.84,7.32-4.56,9,.48,0,15.12-16.8,18.42-16.8,1.5,0,2.22.96,2.22,2.4,0,5.76-6.3,12.06-6.3,16.98,0,.42.24.78.72.78,3.12.12,9.24-6.42,11.16-8.64.36-.42.66-.66.78-.66.06,0,.12.12.12.18,0,.12-.18.3-.9,1.2-2.16,2.46-7.8,8.64-11.46,8.64Z"/>
      <path class="cls-1" d="m135.19,48.54c-4.56,0-6.66-7.26-6.66-10.92,0-.18.06-.3.18-.42,2.1-1.44,10.14-1.14,10.14-6.36,0-.72-.54-1.2-1.26-1.14-4.5.3-11.76,9.6-14.16,14.34-.3.66-.9,3.24-1.62,3.24-1.26,0-2.16-.36-2.16-1.8,0-6.18,19.26-45.18,27.66-45.18.78,0,.9.66.9,1.32,0,7.44-10.44,18.18-16.08,22.5-2.76,5.16-5.1,10.44-7.44,15.78,3.12-3.66,10.02-11.76,15.18-11.76,1.14,0,2.4.54,2.4,1.8,0,5.1-8.82,7.02-12.48,7.56,4.14,2.22,5.16,10.2,6.72,10.2.54,0,2.22-1.38,2.1-.84-.3,1.44-2.28,1.68-3.42,1.68ZM147.31.96c-3.42,1.32-12.78,17.94-15.06,22.38,4.98-3.72,15.54-14.82,15.54-21.3,0-.3.06-1.08-.48-1.08Z"/>
      <path class="cls-1" d="m172.57,48.54c-3.78,7.08-14.46,20.7-23.52,20.7-.84,0-1.92-.3-1.98-1.38-.6-9.18,15.18-16.14,22.44-18.9,1.92-4.8,4.14-9.66,5.76-14.58-2.34,3.3-11.58,13.62-15.18,13.62-.9,0-.96-1.92-.96-2.52,0-1.8,1.74-12.72,3.18-13.02,1.5-.3,2.88.36,2.88,2.1,0,3.42-4.08,9.9-4.08,11.88,0,.24.18.48.42.48,2.34,0,10.56-9.72,12.36-11.7,1.92-2.1,2.88-5.82,4.86-7.38.84-.66,3.48-1.26,3.48.54,0,1.62-7.92,16.56-9.36,19.26,3.9-2.52,7.56-5.4,11.04-9.18.42-.42.66-.6.78-.6.06,0,.12.12.12.18,0,.12-.18.3-.9,1.14-3.06,3.48-7.62,6.96-11.34,9.36Zm-23.58,19.98c6.48,0,17.52-13.44,20.28-18.96-6.24,2.88-21.6,9.42-21.6,17.58,0,.84.42,1.38,1.32,1.38Z"/>
      <path class="cls-1" d="m212.29,29.76c1.26,0,1.98.72,1.98,1.98,0,4.14-6.18,10.08-6.18,14.64,0,.42.12.84.6.84,2.82,0,16.38-17.22,17.52-17.22,1.2,0,2.22.66,2.22,1.92,0,1.74-8.16,10.8-8.16,15.6,0,.54.36.78.84.84,1.98.24,9.54-6.66,12.3-9.9.36-.48.66-.66.78-.66.06,0,.12.12.12.18,0,.12-.18.3-.9,1.2-3.12,3.6-10.14,9.96-12.9,9.96-1.5,0-1.68-1.5-1.68-2.64,0-4.74,3.54-9.6,3.66-11.76-2.22,2.46-11.52,13.44-14.52,13.44-1.62,0-1.74-1.08-1.74-2.52,0-2.34,1.74-10.38,3.78-13.74-.6.36-5.82,2.28-8.52.84.12,1.38.12,1.74-.42,4.26-1.08,5.04-7.2,12.36-10.98,12.24-3.18-.12-4.38-3.24-4.38-6,0-7.38,6.9-14.76,14.34-14.76,1.2.18,2.4.48,2.82,1.5-.12.66-1.8-.54-3.18,0-4.86.96-10.8,10.44-10.8,16.86,0,.66.3,1.32,1.02,1.56,3,1.08,8.88-5.82,10.32-10.98.66-2.28.6-4.32.42-4.68-1.26-.3-.66-1.98.66-1.38,3,2.76,8.82-.06,9.24-.3.6-.84,1.14-1.32,1.74-1.32Z"/>
    </g>
  </g>
</svg>