<?xml version="1.0" encoding="UTF-8"?>
<svg id="_レイヤー_2" data-name="レイヤー 2" xmlns="http://www.w3.org/2000/svg" viewBox="0 0 44.43 67.24">
  <defs>
    <style>
      .cls-1, .cls-2 {
        stroke-width: 0px;
      }

      .cls-2 {
        fill: #212121;
      }
    </style>
  </defs>
  <g id="_出欠" data-name="出欠">
    <g>
      <g>
        <path class="cls-1" d="m41.34,12.64c-1.25-1.5-2.54-1.68-2.52-1.63-.05.08,1.15.4,2.23,1.84.24.35.44.81.34,1.23-.26,1.1-.86,2.26-1.6,3.13-.03.04-.12.1-.26.2-.01.1.5,1.04-.31,1.34-.32.12-.52.1-.62.07.08.74-.23,1.41-.53,1.88-.81,1.27-1.54,2.27-3.36,2.88-1.7.57-2.91.29-2.9.41-.01.01,1.14.4,3.01-.07,1.87-.47,2.98-1.72,3.85-3.24.21-.38.36-.72.37-1.28,1.12.03,1.32-1.1.99-1.75.9-1.03,1.38-2.25,1.77-3.44.22-.67-.19-1.19-.45-1.57Z"/>
        <path class="cls-1" d="m32.5,24.44c-.06.02.15.33.09.9-.05.57-.42,1.36-1.08,2.19-1.24,1.51-2.78,2.78-4.42,3.85-1.02.66-2.12,1.1-2.92,2.02-.81.92-1.48,1.95-2.32,2.84-.98.96-2.28,1.26-3.35,1.34-2.17.09-3.65-.04-3.64.08,0,.04,1.41.33,3.67.34,1.11-.03,2.58-.3,3.71-1.36.76-.77,1.38-1.66,2.07-2.48.87-1.04,1.89-1.49,3.01-2.23,1.71-1.12,3.34-2.5,4.53-4.15.65-.9.99-1.79.97-2.43-.02-.66-.31-.94-.32-.91Z"/>
        <path class="cls-1" d="m19.49,39.48c-1.06-1-2.38-1.32-3.26-1.48-.4-.07-.82-.05-1.23-.03,1.47.38,3,.78,4.15,1.87.95.89,1.61,2.02,1.48,2.81-.06.37-.1.7-.36.75-.25.05-.23-.25-.26-.22,0,0-.09.29.19.4.39.15.63-.29.77-.86.24-1.03-.47-2.3-1.48-3.25Z"/>
        <path class="cls-1" d="m19.89,42.88s-.18.71-1.23,1.18c-.5.25-1.06.49-1.85.6-.46.38-.37.78-.66.97-.23.26-.55-.05-1.11.01-.91.42-1.44.91-2.16,1.1-.65.2-1.32-.02-1.82-.19-1.04-.39-1.37-1.05-1.43-1-.04,0,.24.76,1.33,1.25.52.21,1.21.49,2.01.28.74-.17,1.51-.76,2.12-1.06.18-.03.33.01.56.07.24.07.54-.01.73-.16.38-.31.45-.88.57-.94.68-.1,1.37-.41,1.84-.69,1.07-.54,1.22-1.43,1.1-1.41Z"/>
        <path class="cls-1" d="m9.58,43.21c.08-1.79.98-2.82,1.22-4.61.04-.32.56-4.08.53-4.09-.19-.07-.75,3.75-.8,4.05-.26,1.77-1.14,2.85-1.15,4.64-.03,1.05.11,1.01.2.01Z"/>
        <path class="cls-1" d="m12.39,32.59c-.06-.02-.2.42-.13.97.04.27.13.54.33.65.2.09.32,0,.31-.01-.03,0-.43-.08-.44-.66-.06-.51-.01-.94-.06-.95Z"/>
        <path class="cls-1" d="m20.14,19.72c-5.45,7.14-7.36,14.38-7.39,15.05.04-.49,1.71-4.29,1.82-4.54,1.67-3.8,3.8-7.33,6.3-10.64,2.28-3.01,4.84-5.81,7.58-8.41.19-.18,3.63-3.34,3.64-3.33-.03-.09-6.34,4.32-11.95,11.87Z"/>
        <path class="cls-1" d="m31.32,9.44s1.67-3.19,5.03-6.03c1.64-1.43,3.32-2.5,4.66-2.95,1.35-.5,2.23-.13,2.24-.19.05-.03-.88-.53-2.33-.08-1.42.39-3.17,1.46-4.84,2.91-3.42,2.89-4.96,6.29-4.77,6.33Z"/>
        <path class="cls-1" d="m43.62,1.13c-.09-.09-.18-.15-.28-.2.01,0,.35-.19.4-.32.02-.05.01-.11-.05-.18-.17-.16-.39-.19-.42-.17-.03.02.34.06.29.31-.03.12-.48.34-.59.38.13.05.39.19.5.31.64.73.9,2.35.51,3.81-.24.89-5.19,1.02-5.14,1.14.16.16,4.47.06,5.22-.46.17-.2.21-.4.26-.6.25-1.62.07-3.21-.7-4.02Z"/>
        <path class="cls-1" d="m43.67,8.43c.12-.14.21-.41.12-.63-.09-.22-.24-.36-.38-.46-.28-.19-1.66-1.14-4.45-1.09.39.09,2.83.36,4.1,1.21.26.17.27.4.13.55-.09.09-.58.04-.59.05.06-.01.42.19.6.53.24.44.04,3.3.12,3.34.37.18.48-2.68.35-3.5Z"/>
        <path class="cls-1" d="m11.47,41.14c-3.14,5.55-5.84,11.3-8.38,17.15-.78,1.79-2.57,6.12-2.66,6.08-.28-.15,5.18-12.34,8.78-19.46.6-1.18,3.85-7.21,3.21-6.34C9.91,42.02.25,62.86,0,65.4c0,.01,0,.02,0,.03,0,.09.02.14.06.16.56.24,3.01-6.16,3.2-6.6,2.37-5.49,4.89-10.9,7.73-16.17,6.22-11.53,13.95-22.16,22.69-31.9.47-.52.93-1.04,1.4-1.55-9.25,9.48-17.09,20.26-23.62,31.77Z"/>
        <path class="cls-1" d="m11.33,34.51c-.05-.01-.1.27,0,.68.04.19.11.37.23.53.01.07.27.18.39.04.22-.35.76-2.92.46-3.16-.22-.12-.59,2.77-.68,2.95-.15-.05-.21-1-.39-1.03Z"/>
        <path class="cls-1" d="m43.32,11.94c0,.06.31-.34-.13-.74-.41-.32-1.09-.42-1.8-.46-1.44-.05-2.59.18-2.57.27,0-.07,3.16-.22,3.95.24.57.33.5.69.56.68Z"/>
      </g>
      <path class="cls-2" d="m20.71,61.67c-1.36-1.1-2.98-1.83-4.32-2.94-.65-.55-1.31-1.26-1.4-2.2-.07-.88.27-1.82,1.01-2.3,1.47-.88,3.05-.75,4.42-.72,1.39.07,2.67.26,3.83.41,1.16.15,2.21.32,3.1.13.87-.13,1.64-.74,1.37-1.34-.25-.55-.8-.74-1.09-.89-.32-.11-.49-.18-.49-.2,0-.02.18.01.52.1.3.13.89.25,1.24.91.17.33.05.82-.28,1.11-.32.3-.75.48-1.22.59-.95.23-2.05.08-3.2-.05-1.17-.13-2.44-.29-3.81-.35-1.33-.02-2.91-.08-4.13.69-.58.37-.85,1.15-.8,1.86.07.72.62,1.35,1.23,1.87,1.27,1.05,2.89,1.77,4.32,2.93.7.57,1.39,1.33,1.53,2.32.08.97-.26,1.92-1.01,2.54-1.55,1.06-3.3,1.04-4.84,1.11-3.14,0-5.92-.44-8.24-.83-4.64-.84-7.43-1.67-7.37-1.89.06-.27,2.88.44,7.48,1.27,2.3.39,5.06.85,8.13.88,1.49-.04,3.23-.07,4.52-.96.57-.44.89-1.3.82-2.06-.1-.78-.67-1.45-1.34-1.99Z"/>
    </g>
  </g>
</svg>